<svg width="104" height="90" viewBox="0 0 104 90" fill="none" xmlns="http://www.w3.org/2000/svg">
<path d="M48.6283 83.2935C49.7302 83.3187 50.8533 83.3333 51.9999 83.3333V80C50.8801 80 49.7815 79.9854 48.7048 79.9601L48.6283 83.2935Z" fill="#01A3C8"/>
<path d="M11.3399 76.1133C16.602 78.3797 28.0033 82.3104 45.2502 83.1665L45.4163 79.8364C28.6934 79.0063 17.7153 75.2287 12.6599 73.0534L11.3399 76.1133Z" fill="#01A3C8"/>
<path d="M96.9617 51.2915C96.7664 48.7117 94.6285 46.6667 91.9999 46.6667H85.3332C84.0482 46.6667 82.887 47.168 81.9999 47.9663C81.1129 47.1663 79.9516 46.6667 78.6666 46.6667H71.9999C70.54 46.6667 69.2346 47.3063 68.3199 48.3081C67.2213 47.2982 65.7686 46.6667 64.1614 46.6667H56.5051C54.7229 46.6667 53.1262 47.4381 51.9999 48.6499C50.872 47.4381 49.2769 46.6667 47.4947 46.6667H39.8385C38.2312 46.6667 36.7786 47.2982 35.6783 48.3081C34.7652 47.3063 33.4599 46.6667 31.9999 46.6667H25.3333C24.0483 46.6667 22.887 47.168 21.9999 47.9663C21.1129 47.1663 19.9516 46.6667 18.6666 46.6667H11.9999C9.37134 46.6667 7.23348 48.7117 7.03817 51.2915L0.635173 72.1037C0.434977 72.7515 0.333252 73.4285 0.333252 74.1081C0.333252 77.255 2.50854 79.9967 5.54159 80.7365C7.69653 81.9165 23.4932 90 51.9999 90C80.5066 90 96.3033 81.9165 98.4583 80.7349C101.491 79.9967 103.667 77.255 103.667 74.1081C103.667 73.4285 103.565 72.7531 103.365 72.1037L96.9617 51.2915ZM85.3332 50H91.9999C92.9195 50 93.6666 50.7471 93.6666 51.6667V58.3333C93.6666 61.0897 91.4229 63.3333 88.6666 63.3333C85.9102 63.3333 83.6666 61.0897 83.6666 58.3333V51.6667C83.6666 50.7471 84.4137 50 85.3332 50ZM70.3332 51.6667C70.3332 50.7471 71.0803 50 71.9999 50H78.6666C79.5862 50 80.3333 50.7471 80.3333 51.6667V58.3333C80.3333 61.0897 78.0896 63.3333 75.3333 63.3333C72.5769 63.3333 70.3332 61.0897 70.3332 58.3333V51.6667ZM56.5051 50H64.1614C65.7263 50 66.9999 51.2736 66.9999 52.8385C66.9999 53.0452 66.9763 53.2536 66.9316 53.4554L64.7896 63.09C64.3233 65.1969 62.4898 66.6667 60.3332 66.6667C58.1767 66.6667 56.3432 65.1969 55.8769 63.09L53.7349 53.4554C53.6902 53.2536 53.6666 53.0452 53.6666 52.8385C53.6666 51.2736 54.9402 50 56.5051 50ZM39.8385 50H47.4947C49.0597 50 50.3333 51.2736 50.3333 52.8385C50.3333 53.0452 50.3097 53.2536 50.2649 53.4554L48.123 63.09C47.6567 65.1969 45.8232 66.6667 43.6666 66.6667C41.51 66.6667 39.6765 65.1969 39.2102 63.09L37.0683 53.4554C37.0235 53.2536 36.9999 53.0452 36.9999 52.8385C36.9999 51.2736 38.2735 50 39.8385 50ZM25.3333 50H31.9999C32.9195 50 33.6666 50.7471 33.6666 51.6667V58.3333C33.6666 61.0897 31.4229 63.3333 28.6666 63.3333C25.9102 63.3333 23.6666 61.0897 23.6666 58.3333V51.6667C23.6666 50.7471 24.4137 50 25.3333 50ZM10.3333 51.6667C10.3333 50.7471 11.0803 50 11.9999 50H18.6666C19.5862 50 20.3333 50.7471 20.3333 51.6667V58.3333C20.3333 61.0897 18.0896 63.3333 15.3333 63.3333C12.5769 63.3333 10.3333 61.0897 10.3333 58.3333V51.6667ZM97.5297 77.5285L97.262 77.5814L97.0219 77.7197C96.8681 77.8101 81.2146 86.6667 51.9999 86.6667C22.8748 86.6667 7.13013 77.8084 6.97469 77.7181L6.73462 77.5814L6.46851 77.5285C4.84497 77.2013 3.66659 75.765 3.66659 74.1081C3.66659 73.7598 3.71785 73.4147 3.82121 73.0835L7.50854 61.1003C8.65519 64.3319 11.7135 66.6667 15.3333 66.6667C18.0684 66.6667 20.4797 65.3231 21.9999 63.2821C23.5201 65.3231 25.9314 66.6667 28.6666 66.6667C31.6435 66.6667 34.2403 65.0846 35.7149 62.7319L35.955 63.8135C36.7631 67.4569 39.9353 70 43.6666 70C47.3979 70 50.5701 67.4569 51.3782 63.8135L51.9999 61.0164L52.6217 63.8135C53.4298 67.4569 56.602 70 60.3332 70C64.0645 70 67.2367 67.4569 68.0448 63.8135L68.2849 62.7319C69.7595 65.0846 72.3564 66.6667 75.3333 66.6667C78.0684 66.6667 80.4797 65.3231 81.9999 63.2821C83.5201 65.3231 85.9314 66.6667 88.6666 66.6667C92.2864 66.6667 95.3446 64.3319 96.4913 61.1003L100.179 73.0835C100.282 73.4147 100.333 73.7598 100.333 74.1081C100.333 75.765 99.1549 77.2013 97.5297 77.5285Z" fill="#01A3C8"/>
<path d="M55.3731 6.70817C54.2712 6.67969 53.1466 6.66667 51.9999 6.66667V10C53.1181 10 54.2167 10.013 55.2934 10.0399L55.3731 6.70817Z" fill="#01A3C8"/>
<path d="M92.6599 13.8867C87.3979 11.6203 75.9965 7.68962 58.7496 6.8335L58.5836 10.1619C75.3096 10.9953 86.2862 14.7713 91.3399 16.9482L92.6599 13.8867Z" fill="#01A3C8"/>
<path d="M7.03817 38.7085C7.23348 41.2882 9.37134 43.3333 11.9999 43.3333H18.6666C19.9516 43.3333 21.1129 42.832 21.9999 42.0337C22.887 42.8337 24.0483 43.3333 25.3333 43.3333H31.9999C33.4599 43.3333 34.7652 42.6937 35.6799 41.6919C36.7786 42.7018 38.2312 43.3333 39.8385 43.3333H47.4947C49.2769 43.3333 50.8736 42.5618 51.9999 41.3501C53.1278 42.5618 54.7229 43.3333 56.5051 43.3333H64.1614C65.7686 43.3333 67.2213 42.7018 68.3215 41.6919C69.2346 42.6937 70.54 43.3333 71.9999 43.3333H78.6666C79.9516 43.3333 81.1129 42.832 81.9999 42.0337C82.887 42.8337 84.0482 43.3333 85.3332 43.3333H91.9999C94.6285 43.3333 96.7664 41.2882 96.9617 38.7085L103.365 17.8979C103.565 17.2502 103.667 16.5731 103.667 15.8919C103.667 12.745 101.491 10.0016 98.4583 9.26351C96.3033 8.0835 80.5066 0 51.9999 0C23.4932 0 7.69653 8.0835 5.54159 9.26514C2.50854 10.0016 0.333252 12.745 0.333252 15.8919C0.333252 16.5731 0.434977 17.2485 0.635173 17.8963L7.03817 38.7085ZM18.6666 40H11.9999C11.0803 40 10.3333 39.2513 10.3333 38.3333V31.6667C10.3333 28.9103 12.5769 26.6667 15.3333 26.6667C18.0896 26.6667 20.3333 28.9103 20.3333 31.6667V38.3333C20.3333 39.2513 19.5862 40 18.6666 40ZM33.6666 38.3333C33.6666 39.2513 32.9195 40 31.9999 40H25.3333C24.4137 40 23.6666 39.2513 23.6666 38.3333V31.6667C23.6666 28.9103 25.9102 26.6667 28.6666 26.6667C31.4229 26.6667 33.6666 28.9103 33.6666 31.6667V38.3333ZM47.4947 40H39.8385C38.2735 40 36.9999 38.7264 36.9999 37.1615C36.9999 36.9531 37.0235 36.7464 37.0683 36.5446L39.2102 26.9084C39.6765 24.8031 41.51 23.3333 43.6666 23.3333C45.8232 23.3333 47.6567 24.8031 48.123 26.91L50.2665 36.5487C50.3097 36.748 50.3333 36.9548 50.3333 37.1631C50.3333 38.7264 49.0597 40 47.4947 40ZM64.1614 40H56.5051C54.9402 40 53.6666 38.7264 53.6666 37.1615C53.6666 36.9531 53.6902 36.7464 53.7349 36.5446L55.8769 26.9084C56.3432 24.8031 58.1767 23.3333 60.3332 23.3333C62.4898 23.3333 64.3233 24.8031 64.7896 26.91L66.9332 36.5487C66.9763 36.748 66.9999 36.9548 66.9999 37.1631C66.9999 38.7264 65.7263 40 64.1614 40ZM78.6666 40H71.9999C71.0803 40 70.3332 39.2513 70.3332 38.3333V31.6667C70.3332 28.9103 72.5769 26.6667 75.3333 26.6667C78.0896 26.6667 80.3333 28.9103 80.3333 31.6667V38.3333C80.3333 39.2513 79.5862 40 78.6666 40ZM93.6666 38.3333C93.6666 39.2513 92.9195 40 91.9999 40H85.3332C84.4137 40 83.6666 39.2513 83.6666 38.3333V31.6667C83.6666 28.9103 85.9102 26.6667 88.6666 26.6667C91.4229 26.6667 93.6666 28.9103 93.6666 31.6667V38.3333ZM6.47013 12.4715L6.73787 12.4186L6.97795 12.2803C7.13175 12.1916 22.7852 3.33333 51.9999 3.33333C81.1251 3.33333 96.8697 12.1916 97.0251 12.2819L97.2652 12.4202L97.5313 12.4731C99.1549 12.797 100.333 14.235 100.333 15.8919C100.333 16.2402 100.282 16.5853 100.179 16.9165L96.4913 28.8997C95.3446 25.6681 92.2864 23.3333 88.6666 23.3333C85.9314 23.3333 83.5201 24.6769 81.9999 26.7179C80.4797 24.6769 78.0684 23.3333 75.3333 23.3333C72.3564 23.3333 69.7595 24.9154 68.2849 27.2681L68.0448 26.1865C67.2367 22.5431 64.0645 20 60.3332 20C56.602 20 53.4298 22.5431 52.6217 26.1865L51.9999 28.9852L51.3782 26.1865C50.5701 22.5431 47.3979 20 43.6666 20C39.9353 20 36.7631 22.5431 35.955 26.1865L35.7149 27.2681C34.2403 24.9154 31.6435 23.3333 28.6666 23.3333C25.9314 23.3333 23.5201 24.6769 21.9999 26.7179C20.4797 24.6769 18.0684 23.3333 15.3333 23.3333C11.7135 23.3333 8.65682 25.6681 7.50854 28.8997L3.82121 16.9149C3.71785 16.5853 3.66659 16.2402 3.66659 15.8919C3.66659 14.235 4.84497 12.797 6.47013 12.4715Z" fill="#01A3C8"/>
</svg>
