<svg width="50" height="16" viewBox="0 0 50 16" fill="none" xmlns="http://www.w3.org/2000/svg">
<path fill-rule="evenodd" clip-rule="evenodd" d="M41.2929 0.292893C41.6834 -0.0976312 42.3166 -0.0976309 42.7071 0.292893L49.7071 7.2929C49.8946 7.48044 50 7.73479 50 8.00001C50 8.26522 49.8946 8.51958 49.7071 8.70711L42.7071 15.7071C42.3166 16.0976 41.6834 16.0976 41.2929 15.7071C40.9024 15.3166 40.9024 14.6834 41.2929 14.2929L46.5858 9L1 9.00001C0.447715 9.00001 5.96046e-08 8.55229 0 8.00001C0 7.44772 0.447715 7.00001 1 7.00001L46.5858 7.00001L41.2929 1.70711C40.9024 1.31658 40.9024 0.683417 41.2929 0.292893Z" fill="#01A3C8"/>
</svg>
