<svg width="82" height="90" viewBox="0 0 82 90" fill="none" xmlns="http://www.w3.org/2000/svg">
<path d="M61.5415 4.14879C56.0785 1.33629 49.9099 0 43.7863 0C24.3129 0 5.25034 13.4953 10.4441 35.8842L7.02186 40.0247L0.975342 51.0949L6.85856 55.7722L6.61405 63.6356L8.96513 67.0057C8.96513 67.0057 6.16493 77.5252 10.4441 79.0193C14.468 80.4227 18.8514 80.7688 22.2092 80.7688C25.516 80.7688 27.8287 80.4338 27.8287 80.4338L28.2968 90H68.0097C68.0097 90 64.082 70.167 70.0477 61.7404C76.016 53.3139 95.4838 21.6239 61.5415 4.14879ZM63.0439 79.1757C63.1483 81.8399 63.39 84.2954 63.6371 86.2509H31.8675L31.575 80.2496L31.3786 76.127L27.2931 76.7203C27.2726 76.7257 25.1672 77.0196 22.2092 77.0196C19.5162 77.0196 15.6065 76.7696 12.0482 75.6025C11.8875 75.1219 11.6883 73.9078 11.926 71.6913C12.1389 69.6946 12.5852 67.9834 12.588 67.9697L13.0371 66.2889L10.4018 62.5096L10.6655 54.0061L5.77927 50.1224L10.1408 42.1367L14.5175 36.8427L14.0972 35.0355C13.1635 31.0076 13.081 27.1802 13.8541 23.6605C14.5601 20.4428 15.98 17.4751 18.0757 14.8398C20.7729 11.4437 24.5975 8.62295 29.1348 6.68514C33.6281 4.76525 38.6943 3.75047 43.7865 3.75047C49.5365 3.75047 55.0819 5.04141 59.8251 7.48301C64.791 10.0401 68.7515 13.0461 71.5916 16.4176C74.0388 19.3208 75.7142 22.574 76.5711 26.087C77.9774 31.8452 77.2825 38.4439 74.5003 45.7031C72.13 51.8912 68.7765 57.0493 66.9884 59.5733C64.0244 63.7564 62.6979 70.3536 63.0439 79.1757Z" fill="#01A3C8"/>
<path d="M35.7236 42.3373C35.4243 42.2974 35.1332 42.3319 34.8667 42.4252L30.9062 43.7998C30.2567 44.0278 29.7567 44.6017 29.662 45.3296C29.5273 46.3541 30.2512 47.2961 31.2783 47.4308C31.5777 47.4693 31.8687 47.4362 32.1352 47.3429L36.0958 45.9669C36.7453 45.7417 37.2452 45.1676 37.3399 44.437C37.4746 43.4098 36.7507 42.4704 35.7236 42.3373Z" fill="#01A3C8"/>
<path d="M27.2037 44.6403C26.9401 44.4919 26.6558 44.4177 26.3742 44.404L22.1857 44.2337C21.4991 44.2034 20.822 44.555 20.4664 45.1977C19.9652 46.1042 20.2948 47.2441 21.1997 47.7467C21.4648 47.8922 21.7477 47.9636 22.0293 47.9773L26.2192 48.1502C26.9058 48.1777 27.5829 47.8289 27.9371 47.1863C28.4384 46.2799 28.1101 45.14 27.2037 44.6403Z" fill="#01A3C8"/>
<path d="M18.4587 44.5083C18.2486 44.2913 17.9973 44.1402 17.7308 44.0468L13.7648 42.6859C13.1153 42.4634 12.3668 42.6077 11.8421 43.1213C11.1033 43.8493 11.0936 45.0358 11.8187 45.7718C12.0302 45.9887 12.2816 46.1399 12.5479 46.2332L16.5126 47.5927C17.1635 47.8152 17.912 47.6723 18.4353 47.1587C19.1741 46.4308 19.1852 45.2443 18.4587 44.5083Z" fill="#01A3C8"/>
<path d="M35.824 58.5049C35.2114 57.6699 34.0374 57.4887 33.2036 58.1039C32.9605 58.2797 32.7739 58.5077 32.6461 58.7576L30.7316 62.4875C30.4186 63.1028 30.4542 63.8636 30.8883 64.4542C31.5021 65.2892 32.6749 65.4704 33.5099 64.8552C33.753 64.6794 33.9384 64.4514 34.0674 64.2014L35.9819 60.4715C36.2949 59.8563 36.2592 59.0955 35.824 58.5049Z" fill="#01A3C8"/>
<path d="M36.8126 48.4249C35.9117 47.9141 34.7677 48.23 34.2569 49.1308C34.1086 49.3917 34.0303 49.6773 34.0152 49.9575L33.7969 54.1432C33.7612 54.8298 34.1059 55.511 34.7445 55.8736C35.6454 56.3845 36.7894 56.0686 37.3002 55.1677C37.45 54.9068 37.5268 54.6212 37.5419 54.341L37.7602 50.1525C37.7958 49.4687 37.4512 48.7875 36.8126 48.4249Z" fill="#01A3C8"/>
<path d="M30.1385 66.7118C30.0053 65.6845 29.0659 64.9594 28.0388 65.0912C27.7395 65.1297 27.4675 65.2396 27.2327 65.396L23.7528 67.7334C23.1829 68.118 22.8464 68.8018 22.9398 69.5297C23.0716 70.557 24.0124 71.2821 25.0395 71.1503C25.3374 71.1118 25.6108 71.0019 25.8456 70.8455L29.3241 68.5081C29.8954 68.1235 30.2319 67.4369 30.1385 66.7118Z" fill="#01A3C8"/>
<path d="M20.8069 69.8923C20.5075 69.8593 20.2164 69.8978 19.9514 69.9967L16.0142 71.436C15.3688 71.6723 14.8771 72.2545 14.7947 72.985C14.6779 74.0149 15.4167 74.9434 16.4466 75.0613C16.746 75.0944 17.0359 75.0531 17.3008 74.9569L21.2393 73.5176C21.8848 73.2814 22.375 72.6992 22.4575 71.9686C22.5758 70.9415 21.8356 70.0104 20.8069 69.8923Z" fill="#01A3C8"/>
</svg>
