<svg width="126" height="90" viewBox="0 0 126 90" fill="none" xmlns="http://www.w3.org/2000/svg">
<path d="M123.723 56.181C122.899 52.3932 121.095 46.9761 117.185 42.6787C115.326 40.6347 115.711 39.7493 116.856 37.1199C118.248 33.9247 120.351 29.0951 117.495 20.2245C116.245 16.3447 113.484 13.2868 109.718 11.6139C105.932 9.93182 101.374 9.8017 96.8846 11.2476C93.4441 12.3556 90.5256 14.8684 88.6544 18.2737C85.1433 16.602 81.2862 16.2704 77.8128 17.389C73.3226 18.8349 69.6974 21.6003 67.6043 25.1757C65.5233 28.7312 65.065 32.8262 66.3145 36.7058C69.1709 45.5769 73.6972 48.2713 76.6922 50.0544C79.1562 51.5212 79.9863 52.0152 79.669 54.7601C79.0016 60.5314 80.698 65.9834 82.2386 69.5403C84.095 73.8268 86.7179 77.629 89.2545 79.7107C90.5941 80.8097 92.3857 81.8138 94.1646 81.2399C96.3102 80.549 96.4998 77.9616 96.5622 77.1114C96.6709 75.6259 96.5597 73.8033 96.4313 71.6927C95.9625 63.9995 95.9647 57.506 100.759 55.9623C105.555 54.42 109.344 59.6904 113.453 66.2113C114.58 68.0005 115.553 69.5457 116.509 70.6884C117.056 71.3421 118.719 73.3333 120.865 72.6419C122.317 72.1746 123.358 70.7923 123.96 68.5343C124.806 65.3633 124.717 60.7455 123.723 56.181ZM120.73 65.8035C120.527 67.573 120.136 68.5166 119.876 68.9271C119.052 68.1966 117.635 65.9472 116.566 64.2503C114.707 61.2995 112.6 57.9549 109.99 55.4824C106.668 52.3337 103.183 51.3168 99.6327 52.4607C96.082 53.6038 93.8452 56.4631 92.9846 60.9589C92.3085 64.4894 92.549 68.435 92.7612 71.9163C92.8831 73.9181 93.0448 76.572 92.8025 77.6457C92.3517 77.4641 91.4828 76.9257 90.2853 75.6075C86.2763 71.1933 82.4741 62.5347 83.324 55.1821C83.9147 50.0719 81.2001 48.4556 78.5748 46.8929C75.7558 45.2149 72.2477 43.1264 69.8166 35.5779C67.8301 29.4097 71.6675 23.2324 78.9409 20.8899C79.9078 20.5785 80.9352 20.426 81.9837 20.426C83.7447 20.426 85.565 20.8577 87.2597 21.6896C86.5314 24.0425 85.9755 25.2849 82.7914 26.3101C81.8742 26.6053 81.3331 27.5934 81.5761 28.5254C81.839 29.5336 82.9271 30.1312 83.919 29.8113C89.1426 28.1292 90.0488 25.1575 90.9249 22.2839C90.9888 22.0751 91.056 21.8586 91.1238 21.6425C91.1449 21.5995 91.1667 21.5571 91.1845 21.5124C92.524 18.1795 95.0129 15.714 98.0125 14.748C105.287 12.4068 112.007 15.1828 113.994 21.3514C116.425 28.8999 114.794 32.6431 113.485 35.651C112.264 38.4522 111.003 41.3486 114.465 45.1537C119.446 50.629 121.41 59.8795 120.73 65.8035Z" fill="#01A3C8"/>
<path d="M31.4934 18.1996C30.4774 18.1996 29.6542 19.0228 29.6542 20.0388C29.6542 21.0548 30.4774 21.878 31.4934 21.878C36.9809 21.878 38.7545 19.3273 40.4696 16.8605C40.5942 16.6816 40.725 16.4962 40.8554 16.3112C40.8889 16.2769 40.9226 16.2427 40.9537 16.2056C43.2502 13.4439 46.3746 11.8598 49.5262 11.8598C57.1677 11.8598 62.7138 16.5636 62.7138 23.0437C62.7138 24.0597 63.537 24.8829 64.553 24.8829C65.569 24.8829 66.3922 24.0597 66.3922 23.0437C66.3922 18.9677 64.7009 15.2105 61.6297 12.4638C58.5415 9.70216 54.2431 8.18124 49.5262 8.18124C45.9112 8.18124 42.3632 9.67837 39.5386 12.3461C36.7082 9.67837 33.1386 8.18124 29.4899 8.18124C24.773 8.18124 20.4744 9.70216 17.3864 12.4638C14.3152 15.2107 12.6239 18.968 12.6239 23.044C12.6239 32.3637 16.1061 36.3154 18.4104 38.9307C20.3061 41.0823 20.9446 41.8072 19.8012 44.3227C17.3971 49.6118 17.3405 55.3212 17.7166 59.1792C18.1698 63.8286 19.5009 68.2517 21.2774 71.0105C22.5425 72.9754 23.9575 73.9717 25.4826 73.9717C27.7364 73.9717 28.7104 71.5669 29.0303 70.7772C29.5892 69.3966 30.0424 67.6273 30.567 65.5789C32.4788 58.1129 34.4714 51.9327 39.508 51.9327C44.5449 51.9327 46.5373 58.1129 48.449 65.5789C48.9736 67.6276 49.4264 69.3966 49.9857 70.7772C50.3057 71.5674 51.2794 73.9717 53.5335 73.9717C55.0588 73.9717 56.4736 72.9754 57.7386 71.0105C59.5152 68.2517 60.8465 63.8288 61.2995 59.1792C61.6755 55.3212 61.619 49.6118 59.2151 44.323C58.0717 41.8075 58.7099 41.0826 60.6062 38.9312C61.7826 37.596 63.2467 35.934 64.4064 33.4289C64.8329 32.5072 64.4316 31.414 63.5099 30.9872C62.5886 30.5609 61.4952 30.962 61.0681 31.8838C60.1333 33.9035 58.9182 35.2824 57.8462 36.4992C55.8264 38.7916 53.7376 41.162 55.8664 45.8449C58.9294 52.583 57.9644 61.9904 55.5011 67.4208C54.7655 69.0427 54.1035 69.821 53.7301 70.1322C53.1701 69.1847 52.5105 66.6087 52.013 64.6659C51.1481 61.2876 50.1676 57.4582 48.4417 54.3047C46.2442 50.2894 43.2388 48.2533 39.5085 48.2533C35.7784 48.2533 32.7728 50.2892 30.5753 54.3047C28.8497 57.4582 27.8689 61.2876 27.004 64.6659C26.5066 66.6087 25.847 69.1847 25.2869 70.1322C24.9138 69.821 24.2515 69.0429 23.5159 67.4208C21.0526 61.9901 20.0876 52.5828 23.1506 45.8449C25.2791 41.1617 23.1906 38.7914 21.1708 36.4992C19.0017 34.0378 16.3027 30.9744 16.3027 23.0442C16.3027 16.5639 21.8489 11.8603 29.4904 11.8603C32.2125 11.8603 34.996 13.0795 37.1632 15.1721C35.7481 17.188 34.8382 18.1996 31.4934 18.1996Z" fill="#01A3C8"/>
<path d="M123.503 78.6683C123.503 78.6683 123.521 78.6578 123.557 78.6428C123.436 78.6928 120.546 79.8185 115.817 75.089C114.709 73.9812 112.95 71.6286 111.25 69.3532C106.619 63.1586 104.686 60.8176 102.745 60.8176C102.174 60.8176 101.64 61.0497 101.243 61.4711C100.327 62.4419 100.367 63.8458 100.644 68.5659C100.955 73.8472 101.474 82.6865 98.8087 85.5127C98.2882 86.0646 97.6694 86.3214 96.86 86.3214C79.1074 86.3214 75.1822 54.9114 75.1446 54.5946C75.0358 53.6684 74.2505 52.9702 73.318 52.9702H67.4324C65.6073 52.9702 65.1131 54.9709 64.8756 55.9324C64.6164 56.9805 64.3654 58.4166 64.0745 60.0788C62.8296 67.1935 60.5127 80.4361 53.6993 80.4361C49.0756 80.4361 46.9968 73.2051 45.3261 67.3945C43.9008 62.4375 42.8713 58.856 39.9664 58.856C37.1068 58.856 35.7886 62.253 33.9643 66.9542C30.9848 74.633 28.2768 80.3649 22.8918 78.5685C17.7957 76.8699 16.2284 68.2105 15.8111 61.2453C15.3307 53.2297 16.2779 45.5518 16.2876 45.4751C16.3527 44.9583 16.1952 44.4378 15.8546 44.0433C15.5137 43.6493 15.0219 43.4175 14.5009 43.4068L2.73001 43.1616C1.70457 43.1373 0.874075 43.9467 0.852954 44.9622C0.831591 45.9779 1.63757 46.8181 2.65353 46.8392L12.4258 47.0427C12.1614 49.9294 11.7873 55.5171 12.1364 61.4167C12.8363 73.225 16.0636 80.1698 21.7285 82.0582C24.5397 82.9953 28.6521 83.1397 32.2851 78.5107C34.5413 75.6352 36.0569 71.7303 37.3938 68.2848C38.1075 66.4456 39.1359 63.7953 39.8746 62.8148C40.4832 63.8621 41.2263 66.4465 41.791 68.411C43.6962 75.038 46.3054 84.1144 53.6993 84.1144C58.1409 84.1144 61.6413 81.0624 64.1027 75.0428C66.0043 70.3929 66.9828 64.7982 67.6978 60.7129C67.9588 59.2212 68.2462 57.5789 68.4848 56.6488H71.725C72.1884 59.5324 73.41 65.8197 76.0311 72.1852C80.8301 83.8394 88.0324 90 96.8598 90C98.674 90 100.273 89.321 101.484 88.0365C105.239 84.0552 104.705 74.978 104.316 68.3503C104.276 67.6812 104.234 66.9551 104.201 66.2703C105.514 67.8257 107.15 70.0142 108.303 71.556C110.164 74.0451 111.921 76.396 113.215 77.6909C119.847 84.3225 124.624 82.2204 125.148 81.9589L123.503 78.6683Z" fill="#01A3C8"/>
<path d="M79.2036 9.80995H75.28C74.2641 9.80995 73.4408 10.6334 73.4408 11.6491C73.4408 12.6651 74.2641 13.4883 75.28 13.4883H79.2036C80.2195 13.4883 81.0428 12.6651 81.0428 11.6491C81.0428 10.6332 80.2195 9.80995 79.2036 9.80995Z" fill="#01A3C8"/>
<path d="M74.1405 0.194795C73.2316 -0.259903 72.127 0.108613 71.6728 1.01728L69.711 4.94083C69.2568 5.84974 69.6251 6.95431 70.5335 7.40853C71.4305 7.85764 72.5533 7.48233 73.0012 6.58604L74.963 2.66249C75.4174 1.75407 75.0492 0.649249 74.1405 0.194795Z" fill="#01A3C8"/>
<path d="M65.1539 4.94107L63.1921 1.01752C62.7381 0.1091 61.6338 -0.258444 60.7244 0.195039C59.816 0.649493 59.4477 1.75407 59.9019 2.66273L61.8639 6.58629C62.3422 7.54302 63.572 7.88823 64.4807 7.32502C65.2774 6.83148 65.5724 5.77861 65.1539 4.94107Z" fill="#01A3C8"/>
</svg>
