<svg width="106" height="90" viewBox="0 0 106 90" fill="none" xmlns="http://www.w3.org/2000/svg">
<path d="M24.132 26.0406V25.4717H20.7358V26.0406C20.7358 27.0136 20.7612 27.9866 20.8105 28.9545L24.2033 28.7813C24.1575 27.8694 24.132 26.9575 24.132 26.0406Z" fill="#01A3C8"/>
<path d="M24.4733 32.0707L21.0991 32.4561C22.0704 41.0095 25.0523 49.3693 29.7204 56.6288L32.5767 54.7914C28.1887 47.9667 25.3885 40.1095 24.4733 32.0707Z" fill="#01A3C8"/>
<path d="M62.9526 8.85052C60.0114 10.8373 56.5694 11.8867 52.9999 11.8867C49.4305 11.8867 45.9901 10.8373 43.049 8.85222L41.1488 11.6677C44.6537 14.0332 48.7513 15.283 52.9999 15.283C57.2486 15.283 61.3462 14.0332 64.8528 11.666L62.9526 8.85052Z" fill="#01A3C8"/>
<path d="M15.6414 57.7358H12.2452C12.2452 64.2889 6.91142 69.6226 0.358398 69.6226V73.0189C6.91142 73.0189 12.2452 78.3526 12.2452 84.9057H15.6414C15.6414 78.3526 20.9752 73.0189 27.5282 73.0189V69.6226C20.9752 69.6226 15.6414 64.2889 15.6414 57.7358ZM13.9433 77.9349C12.4829 75.0991 10.165 72.7811 7.32915 71.3207C10.165 69.8604 12.4829 67.5424 13.9433 64.7066C15.4037 67.5424 17.7216 69.8604 20.5575 71.3207C17.7216 72.7811 15.4037 75.0991 13.9433 77.9349Z" fill="#01A3C8"/>
<path d="M93.7546 13.5849H90.5027C87.2865 5.58509 79.4141 0 70.4939 0C66.2825 0 62.3225 1.13943 59.0418 3.29264C55.4095 5.68358 50.592 5.68358 46.958 3.29264C43.679 1.13943 39.719 0 35.5059 0C23.6158 0 13.9433 9.67245 13.9433 21.5626V26.0406C13.9433 38.216 17.4244 50.0621 24.008 60.3034C27.5503 65.8138 30.1518 71.8302 31.7412 78.1845L33.5888 85.5781C34.2375 88.183 36.5656 90 39.2486 90C42.1608 90 44.5891 87.9096 45.0188 85.0296L48.8276 59.6292C49.1418 57.5491 50.8959 56.0377 52.9999 56.0377C55.1039 56.0377 56.858 57.5491 57.1705 59.6292L60.9793 85.0296C61.4107 87.9096 63.839 90 66.7512 90C69.4342 90 71.7624 88.183 72.411 85.5781L74.2603 78.1845C75.8497 71.8285 78.4529 65.8121 81.9952 60.3034C85.8652 54.2819 88.6959 47.5574 90.3516 40.5781C90.3499 40.6375 90.3584 40.6953 90.3584 40.7547H93.7546C93.7546 34.2017 99.0884 28.8679 105.641 28.8679V25.4717C99.0884 25.4717 93.7546 20.1379 93.7546 13.5849ZM79.1373 58.466C75.3929 64.2906 72.6454 70.6483 70.966 77.3626L69.115 84.7562C68.845 85.8447 67.872 86.6038 66.7512 86.6038C65.5337 86.6038 64.5199 85.7292 64.3399 84.5253L60.531 59.1249C59.9673 55.367 56.7986 52.6415 52.9999 52.6415C49.2012 52.6415 46.0326 55.367 45.4688 59.1249L41.6599 84.5253C41.4816 85.7292 40.4661 86.6038 39.2486 86.6038C38.1278 86.6038 37.1548 85.8447 36.8814 84.7562L35.0322 77.3626C33.3544 70.6466 30.6052 64.2889 26.8608 58.466C20.6322 48.7749 17.3395 37.5623 17.3395 26.0406V21.5626C17.3395 11.5455 25.4888 3.39623 35.5059 3.39623C39.0533 3.39623 42.368 4.34208 45.0918 6.13189C47.4709 7.69585 50.1335 8.49057 52.9999 8.49057C55.8663 8.49057 58.529 7.69585 60.9063 6.13189C63.6318 4.34208 66.9465 3.39623 70.4939 3.39623C79.4531 3.39623 87.1829 10.0715 88.4565 18.7879L88.5278 19.8934C86.4222 23.237 82.7067 25.4717 78.4716 25.4717V28.8679C82.4588 28.8679 85.9858 30.8479 88.1424 33.8689C86.9961 42.5768 83.8852 51.0792 79.1373 58.466ZM92.0565 33.784C90.5961 30.9481 88.2782 28.6302 85.4424 27.1698C88.2782 25.7094 90.5961 23.3915 92.0565 20.5557C93.5169 23.3915 95.8348 25.7094 98.6707 27.1698C95.8348 28.6302 93.5169 30.9481 92.0565 33.784Z" fill="#01A3C8"/>
</svg>
