<svg width="68" height="90" viewBox="0 0 68 90" fill="none" xmlns="http://www.w3.org/2000/svg">
<path d="M67.138 23.9066L61.244 42.3297C61.2397 49.9701 59.6237 61.5756 56.0536 69.2914L47.9952 86.7123C47.266 88.8283 45.215 90.1693 42.9751 89.9819C40.51 89.7799 38.5025 87.5551 38.5025 85.023C38.5025 84.8958 38.52 84.7689 38.5542 84.6462C40.111 79.0731 43.2146 63.3755 38.9397 57.7428C37.8879 56.357 36.4489 55.6834 34.5398 55.6834C32.5832 55.6834 31.113 56.3706 30.0457 57.7846C25.7615 63.4595 28.9429 79.164 30.5302 84.7362C30.5658 84.8609 30.5838 84.9901 30.5838 85.1199C30.5838 86.4316 30.0709 87.6626 29.1393 88.5858C28.2182 89.4987 26.9998 89.9998 25.704 90C25.6891 90 25.6743 90 25.6592 89.9998C23.5877 89.9793 21.7516 88.6241 21.0612 86.6181L13.0396 69.303C9.46866 61.6002 7.83996 49.929 7.83629 42.3307L1.59305 22.8191C1.01612 20.9681 0.750809 19.0487 0.801201 17.1039C1.04864 7.63077 8.95741 -0.0357292 18.4486 0.00023444C18.5246 0.000449792 18.6054 0.000449792 18.69 0.0026033C22.5215 0.022631 26.0524 2.03746 28.1379 5.395C29.5237 7.62819 31.9169 8.96121 34.5401 8.96121C37.1632 8.96121 39.5564 7.6284 40.9418 5.39564C43.0279 2.03767 46.5586 0.0228463 50.3901 0.00281865C50.5038 -0.000411613 50.6128 1.90893e-05 50.7198 1.90893e-05C53.5043 1.90893e-05 56.2879 0.681821 58.7699 1.97393C59.2462 2.22201 59.5387 2.72055 59.5225 3.25742C59.5064 3.79429 59.1846 4.27452 58.6941 4.49354L53.9036 6.63284L58.1279 9.58121C58.6794 9.96626 58.879 10.6892 58.6034 11.3027L56.5632 15.8441L61.4665 14.9738C62.0475 14.8707 62.6309 15.1431 62.9248 15.655L64.3108 18.068C64.6959 18.7384 64.4644 19.594 63.7942 19.979C63.1236 20.3641 62.2682 20.1326 61.8832 19.4622L60.9873 17.9019L54.4465 19.0631C53.9365 19.154 53.4169 18.9546 53.0977 18.5456C52.779 18.1365 52.7125 17.5845 52.925 17.1114L55.5747 11.2134L50.2715 7.5119C49.8578 7.22311 49.6314 6.73405 49.6792 6.23185C49.7271 5.72944 50.0413 5.29184 50.5019 5.08618L54.4999 3.30071C53.2442 2.96411 51.9527 2.79355 50.6444 2.80002C50.6367 2.80002 50.6287 2.80002 50.6214 2.80002C50.5628 2.80002 50.5075 2.80002 50.4506 2.80174C50.4394 2.80195 50.4282 2.80217 50.417 2.80217C47.5499 2.81315 44.8969 4.33461 43.3206 6.87231C41.4214 9.93309 38.1388 11.7608 34.5405 11.7608C30.9422 11.7608 27.6596 9.93309 25.76 6.87166C24.184 4.33461 21.5309 2.81294 18.6637 2.80217C18.6525 2.80217 18.6413 2.80195 18.6301 2.80174C18.5657 2.7998 18.5035 2.80002 18.443 2.80002C18.4214 2.80002 18.3991 2.7998 18.3775 2.7998C10.4272 2.7998 3.80772 9.23536 3.60033 17.1769C3.55813 18.814 3.78102 20.4289 4.26319 21.9762L10.3611 41.0337C11.726 41.515 15.2803 42.6809 20.1615 43.6399L17.1209 35.9247C16.8375 35.2054 17.1907 34.3925 17.91 34.1091C18.6293 33.8254 19.4422 34.1791 19.7256 34.8981L23.3939 44.2065C26.739 44.7224 30.5227 45.087 34.5403 45.087C38.1005 45.087 41.7647 44.7997 45.4846 44.2319L49.1628 34.8983C49.4462 34.1791 50.2594 33.8259 50.9782 34.1093C51.6975 34.3927 52.0507 35.2056 51.7673 35.9249L48.7145 43.6715C49.3989 43.5384 50.0845 43.3959 50.7713 43.2443C51.5259 43.0774 52.2734 43.5544 52.4401 44.309C52.6067 45.0638 52.1304 45.811 51.3754 45.9779C45.6438 47.2446 39.9794 47.8868 34.5403 47.8868C23.5886 47.8868 14.4997 45.3549 10.6664 44.0996C10.8926 51.3458 12.4508 61.3762 15.5803 68.1266L23.6347 85.5121C23.6581 85.5627 23.6786 85.6148 23.6958 85.668C23.9863 86.5619 24.8047 87.1923 25.6861 87.2011C26.2419 87.2078 26.7719 86.992 27.169 86.5983C27.5261 86.2445 27.7388 85.7847 27.7782 85.2892C27.1201 82.9061 22.0684 63.7095 27.8112 56.1001C29.4212 53.9666 31.6851 52.8849 34.5405 52.8849C37.3454 52.8849 39.5765 53.9507 41.1712 56.0525C46.9049 63.6098 41.9524 82.8125 41.3096 85.1876C41.3938 86.1971 42.244 87.1139 43.2066 87.1929C44.1785 87.2743 45.0619 86.686 45.3615 85.7636C45.3787 85.7104 45.3991 85.6585 45.4224 85.6079L53.5131 68.1171C56.9379 60.7148 58.4703 49.4602 58.4445 42.1354V42.1132C58.4445 41.9685 58.4669 41.8247 58.5112 41.6866L64.4722 23.0544C64.7075 22.3182 65.4959 21.9122 66.2318 22.1478C66.9676 22.3823 67.3738 23.1703 67.138 23.9066Z" fill="#01A3C8"/>
</svg>
