<svg width="16" height="50" viewBox="0 0 16 50" fill="none" xmlns="http://www.w3.org/2000/svg">
<path fill-rule="evenodd" clip-rule="evenodd" d="M8 0C8.55228 -2.41411e-08 9 0.447715 9 1L9 49C9 49.5523 8.55229 50 8 50C7.44772 50 7 49.5523 7 49L7 1C7 0.447715 7.44772 2.41411e-08 8 0Z" fill="#01A3C8"/>
<path fill-rule="evenodd" clip-rule="evenodd" d="M0.292893 41.2929C0.683417 40.9024 1.31658 40.9024 1.70711 41.2929L8 47.5858L14.2929 41.2929C14.6834 40.9024 15.3166 40.9024 15.7071 41.2929C16.0976 41.6834 16.0976 42.3166 15.7071 42.7071L8.70711 49.7071C8.31658 50.0976 7.68342 50.0976 7.29289 49.7071L0.292893 42.7071C-0.0976311 42.3166 -0.0976311 41.6834 0.292893 41.2929Z" fill="#01A3C8"/>
</svg>
