<svg width="90" height="90" viewBox="0 0 90 90" fill="none" xmlns="http://www.w3.org/2000/svg">
<path d="M88.911 54.0585L74.361 49.9005C72.2391 49.2933 69.9724 49.4407 67.947 50.3175C69.6394 44.9409 70.5002 39.3371 70.5 33.7005C70.4856 27.0319 65.3272 21.5045 58.6755 21.03L58.47 24.03C63.5473 24.3928 67.4854 28.6102 67.5 33.7005C67.5039 40.0016 66.3709 46.2517 64.155 52.1505L63.0945 54.975C63.0409 55.1193 63.0101 55.2712 63.003 55.425L61.764 77.7225C61.6856 79.0201 60.8893 80.1656 59.7 80.691L58.5225 50.079L58.536 50.0415C60.4987 44.8172 61.503 39.2814 61.5 33.7005C61.4976 31.6579 59.8421 30.0024 57.7995 30V33C58.1863 33 58.5 33.3137 58.5 33.7005C58.5024 38.18 57.8108 42.6328 56.4495 46.9005C50.4234 40.577 40.4123 40.3361 34.0888 46.3622C33.9051 46.5373 33.7256 46.7167 33.5505 46.9005C32.1894 42.6328 31.4977 38.18 31.5 33.7005C31.5133 33.3047 31.845 32.9947 32.2408 33.008C32.3222 33.0108 32.4023 33.0274 32.478 33.057C36.4335 34.757 40.6946 35.6315 45 35.6265C46.5795 35.6267 48.1568 35.5104 49.719 35.2785L49.278 32.3115C43.9852 33.0975 38.5781 32.4013 33.657 30.3C31.7782 29.4956 29.6031 30.3665 28.7987 32.2453C28.6018 32.7052 28.5002 33.2002 28.5 33.7005C28.497 39.2814 29.5013 44.8172 31.464 50.0415L31.4775 50.079L30.3 80.691C29.1081 80.1641 28.311 79.0145 28.236 77.7135L27 55.416C26.9929 55.2622 26.9621 55.1103 26.9085 54.966L25.848 52.1415C23.6323 46.2457 22.4981 39.9988 22.5 33.7005C22.5007 28.3423 26.8451 23.9992 32.2035 24C33.5169 24.0002 34.8167 24.2672 36.024 24.7845C40.3444 26.648 45.1378 27.1198 49.7385 26.1345L49.1145 23.2005C45.1196 24.0564 40.9573 23.6486 37.2045 22.0335C30.7577 19.2699 23.2911 22.2557 20.5273 28.7027C19.8502 30.282 19.5007 31.9822 19.5 33.7005C19.4987 39.3371 20.3586 44.9407 22.05 50.3175C20.0246 49.4407 17.7579 49.2933 15.636 49.9005L1.086 54.0585C0.443062 54.2432 0.0001875 54.8312 0 55.5V88.5C0 89.3283 0.671625 90 1.5 90H88.5C89.3284 90 90 89.3283 90 88.5V55.5C89.9994 54.8302 89.5551 54.242 88.911 54.0585ZM30.057 87H3V56.631L16.4625 52.785C19.4123 51.9468 22.5497 53.2603 24.0225 55.95L25.242 77.88C25.4055 80.7243 27.4106 83.1268 30.18 83.796L30.057 87ZM34.455 50.5815C36.8147 47.0737 40.7724 44.9788 45 45C49.2259 44.9805 53.1818 47.075 55.5405 50.5815L56.7 80.595C55.7107 80.0859 55.0241 79.1351 54.852 78.036L51.657 56.727C51.1037 53.0529 47.6767 50.523 44.0027 51.0763C41.0833 51.516 38.7915 53.8076 38.352 56.727L35.157 78.036C34.9828 79.137 34.2926 80.0881 33.3 80.595L34.455 50.5815ZM33.0585 87L33.1815 83.808C35.7564 83.1999 37.7077 81.095 38.1195 78.4815L41.316 57.1725C41.6184 55.1379 43.5131 53.7337 45.5477 54.0362C47.1694 54.2773 48.4429 55.5506 48.684 57.1725L51.8805 78.4725C52.2917 81.0866 54.2432 83.1922 56.8185 83.8005L56.9415 87H33.0585ZM87 87H59.943L59.82 83.796C62.5894 83.1268 64.5945 80.7243 64.758 77.88L65.9775 55.95C67.4499 53.2599 70.5878 51.9463 73.5375 52.785L87 56.631V87Z" fill="#01A3C8"/>
<path d="M88.5 4.5H61.5V1.5C61.5 0.671625 60.8284 0 60 0H48C47.1716 0 46.5 0.671625 46.5 1.5V16.5C46.5 17.3284 47.1716 18 48 18H52.5V40.5H55.5V18H60C60.8284 18 61.5 17.3284 61.5 16.5V13.5H88.5C89.3284 13.5 90 12.8284 90 12V6C90 5.17163 89.3284 4.5 88.5 4.5ZM58.5 15H49.5V3H58.5V15ZM87 10.5H61.5V7.5H87V10.5Z" fill="#01A3C8"/>
</svg>
