<svg width="90" height="90" viewBox="0 0 90 90" fill="none" xmlns="http://www.w3.org/2000/svg">
<path d="M44.9995 0C29.4492 0 0.0390625 2.19289 0.0390625 10.4908V22.4806C0.0418524 23.5463 0.613091 24.5298 1.53726 25.0613V26.9766C1.53726 29.4596 3.55019 31.4725 6.03393 31.4725H7.80833C8.44095 33.2623 10.1296 34.462 12.0281 34.4703H16.5248C17.299 34.4655 18.0592 34.259 18.7288 33.8705C19.5491 35.1741 20.9796 35.9657 22.519 35.9685H28.5138C29.2887 35.9643 30.0483 35.7579 30.7186 35.3694C31.5381 36.6723 32.9694 37.4646 34.5087 37.4674H42.0025C43.1122 37.4632 44.1807 37.0468 44.9995 36.2984C45.3811 36.6486 45.8205 36.929 46.2976 37.1284C36.4798 40.9548 24.4001 49.0645 16.5408 55.2777C6.37849 63.2855 0.574032 71.5437 0.189021 78.545C0.179954 78.6071 0.175072 78.6699 0.173677 78.7326V78.8345C0.0299952 81.344 0.719807 83.8305 2.13709 85.907V85.9265C2.20405 86.0297 2.28077 86.1267 2.36656 86.2152C2.37982 86.2306 2.39446 86.2411 2.40841 86.2564L2.44399 86.2892C4.13748 88.0789 6.35896 89.28 8.78341 89.7166C9.76408 89.9098 10.7622 90.0047 11.7617 89.9998C18.3006 89.9998 26.5762 86.271 35.4622 79.2558C45.7159 71.1698 57.4148 59.66 62.2351 50.9561H62.4164C65.2789 50.9526 67.598 48.6327 67.6015 45.7703V35.9567C69.0955 35.9162 70.4716 35.1343 71.2703 33.8705C71.9405 34.259 72.7008 34.4655 73.475 34.4703H77.971C79.8695 34.462 81.5589 33.2623 82.1915 31.4725H83.9659C86.4489 31.4725 88.4618 29.4596 88.4618 26.9766V25.0613C89.386 24.5298 89.9572 23.5463 89.9607 22.4806V10.4908C89.9607 2.19289 60.5499 0 44.9995 0ZM44.9995 2.99709C72.1519 2.99709 86.963 7.94294 86.963 10.4908V19.374C86.2355 18.7135 85.2827 18.355 84.3 18.3724C83.3353 18.3752 82.3979 18.6905 81.6279 19.2715C80.5482 17.3666 78.4941 16.2249 76.3061 16.3134C74.2597 16.3176 72.3102 17.1825 70.9334 18.696C69.7058 16.6971 67.485 15.5274 65.1422 15.6466C62.9772 15.6529 60.9029 16.515 59.3705 18.0446C59.2212 18.1939 59.1103 18.3696 58.975 18.53C57.6568 16.22 55.1493 14.8494 52.4933 14.9868C50.1044 14.984 47.8125 15.9319 46.1225 17.6205C45.7019 18.0453 45.3239 18.5098 44.994 19.0078C43.3291 16.4983 40.5182 14.9889 37.5065 14.9868C34.8595 14.8494 32.3591 16.2088 31.0366 18.5056C29.4896 16.6985 27.2298 15.6578 24.8513 15.6585C22.5134 15.5427 20.2989 16.7103 19.072 18.7037C17.6959 17.1895 15.7457 16.3239 13.6993 16.319C11.5092 16.2283 9.4523 17.3708 8.3719 19.2777C7.60188 18.6967 6.66376 18.3815 5.69914 18.3787C4.71708 18.3599 3.76502 18.7156 3.03615 19.374V10.4908C3.03615 7.94294 17.8479 2.99709 44.9995 2.99709ZM56.9893 24.1287C51.8816 24.9385 48.0936 29.2999 48.0078 34.4703H47.9973C47.1694 34.4703 46.4984 33.7994 46.4984 32.9714V23.9795C46.4922 22.3871 47.1213 20.8589 48.247 19.7332C49.3728 18.6075 50.9017 17.9776 52.4933 17.9846C53.7028 17.926 54.8808 18.3808 55.7366 19.2373C56.5931 20.0931 57.0479 21.2712 56.9893 22.4806V24.1287ZM53.1824 50.9561H53.6086C47.0278 57.5326 40.023 63.6705 32.6387 69.3299C24.1936 75.9978 16.4522 79.5208 10.6073 79.4266C11.874 73.7122 17.0988 67.001 25.5377 60.3302C32.6729 54.5265 40.1751 49.1886 47.9973 44.3509V45.7703C48.0001 48.6327 50.32 50.9526 53.1824 50.9561ZM4.53504 26.9766V22.9793C4.53504 22.7115 4.59014 21.3702 5.69914 21.3702C6.84511 21.5564 7.64791 22.602 7.53213 23.7577V28.4755H6.03393C5.20602 28.4755 4.53504 27.8045 4.53504 26.9766ZM16.5248 31.4725H12.0281C11.2009 31.4725 10.5299 30.8016 10.5299 29.9737V22.4806C10.4748 21.6255 10.7901 20.7885 11.3955 20.1824C12.0016 19.577 12.8386 19.2617 13.6937 19.3168C16.084 19.3189 18.0209 21.2565 18.023 23.6468V29.9737C18.023 30.8016 17.352 31.4725 16.5248 31.4725ZM28.5138 32.9714H22.519C21.6917 32.9714 21.0208 32.3005 21.0208 31.4725V22.4806C20.9705 21.4497 21.3576 20.446 22.0872 19.7165C22.8168 18.9869 23.8205 18.5998 24.8513 18.65C27.7013 18.6528 30.0106 20.9629 30.0127 23.8128V31.4725C30.0127 32.3005 29.3417 32.9714 28.5138 32.9714ZM42.0025 34.4703H34.5087C33.6815 34.4703 33.0105 33.7994 33.0105 32.9714V22.4806C32.9519 21.2712 33.4067 20.0931 34.2625 19.2373C35.119 18.3808 36.2971 17.926 37.5065 17.9846C40.8174 17.9846 43.5014 20.6685 43.5014 23.9795V32.9714C43.5014 33.7994 42.8304 34.4703 42.0025 34.4703ZM18.3975 57.631C28.6219 49.5471 39.9505 42.7041 47.9973 39.6854V40.8997C39.479 45.9872 31.3491 51.6982 23.6733 57.9846C14.4665 65.2531 8.96476 72.4832 7.6221 79.0054C6.03324 78.5715 4.60618 77.6829 3.51602 76.4484C4.87541 70.7848 10.0577 64.2027 18.3975 57.631ZM33.6096 76.9059C24.0178 84.4813 15.4172 87.9903 9.27863 86.7746C7.50144 86.4412 5.8756 85.5547 4.63199 84.2421C3.80617 83.0438 3.31445 81.6467 3.20703 80.1953C4.8245 81.3273 6.69306 82.0471 8.65159 82.2933H8.80294C15.6969 83.17 24.571 79.5089 34.4996 71.6706C47.9074 61.0842 56.531 53.0506 60.7648 47.1757C57.5347 55.1772 44.9995 67.9196 33.6096 76.9059ZM64.603 45.7703C64.6016 46.3994 64.3289 46.9971 63.8532 47.41C63.9432 47.1492 64.0555 46.8779 64.1273 46.6261C64.4893 45.2967 63.8309 43.9017 62.5754 43.336C61.3193 42.7697 59.8385 43.2 59.0817 44.3509C58.2413 45.6098 57.3227 46.8144 56.3316 47.9583H53.1838C51.9758 47.9576 50.9965 46.9783 50.9944 45.7703V34.6949C50.9854 30.5072 54.3298 27.0819 58.5168 26.9912C58.5823 26.9933 58.6479 26.9884 58.7128 26.9766C60.2954 26.8971 61.8375 27.4906 62.9591 28.6094C64.0806 29.7281 64.6777 31.2689 64.603 32.8515V45.7703ZM68.979 31.4725C68.9742 32.2481 68.3736 32.8905 67.6001 32.947V32.8515C67.7933 28.366 64.4538 24.5082 59.9871 24.0569V23.8142C59.9822 22.4443 60.5234 21.1282 61.4908 20.158C62.4583 19.1878 63.7723 18.643 65.1422 18.6437C66.1744 18.5942 67.1795 18.982 67.9098 19.713C68.6408 20.4432 69.0286 21.4483 68.979 22.4806V31.4725ZM79.4699 29.9737C79.4699 30.8016 78.7989 31.4725 77.971 31.4725H73.475C72.6471 31.4725 71.9761 30.8016 71.9761 29.9737V23.6468C71.9789 21.2565 73.9158 19.3189 76.3061 19.3168C77.1612 19.2617 77.9982 19.577 78.6036 20.1824C79.2097 20.7885 79.525 21.6255 79.4699 22.4806V29.9737ZM85.4648 26.9766C85.4648 27.8045 84.7938 28.4755 83.9659 28.4755H82.467V23.7577C82.3512 22.602 83.1547 21.5564 84.3 21.3702C85.409 21.3702 85.4648 22.7115 85.4648 22.9793V26.9766Z" fill="#01A3C8"/>
</svg>
