<svg width="88" height="91" viewBox="0 0 88 91" fill="none" xmlns="http://www.w3.org/2000/svg">
<path d="M14.5077 62.1945L10.7967 53.535C9.64188 50.9197 6.58555 49.7357 3.97021 50.8905C1.35486 52.0453 0.170877 55.1017 1.3257 57.717C8.16121 72.7545 8.49421 74.3835 11.5257 77.412L23.6757 89.562C23.9569 89.8433 24.3384 90.0014 24.7362 90.0015H40.9977C41.8261 90.0015 42.4977 89.3299 42.4977 88.5015C42.6995 85.4601 42.5328 82.4054 42.0012 79.404C43.3292 79.53 44.6662 79.53 45.9942 79.404C45.3477 82.149 45.4977 83.835 45.4977 88.5C45.4977 89.3285 46.1693 90 46.9977 90H63.2652C63.663 89.9999 64.0445 89.8419 64.3257 89.5605L76.4757 77.4105C79.5027 74.382 79.7442 72.954 86.6757 57.7155C87.4228 56.0237 87.2105 54.0618 86.1188 52.569C85.0272 51.0761 83.222 50.279 81.3833 50.478C79.5446 50.6769 77.9518 51.8417 77.2047 53.5335L73.4877 62.1945C71.7465 60.9899 69.5824 60.5643 67.5147 61.02C68.2088 59.3177 68.7979 57.5744 69.2787 55.8C72.2562 55.2 79.4697 52.5855 79.4697 41.25C79.4697 37.4085 78.8007 32.6745 74.9802 32.1525C80.3804 23.7945 82.5384 13.7505 81.0477 3.91202L80.4477 1.17452C80.2946 0.485605 79.6819 -0.00338803 78.9762 1.76789e-05H9.01921C8.31629 0.000138309 7.70774 0.488355 7.55521 1.17452L6.92521 4.02452C5.4612 13.8347 7.62831 23.8419 13.0197 32.1675C9.2367 32.7315 8.58121 37.452 8.58121 41.256C8.58121 52.596 15.8007 55.206 18.7812 55.806C19.2648 57.5854 19.8564 59.3336 20.5527 61.041C18.4652 60.5563 16.27 60.9751 14.5077 62.1945ZM39.4977 87H25.3512L13.6512 75.291C11.2017 72.8475 11.2047 72.1995 4.0572 56.475C3.74317 55.7636 3.83252 54.9387 4.29159 54.3111C4.75067 53.6834 5.50973 53.3483 6.28284 53.432C7.05596 53.5158 7.72567 54.0056 8.03971 54.717C14.1162 68.898 11.7537 65.4435 23.6697 77.367C24.0463 77.757 24.604 77.9133 25.1285 77.7761C25.6529 77.6388 26.0625 77.2292 26.1998 76.7048C26.337 76.1803 26.1806 75.6226 25.7907 75.246C17.5737 67.0305 17.1852 66.8025 15.9327 64.884C17.6124 63.4895 20.0462 63.4857 21.7302 64.875C24.8544 67.7398 28.4638 70.0255 32.3892 71.625C35.8977 72.7905 39.4977 77.337 39.4977 83.7V87ZM40.9332 76.2375C39.5398 72.809 36.7914 70.1089 33.3387 68.7765C30.391 67.5841 27.6557 65.9226 25.2387 63.8565C20.0847 54.7245 19.4217 43.719 19.4142 33.2325C22.5927 27.6315 30.9297 14.712 43.9977 6.82952C57.0942 14.7705 65.4477 27.7095 68.6367 33.3255C68.6127 43.9755 67.9767 54.4755 62.8887 63.756C60.4358 65.865 57.6559 67.5606 54.6582 68.7765C51.2027 70.1116 48.4526 72.8156 47.0592 76.248C45.0287 76.5575 42.9627 76.554 40.9332 76.2375ZM72.0627 64.8765C70.8162 66.7875 70.4547 66.9885 62.2047 75.2385C61.6362 75.8271 61.6444 76.7626 62.223 77.3412C62.8016 77.9199 63.7371 77.928 64.3257 77.3595C76.1277 65.559 73.8762 68.9055 79.9557 54.717C80.2697 54.0056 80.9395 53.5158 81.7126 53.432C82.4857 53.3483 83.2447 53.6834 83.7038 54.3111C84.1629 54.9387 84.2522 55.7636 83.9382 56.475C76.8972 71.9655 76.8537 72.7875 74.3532 75.291L62.6442 87H48.4977V83.7C48.4465 80.4438 49.4986 77.266 51.4827 74.6835C55.0002 70.2855 56.1222 73.413 66.2652 64.875C67.9474 63.4835 70.3812 63.4842 72.0627 64.8765ZM76.4697 41.25C76.4697 48.8025 72.8082 51.5055 70.0857 52.4745C71.0991 47.1337 71.6054 41.7091 71.5977 36.273C72.9852 35.2875 74.2152 34.8765 74.8977 35.2065C75.2652 35.3835 76.4697 36.3465 76.4697 41.25ZM77.7762 3.00002C79.7629 13.0257 77.5389 23.4273 71.6262 31.764C71.4837 20.5605 68.5242 12.885 62.5752 8.33402C61.917 7.83075 60.9755 7.95633 60.4722 8.61452C59.9689 9.2727 60.0945 10.2142 60.7527 10.7175C65.0892 14.034 67.5747 19.461 68.3502 27.1425C62.3352 18.0075 53.0457 8.27702 43.3527 3.00002H77.7762ZM10.2222 3.00002H30.6807C27.3339 5.2168 24.3489 7.93623 21.8307 11.0625C21.3129 11.7095 21.4177 12.6538 22.0647 13.1715C22.7117 13.6893 23.6559 13.5845 24.1737 12.9375C27.5265 8.79737 31.7501 5.4465 36.5442 3.12302C38.068 3.72192 39.5595 4.39984 41.0127 5.15402C28.4217 13.26 20.3802 25.3695 16.6062 32.1C10.5083 23.7169 8.19361 13.1659 10.2222 3.00002ZM11.5812 41.25C11.5812 36.3405 12.7812 35.3775 13.1562 35.2005C13.8252 34.878 15.0807 35.295 16.4562 36.267C16.4487 41.7056 16.9554 47.1328 17.9697 52.476C15.2472 51.513 11.5812 48.8115 11.5812 41.25Z" fill="#01A3C8"/>
<path d="M26.6681 32.6025C28.2323 31.8163 30.0457 31.6878 31.7051 32.2455L37.5236 34.185C38.0327 34.3544 38.5935 34.2392 38.9947 33.883C39.3959 33.5268 39.5766 32.9836 39.4687 32.458C39.3608 31.9324 38.9807 31.5044 38.4716 31.335L32.6531 29.4C30.2395 28.5892 27.6019 28.7766 25.3271 29.9205C24.8434 30.1575 24.5239 30.6358 24.4901 31.1734C24.4563 31.711 24.7134 32.2255 25.1636 32.5212C25.6139 32.817 26.1881 32.8486 26.6681 32.604V32.6025Z" fill="#01A3C8"/>
<path d="M49.9976 34.2616C50.3471 34.2616 49.9976 34.3441 56.2976 32.2456C57.9568 31.6863 59.7709 31.8149 61.3346 32.6026C61.8146 32.8471 62.3889 32.8155 62.8391 32.5198C63.2893 32.2241 63.5464 31.7096 63.5126 31.172C63.4788 30.6343 63.1594 30.1561 62.6756 29.9191C60.4003 28.7753 57.7623 28.5879 55.3481 29.3986L49.5311 31.3381C48.8338 31.5697 48.407 32.2724 48.5227 32.998C48.6385 33.7236 49.2629 34.2585 49.9976 34.2616Z" fill="#01A3C8"/>
<path d="M37.9153 40.0185C37.6493 39.2356 36.7999 38.8156 36.0163 39.0795C35.9638 39.096 30.8488 40.764 26.8978 37.8C26.3037 37.3572 25.4752 37.4146 24.9478 37.935C24.4211 38.4799 23.7409 38.8514 22.9978 39C22.1694 39 21.4978 39.6716 21.4978 40.5C21.4978 41.3284 22.1694 42 22.9978 42C24.1179 41.9399 25.194 41.5443 26.0863 40.8645C26.3128 40.9995 26.5363 41.1195 26.7673 41.235C26.5662 41.5402 26.3042 41.8007 25.9978 42C25.1694 42 24.4978 42.6716 24.4978 43.5C24.4978 45.3435 27.2683 46.05 29.7073 42.2715C32.1241 42.7653 34.6261 42.644 36.9838 41.919C37.7645 41.6499 38.1809 40.8004 37.9153 40.0185Z" fill="#01A3C8"/>
<path d="M61.0977 37.8C57.1662 40.7475 52.0857 39.1155 51.9807 39.0795C51.1966 38.8119 50.344 39.2306 50.0764 40.0147C49.8089 40.7988 50.2276 41.6514 51.0117 41.919C53.3692 42.6451 55.8715 42.7664 58.2882 42.2715C59.0502 43.455 60.3567 45 61.9977 45C62.8333 45.0042 63.5167 44.3354 63.5307 43.5C63.5392 43.1051 63.3882 42.7234 63.1119 42.4412C62.8356 42.1589 62.4572 41.9999 62.0622 42C61.7298 41.8091 61.4463 41.5437 61.2342 41.2245C61.4592 41.109 61.6842 40.992 61.9092 40.857C62.8006 41.5394 63.8768 41.9377 64.9977 42C65.8261 42 66.4977 41.3284 66.4977 40.5C66.4977 39.6715 65.8261 39 64.9977 39C64.2587 38.851 63.5824 38.4812 63.0582 37.9395C62.5304 37.4117 61.6949 37.3522 61.0977 37.8Z" fill="#01A3C8"/>
<path d="M38.6653 52.248C41.8924 54.4072 46.1031 54.4072 49.3303 52.248C49.7761 51.9506 50.0294 51.4379 49.9948 50.903C49.9602 50.3682 49.6428 49.8924 49.1623 49.655C48.6818 49.4176 48.1111 49.4546 47.6653 49.752C45.4454 51.2357 42.5502 51.2357 40.3303 49.752C39.641 49.2922 38.7095 49.4782 38.2498 50.1675C37.79 50.8567 37.976 51.7882 38.6653 52.248Z" fill="#01A3C8"/>
<path d="M52.9977 61.2C52.9932 60.6975 52.7812 60.2192 52.412 59.8783C52.0427 59.5375 51.549 59.3643 51.0477 59.4C49.8042 59.4 46.1232 57 43.9977 57C41.8437 57 38.2138 59.4 36.9553 59.4C36.4529 59.3626 35.9574 59.5349 35.5866 59.8759C35.2157 60.2169 35.0026 60.6962 34.9978 61.2C34.9978 63.3165 39.2352 66 43.9977 66C48.7602 66 52.9977 63.315 52.9977 61.2ZM43.9977 60C45.6121 60.4728 47.1809 61.0893 48.6852 61.842C45.7508 63.3854 42.2447 63.3854 39.3102 61.842C40.814 61.0878 42.3829 60.4713 43.9977 60Z" fill="#01A3C8"/>
<path d="M45.4978 69H42.4978C41.6694 69 40.9978 69.6716 40.9978 70.5C40.9978 71.3284 41.6694 72 42.4978 72H45.4978C46.3262 72 46.9978 71.3284 46.9978 70.5C46.9978 69.6716 46.3262 69 45.4978 69Z" fill="#01A3C8"/>
<path d="M18.4977 18C19.3261 18 19.9977 17.3284 19.9977 16.5C19.9977 15.6715 19.3261 15 18.4977 15C17.6692 15 16.9977 15.6715 16.9977 16.5C16.9977 17.3284 17.6692 18 18.4977 18Z" fill="#01A3C8"/>
</svg>
