<svg width="54" height="90" viewBox="0 0 54 90" fill="none" xmlns="http://www.w3.org/2000/svg">
<path d="M40.05 6.83675e-06C38.1613 -0.00186816 36.2921 0.381944 34.557 1.12801C29.7264 3.18751 24.2647 3.18751 19.434 1.12801C12.3499 -1.90068 4.15181 1.38676 1.12312 8.47088C0.382687 10.2026 0.00075 12.0666 0 13.95C0.00675 19.7623 1.34925 25.4955 3.924 30.7065L6.0615 37.9305C6.25181 38.5658 6.83681 39.0008 7.5 39H12V46.5C12 47.3284 12.6716 48 13.5 48H18V51.4905L13.665 51.009L13.335 53.991L18 54.51V60.4905L13.665 60.009L13.335 62.991L18 63.51V69.4905L13.665 69.009L13.335 71.991L18 72.51V78.4905L13.665 78.009L13.335 80.991L18.1005 81.5205C18.1005 81.5325 18.1005 81.5445 18.1005 81.5565L21.1005 89.0565C21.3291 89.6286 21.8841 90.0026 22.5 90H31.5C32.1139 90.0002 32.6659 89.6265 32.8935 89.0565L35.1435 83.415L40.329 83.991L40.659 81.009L36 80.49V74.5095L40.335 74.991L40.665 72.009L36 71.49V65.5095L40.335 65.991L40.665 63.009L36 62.49V56.5095L40.335 56.991L40.665 54.009L36 53.49V48H40.5C41.3284 48 42 47.3284 42 46.5V39H46.5C47.1645 39.0002 47.7499 38.5631 47.9385 37.926L50.076 30.702C52.65 25.4923 53.9927 19.7608 54 13.95C53.9942 6.24807 47.7519 0.00581934 40.05 6.83675e-06ZM30.48 87H23.5155L21.474 81.9L32.0565 83.076L30.48 87ZM33 80.157L21 78.8235V72.843L33 74.1765V80.157ZM33 71.157L21 69.8235V63.843L33 65.1765V71.157ZM33 62.157L21 60.8235V54.843L33 56.1765V62.157ZM33 53.157L21 51.8235V48H33V53.157ZM39 45H15V39H39V45ZM47.3325 29.4795C47.2935 29.5581 47.2614 29.6398 47.2365 29.724L45.3795 36H8.6205L6.7635 29.724C6.73856 29.6398 6.7065 29.5581 6.6675 29.4795C4.26206 24.6557 3.00675 19.3403 3 13.95C3.0015 7.90257 7.905 3.00113 13.9526 3.00263C15.4322 3.00301 16.8962 3.30319 18.2565 3.88501C23.8416 6.26701 30.1569 6.26701 35.742 3.88501C41.3018 1.50582 47.7377 4.08413 50.1169 9.64388C50.6993 11.0048 50.9996 12.4697 51 13.95C50.9933 19.3403 49.7379 24.6557 47.3325 29.4795Z" fill="#01A3C8"/>
<path d="M11.25 6.19811C8.08725 7.8738 6.07875 11.1294 6 14.7076V16.5001H9V14.7001C9.08925 12.1981 10.5234 9.93949 12.75 8.79461L11.25 6.19811Z" fill="#01A3C8"/>
</svg>
