<svg width="178" height="61" viewBox="0 0 178 61" fill="none" xmlns="http://www.w3.org/2000/svg">
<path d="M39.9728 42.1326L28.9325 11.3134C28.2693 9.47985 26.5138 8.23147 24.5242 8.23147H16.4878C14.5372 8.23147 12.7426 9.47985 12.0794 11.3134L1.03913 42.1326C0.961104 42.3277 1.00012 42.5618 1.11715 42.7568C1.23419 42.9519 1.42924 43.0299 1.66331 43.0299H13.1718C14.2641 43.0299 15.2394 42.2887 15.5125 41.2744L15.9416 39.831C15.9806 39.6749 16.0976 39.5189 16.2147 39.4018L16.2537 39.3628C16.4097 39.2848 16.5658 39.2068 16.7218 39.2068H24.2121C24.6022 39.2068 24.9143 39.4408 25.0313 39.831L25.4605 41.2744C25.7725 42.3277 26.7088 43.0299 27.8012 43.0299H39.3096C39.5437 43.0299 39.7387 42.9129 39.8558 42.7568C40.0118 42.5618 40.0508 42.3277 39.9728 42.1326ZM25.3824 30.4681L16.6828 26.567L29.0105 18.3355L25.3824 30.4681ZM15.7856 25.5527L13.5619 12.4837L28.6204 17.0091L15.7856 25.5527ZM14.6152 26.489L3.49686 39.2458L12.5086 14.1222L14.6152 26.489ZM15.9806 37.9194V27.6983L24.5242 31.5215L15.9806 37.9194ZM30.2199 18.8817L37.9052 40.3381L26.5528 31.1313L30.2199 18.8817ZM16.4878 9.55787H24.5242C25.9286 9.55787 27.216 10.4551 27.6841 11.7815L29.0885 15.7607L13.6399 11.1573C14.2641 10.1821 15.3174 9.55787 16.4878 9.55787ZM13.1718 41.7035H3.10675L14.6152 28.4395V39.5189L14.2251 40.8843C14.108 41.3524 13.6789 41.7035 13.1718 41.7035ZM26.7478 40.8843L26.3187 39.4408C26.0456 38.5046 25.1874 37.8804 24.2511 37.8804H18.2433L25.7725 32.2237L37.4761 41.7035H27.8012C27.333 41.7035 26.8649 41.3524 26.7478 40.8843Z" fill="white"/>
<path d="M64.043 37.6073C65.0183 36.9831 65.9156 36.2419 66.7348 35.3836C67.5541 34.5254 68.2173 33.5891 68.8025 32.5358C69.3486 31.5215 69.8168 30.4291 70.1288 29.2588C70.4409 28.0884 70.597 26.8791 70.597 25.5917C70.597 23.6021 70.2069 21.7685 69.4657 20.052C68.7244 18.3355 67.7101 16.814 66.3837 15.5267C65.0963 14.2393 63.5749 13.225 61.8584 12.4447C60.1419 11.7035 58.2693 11.3134 56.3187 11.3134C54.9923 11.3134 53.7439 11.4694 52.5346 11.8205C51.3252 12.1717 50.1939 12.6398 49.1406 13.264C48.0872 13.8882 47.1119 14.6294 46.2537 15.4876C45.3954 16.3459 44.6542 17.3212 44.03 18.3745C43.4058 19.4278 42.9377 20.5592 42.5866 21.8075C42.2355 23.0169 42.0794 24.3043 42.0794 25.5917C42.0794 26.9181 42.2355 28.1665 42.5866 29.3758C42.9377 30.5852 43.4058 31.7165 44.03 32.8088C44.6542 33.8622 45.3954 34.8374 46.2537 35.6957C47.1119 36.554 48.0872 37.2952 49.1406 37.9194C50.1939 38.5436 51.3252 39.0117 52.5346 39.3628C53.7439 39.7139 55.0313 39.87 56.3187 39.87C57.333 39.87 58.3083 39.7529 59.2836 39.5579C60.2199 39.3628 61.1562 39.0507 62.0144 38.6996L63.7699 41.1183C62.6386 41.6645 61.4683 42.0936 60.1809 42.3667C58.9325 42.6398 57.6451 42.7958 56.2797 42.7958C53.9 42.7958 51.6763 42.3277 49.5697 41.4304C47.5021 40.5332 45.6685 39.2848 44.108 37.7243C42.5476 36.1638 41.2992 34.3303 40.4019 32.2627C39.5047 30.156 39.0365 27.9324 39.0365 25.5527C39.0365 23.173 39.5047 20.9493 40.4019 18.8427C41.2992 16.736 42.5476 14.9415 44.108 13.381C45.6685 11.8205 47.5021 10.6112 49.5697 9.6749C51.6373 8.77763 53.9 8.30949 56.2797 8.30949C58.6594 8.30949 60.8831 8.77763 62.9897 9.6749C65.0963 10.5722 66.8909 11.8205 68.4513 13.381C70.0118 14.9415 71.2212 16.775 72.1575 18.8427C73.0547 20.9493 73.5229 23.173 73.5229 25.5527C73.5229 26.801 73.4058 28.0104 73.1328 29.1417C72.8987 30.3121 72.5086 31.4044 72.0404 32.4967C71.5723 33.5501 70.9871 34.5644 70.3239 35.5006C69.6607 36.4369 68.8805 37.2952 68.0612 38.1144C69.4656 39.987 70.8701 41.8986 72.2745 43.7711C73.6789 45.6827 75.0833 47.5943 76.5268 49.5449H75.1223C73.5229 49.5449 72.3135 48.9597 71.5723 47.7503L64.043 37.6073Z" fill="white"/>
<path d="M82.2615 29.5319C82.2615 30.9753 82.5346 32.3407 83.0807 33.5891C83.6269 34.8374 84.3681 35.9688 85.3044 36.9051C86.2407 37.8413 87.333 38.5826 88.6204 39.1287C89.8688 39.6749 91.2342 39.948 92.6776 39.948C94.1211 39.948 95.4474 39.6749 96.6958 39.1287C97.9442 38.5826 99.0755 37.8413 100.012 36.9051C100.948 35.9688 101.689 34.8765 102.235 33.5891C102.782 32.3407 103.055 30.9753 103.055 29.5319V8.81665H106.02V29.5319C106.02 31.3654 105.669 33.1209 104.966 34.7204C104.264 36.3589 103.328 37.7633 102.118 38.9727C100.909 40.182 99.5047 41.1183 97.8662 41.8205C96.2277 42.5228 94.5112 42.8739 92.6776 42.8739C90.8441 42.8739 89.1276 42.5228 87.4891 41.8205C85.8506 41.1183 84.4462 40.182 83.2368 38.9727C82.0274 37.7633 81.0521 36.3589 80.3889 34.7204C79.6867 33.0819 79.3356 31.3654 79.3356 29.5319V8.81665H82.2615V29.5319Z" fill="white"/>
<path d="M117.294 42.4447H114.368V8.81665H117.294V42.4447Z" fill="white"/>
<path d="M126.306 42.4447V8.81665H129.232V39.5189H144.641V42.4447H126.306Z" fill="white"/>
<path d="M160.207 8.81665H162.704C163.952 11.6645 165.161 14.4733 166.41 17.2822C167.619 20.091 168.867 22.8609 170.077 25.6697C171.286 28.4395 172.535 31.2484 173.744 34.0182C174.953 36.827 176.202 39.6359 177.411 42.4447H176.085C175.499 42.4447 174.992 42.2887 174.524 41.9766C174.056 41.6645 173.705 41.2744 173.471 40.7282L170.74 34.4473H152.17L149.479 40.7282C149.245 41.2354 148.893 41.6645 148.425 41.9766C147.957 42.2887 147.411 42.4447 146.826 42.4447H145.499L160.207 8.81665ZM153.458 31.5605H169.414L161.884 14.2783C161.806 14.1222 161.728 13.8882 161.689 13.6931C161.611 13.459 161.572 13.264 161.533 13.0299C161.494 12.7958 161.455 12.5618 161.455 12.3277C161.416 12.5618 161.377 12.7958 161.338 13.0299C161.299 13.225 161.26 13.459 161.221 13.6931C161.182 13.9272 161.104 14.1222 161.026 14.2783L153.458 31.5605Z" fill="white"/>
<path d="M23.3148 5.85176C23.0807 6.08583 22.8077 6.28088 22.4566 6.47594C22.1054 6.63199 21.6763 6.74902 21.1692 6.74902L20.1549 6.78804C20.545 6.04681 20.9351 5.3446 21.3642 4.64239C21.7543 3.94018 22.1445 3.35501 22.4566 2.80884C22.7686 2.26268 23.0417 1.83355 23.2368 1.52146C23.4318 1.20936 23.5489 1.0143 23.5879 1.0143C23.7439 0.780234 24.056 0.546164 24.4852 0.351105C24.9143 0.117035 25.3824 0 25.8896 0H27.6451L23.3148 5.85176Z" fill="white"/>
<path d="M7.00792 57.7373C7.12495 57.6983 7.20298 57.6593 7.281 57.6203C7.35902 57.5813 7.43705 57.5813 7.51507 57.5813C7.55408 57.5813 7.63211 57.5813 7.71013 57.6203C7.78815 57.6593 7.86618 57.6983 7.9442 57.7373C8.02222 57.7763 8.10025 57.8153 8.17827 57.8544C8.25629 57.8934 8.37333 57.8934 8.45135 57.8934C8.56839 57.8934 8.64641 57.8934 8.76345 57.8544C8.88048 57.8153 8.95851 57.7763 9.03653 57.6983C9.11455 57.6203 9.19257 57.5423 9.23159 57.4642C9.2706 57.3862 9.30961 57.2692 9.30961 57.1521C9.30961 57.0741 9.30961 56.9961 9.2706 56.9181C9.23159 56.84 9.19257 56.801 9.11455 56.723C9.03653 56.684 8.9585 56.606 8.84147 56.567C8.72443 56.528 8.6074 56.4499 8.41234 56.4109H8.37333C8.21728 56.3719 8.06124 56.2939 7.90519 56.2159C7.74914 56.1378 7.63211 56.0598 7.51507 55.9818C7.39804 55.8648 7.281 55.7477 7.24199 55.6307C7.16397 55.4746 7.12495 55.3186 7.12495 55.0845C7.12495 54.8895 7.16397 54.7334 7.24199 54.6164C7.32001 54.4603 7.43705 54.3433 7.55408 54.2263C7.67112 54.1092 7.82716 54.0312 7.98321 53.9922C8.13926 53.9532 8.29531 53.9142 8.45135 53.9142C8.6074 53.9142 8.76345 53.9532 8.91949 53.9922C9.03653 54.0312 9.19257 54.1092 9.2706 54.1873C9.38763 54.2653 9.46566 54.3433 9.54368 54.4213C9.6217 54.4993 9.66072 54.5384 9.69973 54.5774L9.54368 54.6944C9.50467 54.7334 9.42664 54.7724 9.34862 54.8114C9.2706 54.8505 9.23159 54.8505 9.15356 54.8505C9.11455 54.8505 9.03653 54.8505 8.99752 54.8114C8.91949 54.7724 8.88048 54.7724 8.80246 54.7334C8.72443 54.6944 8.68542 54.6944 8.6074 54.6554C8.52938 54.6164 8.49036 54.6164 8.41234 54.6164C8.29531 54.6164 8.17827 54.6164 8.10025 54.6554C8.02222 54.6944 7.9442 54.7334 7.90519 54.7724C7.86618 54.8114 7.82716 54.8895 7.78815 54.9285C7.74914 54.9675 7.74914 55.0455 7.74914 55.0455C7.74914 55.1626 7.78815 55.2406 7.82716 55.3186C7.86618 55.3966 7.9442 55.4356 8.02222 55.5137C8.10025 55.5527 8.17827 55.5917 8.29531 55.6307C8.37333 55.6697 8.49036 55.7087 8.6074 55.7477C8.76345 55.7867 8.9585 55.8648 9.11455 55.9428C9.2706 56.0208 9.42665 56.0988 9.54368 56.2159C9.66072 56.3329 9.77775 56.4499 9.85577 56.606C9.9338 56.762 9.97281 56.9181 9.97281 57.1521C9.97281 57.3472 9.9338 57.5423 9.85577 57.6983C9.77775 57.8544 9.66072 58.0104 9.54368 58.1665C9.42665 58.3225 9.23159 58.4005 9.03653 58.4785C8.84147 58.5566 8.64641 58.5956 8.41234 58.5956C8.25629 58.5956 8.13926 58.5956 7.98321 58.5566C7.82716 58.5176 7.71013 58.4785 7.59309 58.4005C7.47606 58.3225 7.35902 58.2445 7.24199 58.1274C7.16397 57.9714 7.08594 57.8544 7.00792 57.7373Z" fill="white"/>
<path d="M11.6893 54.5774C11.7283 54.5384 11.7673 54.4603 11.8064 54.4213C11.8454 54.3823 11.8844 54.3433 11.9234 54.3043C11.9624 54.2653 12.0404 54.2263 12.0794 54.1873C12.2355 54.0702 12.4305 53.9922 12.6256 53.9532C12.8207 53.8752 13.0547 53.8752 13.2888 53.8752C13.5229 53.8752 13.7569 53.9142 13.913 53.9532C14.108 54.0312 14.2641 54.1092 14.3811 54.2263C14.4982 54.3433 14.6152 54.4603 14.6932 54.6164C14.7712 54.7724 14.8493 54.9285 14.8883 55.0845C14.9273 55.2406 14.9663 55.4356 15.0053 55.6307C15.0053 55.8258 15.0443 56.0208 15.0443 56.2159V58.4785H14.4592C14.4201 58.4395 14.4201 58.4005 14.3811 58.3615C14.3421 58.3225 14.3421 58.2445 14.3421 58.1665V58.0104C14.2251 58.0884 14.108 58.2055 13.991 58.2445C13.874 58.3225 13.7179 58.3615 13.6009 58.4005C13.4839 58.4395 13.3278 58.4785 13.2108 58.5176C13.0937 58.5566 12.9767 58.5566 12.8597 58.5566H12.8207C12.6256 58.5566 12.3915 58.5176 12.2355 58.4395C12.0404 58.3615 11.8844 58.2835 11.7673 58.1665C11.6503 58.0494 11.5333 57.8934 11.4553 57.7373C11.3772 57.5813 11.3382 57.3862 11.3382 57.1912C11.3382 56.9571 11.3772 56.762 11.4553 56.606C11.5333 56.4109 11.6503 56.2939 11.8454 56.1378C12.0404 55.9818 12.2355 55.9038 12.5086 55.8648C12.7817 55.7867 13.0937 55.7477 13.4448 55.7477C13.5619 55.7477 13.6399 55.7477 13.7569 55.7477C13.874 55.7477 13.952 55.7477 14.03 55.7867C14.108 55.7867 14.1861 55.7867 14.2641 55.8257C14.3421 55.8257 14.3811 55.8257 14.3811 55.8257C14.3811 55.5527 14.3421 55.3576 14.2641 55.1625C14.1861 55.0065 14.108 54.8505 14.03 54.7724C13.952 54.6944 13.835 54.6164 13.7179 54.5774C13.6009 54.5384 13.4839 54.5384 13.3278 54.5384C13.2498 54.5384 13.1718 54.5384 13.0937 54.5384C13.0157 54.5384 12.9767 54.5774 12.8987 54.5774C12.8597 54.6164 12.7817 54.6164 12.7426 54.6554C12.7036 54.6944 12.6256 54.6944 12.5866 54.7334C12.5476 54.7724 12.5086 54.7724 12.4305 54.8114C12.3525 54.8114 12.3135 54.8505 12.2355 54.8505C12.1575 54.8505 12.1185 54.8505 12.0404 54.8114C11.9624 54.7724 11.9234 54.7724 11.8454 54.6944L11.6893 54.5774ZM12.8597 57.8544C12.9767 57.8544 13.0937 57.8544 13.2108 57.8153C13.3278 57.7763 13.4839 57.7763 13.6009 57.7373C13.7179 57.6983 13.874 57.6593 13.991 57.5813C14.108 57.5423 14.2641 57.4642 14.3811 57.3862V56.528C14.3811 56.528 14.3421 56.528 14.2641 56.528C14.1861 56.528 14.1471 56.528 14.03 56.528C13.952 56.528 13.835 56.528 13.7569 56.528C13.6399 56.528 13.5619 56.528 13.4448 56.528C13.2498 56.528 13.0547 56.528 12.8987 56.567C12.7426 56.606 12.5866 56.645 12.4696 56.684C12.3525 56.762 12.2355 56.84 12.1575 56.9181C12.0794 56.9961 12.0404 57.1131 12.0404 57.2692C12.0404 57.3862 12.0794 57.4642 12.1185 57.5423C12.1575 57.6203 12.1965 57.6983 12.2745 57.7373C12.3525 57.7763 12.4305 57.8153 12.5476 57.8544C12.6256 57.8544 12.7426 57.8544 12.8597 57.8544Z" fill="white"/>
<path d="M19.8038 58.4785C19.8038 58.4785 19.7647 58.4395 19.7647 58.3615C19.7257 58.3225 19.7257 58.2445 19.7257 58.1274V57.8934C19.6477 58.0104 19.5307 58.1274 19.4527 58.2055C19.3356 58.2835 19.2186 58.3615 19.1015 58.4005C18.9845 58.4395 18.8285 58.4785 18.7114 58.5176C18.5554 58.5566 18.4383 58.5566 18.2823 58.5566C18.0482 58.5566 17.8142 58.5176 17.5801 58.4005C17.385 58.3225 17.19 58.1664 17.0729 58.0104C16.9169 57.8153 16.7999 57.6203 16.7218 57.3862C16.6438 57.1521 16.6048 56.8401 16.6048 56.567V53.9532H17.307V56.567C17.307 56.9961 17.385 57.3082 17.5411 57.5423C17.6971 57.7763 17.9312 57.8934 18.2823 57.8934C18.4774 57.8934 18.6724 57.8544 18.8285 57.8153C18.9845 57.7763 19.1406 57.6983 19.2576 57.6203C19.3746 57.5423 19.4917 57.4252 19.5697 57.3472C19.6477 57.2302 19.6867 57.1131 19.6867 56.9961V53.9532H20.3889V58.5176H19.8038V58.4785ZM18.4774 53.251C18.4383 53.29 18.3603 53.329 18.2823 53.368C18.2043 53.407 18.1263 53.407 18.0092 53.407H17.7752C17.8532 53.251 17.9312 53.1339 18.0092 52.9779C18.0872 52.8219 18.1653 52.7438 18.2043 52.6268C18.2433 52.5488 18.3213 52.4707 18.3213 52.3927C18.3603 52.3537 18.3603 52.3147 18.3993 52.3147C18.4383 52.2757 18.5164 52.1977 18.5944 52.1977C18.6724 52.1587 18.7504 52.1586 18.8675 52.1586H19.2576L18.4774 53.251Z" fill="white"/>
<path d="M25.5385 58.4785C25.4995 58.4395 25.4995 58.4395 25.4995 58.4005C25.4995 58.3615 25.4605 58.3225 25.4605 58.2835C25.4605 58.2445 25.4214 58.2055 25.4214 58.1274V58.0104C25.3044 58.1274 25.1874 58.2055 25.0703 58.2835C24.9533 58.3615 24.8363 58.4005 24.7192 58.4395C24.6022 58.4785 24.4852 58.5176 24.4071 58.5176C24.2901 58.5176 24.2121 58.5566 24.095 58.5566C23.783 58.5566 23.4709 58.4785 23.1978 58.3615C22.9247 58.2445 22.6906 58.0884 22.4956 57.8544C22.3005 57.6593 22.1445 57.3862 22.0274 57.1131C21.9104 56.8401 21.8714 56.528 21.8714 56.2159C21.8714 55.9038 21.9104 55.5917 22.0274 55.3186C22.1445 55.0455 22.3005 54.7724 22.4956 54.5774C22.6906 54.3823 22.9247 54.1873 23.1978 54.0702C23.4709 53.9532 23.783 53.8752 24.095 53.8752C24.2121 53.8752 24.2901 53.8752 24.4071 53.8752C24.5242 53.8752 24.6412 53.9142 24.7192 53.9532C24.8363 53.9922 24.9533 54.0312 25.0703 54.1092C25.1874 54.1873 25.3044 54.2653 25.4214 54.3823V52.2757H26.1237V58.4785H25.5385ZM24.095 54.5774C23.861 54.5774 23.6659 54.6164 23.4709 54.6944C23.2758 54.7724 23.1198 54.8895 22.9637 55.0455C22.8077 55.2016 22.7296 55.3576 22.6516 55.5527C22.5736 55.7477 22.5346 55.9428 22.5346 56.1769C22.5346 56.4109 22.5736 56.606 22.6516 56.801C22.7296 56.9961 22.8467 57.1912 22.9637 57.3082C23.1198 57.4642 23.2758 57.5813 23.4709 57.6593C23.6659 57.7373 23.861 57.7763 24.095 57.7763C24.3291 57.7763 24.5632 57.7373 24.7973 57.6203C25.0313 57.5032 25.2264 57.3862 25.4214 57.1912V55.0455C25.2654 54.8505 25.0313 54.7334 24.7973 54.6164C24.6022 54.6164 24.3291 54.5774 24.095 54.5774Z" fill="white"/>
<path d="M32.2095 55.7867C32.2095 55.8648 32.2095 55.9428 32.1705 56.0208C32.1315 56.0988 32.0924 56.1769 32.0534 56.2159C32.0144 56.2549 31.9364 56.2939 31.8584 56.3329C31.7804 56.3719 31.7413 56.3719 31.6633 56.3719H28.3083C28.3473 56.567 28.3863 56.762 28.4644 56.9571C28.5424 57.1522 28.6594 57.3082 28.8155 57.4252C28.9715 57.5423 29.1276 57.6593 29.3226 57.7373C29.5177 57.8154 29.7127 57.8544 29.9468 57.8544C30.1028 57.8544 30.2199 57.8154 30.3759 57.7763C30.532 57.7373 30.688 57.6593 30.8051 57.5813C30.8441 57.5423 30.8831 57.5423 30.9611 57.5423C31.0001 57.5423 31.0781 57.5033 31.1172 57.5033C31.1952 57.5033 31.2342 57.5033 31.3122 57.5423C31.3902 57.5813 31.4292 57.5813 31.4683 57.6203L31.6633 57.7763C31.5463 57.8934 31.4292 57.9714 31.3122 58.0884C31.1952 58.1665 31.0391 58.2445 30.8831 58.3225C30.727 58.4005 30.571 58.4395 30.4149 58.4785C30.2589 58.5176 30.1028 58.5176 29.9468 58.5176C29.6347 58.5176 29.3226 58.4395 29.0495 58.3225C28.7765 58.2055 28.5034 58.0494 28.3083 57.8153C28.1133 57.5813 27.9182 57.3472 27.8012 57.0741C27.6841 56.801 27.6061 56.489 27.6061 56.1769C27.6061 55.8648 27.6841 55.5527 27.8012 55.2796C27.9182 55.0065 28.1133 54.7334 28.3083 54.5384C28.5034 54.3433 28.7765 54.1482 29.0495 54.0312C29.3226 53.9142 29.6347 53.8362 29.9468 53.8362C30.2199 53.8362 30.454 53.8752 30.727 53.9532C30.9611 54.0312 31.1952 54.1482 31.3902 54.3043C31.5853 54.4603 31.7413 54.6554 31.8974 54.8505C32.0534 55.0455 32.1315 55.2796 32.2095 55.5527C32.2095 55.6697 32.2095 55.7477 32.2095 55.7867ZM31.4683 55.7087C31.4292 55.5137 31.3512 55.3576 31.2342 55.2406C31.1172 55.0845 31.0001 54.9675 30.8831 54.8895C30.727 54.7724 30.61 54.7334 30.4149 54.6554C30.2589 54.6164 30.0638 54.5774 29.9078 54.5774C29.7127 54.5774 29.5177 54.6164 29.3226 54.6944C29.1276 54.7724 28.9715 54.8505 28.8545 54.9675C28.6984 55.0845 28.5814 55.2406 28.5034 55.3966C28.3863 55.5527 28.3473 55.7477 28.3083 55.9038C28.3473 55.8648 28.3473 55.8258 28.3863 55.7867C28.4253 55.7477 28.4644 55.7087 28.5424 55.7087H31.4683Z" fill="white"/>
<path d="M36.3447 56.2159C36.3447 55.9038 36.4227 55.5917 36.5398 55.3186C36.6568 55.0455 36.8129 54.7724 37.0469 54.5774C37.242 54.3823 37.5151 54.1873 37.7882 54.0702C38.0612 53.9532 38.3733 53.8752 38.6854 53.8752C38.9975 53.8752 39.3096 53.9532 39.5827 54.0702C39.8558 54.1873 40.1289 54.3433 40.3239 54.5774C40.519 54.7724 40.714 55.0455 40.8311 55.3186C40.9481 55.5917 41.0261 55.9038 41.0261 56.2159C41.0261 56.528 40.9481 56.84 40.8311 57.1131C40.714 57.3862 40.558 57.6593 40.3239 57.8544C40.0898 58.0494 39.8558 58.2445 39.5827 58.3615C39.3096 58.4785 38.9975 58.5566 38.6854 58.5566C38.3733 58.5566 38.0612 58.4785 37.7882 58.3615C37.5151 58.2445 37.242 58.0884 37.0469 57.8544C36.8519 57.6593 36.6568 57.3862 36.5398 57.1131C36.4227 56.84 36.3447 56.528 36.3447 56.2159ZM37.0469 56.2159C37.0469 56.4499 37.0859 56.645 37.164 56.8791C37.242 57.0741 37.359 57.2692 37.5151 57.3862C37.6711 57.5423 37.8272 57.6593 38.0222 57.7373C38.2173 57.8153 38.4513 57.8544 38.6464 57.8544C38.8805 57.8544 39.0755 57.8153 39.3096 57.7373C39.5047 57.6593 39.6997 57.5423 39.8168 57.3862C39.9728 57.2302 40.0898 57.0741 40.1679 56.8791C40.2459 56.684 40.2849 56.4499 40.2849 56.2159C40.2849 55.9818 40.2459 55.7867 40.1679 55.5527C40.0898 55.3576 39.9728 55.1626 39.8168 55.0455C39.6607 54.8895 39.5047 54.7724 39.3096 54.6944C39.1145 54.6164 38.8805 54.5774 38.6464 54.5774C38.4123 54.5774 38.2173 54.6164 38.0222 54.6944C37.8272 54.7724 37.6321 54.8895 37.5151 55.0455C37.359 55.2016 37.242 55.3576 37.164 55.5527C37.0859 55.7477 37.0469 55.9818 37.0469 56.2159Z" fill="white"/>
<path d="M45.8246 58.4785C45.7856 58.4395 45.7856 58.4395 45.7856 58.4005C45.7856 58.3615 45.7465 58.3225 45.7465 58.2835C45.7465 58.2445 45.7075 58.2055 45.7075 58.1274V58.0104C45.5905 58.1274 45.4735 58.2055 45.3564 58.2835C45.2394 58.3615 45.1224 58.4005 45.0053 58.4395C44.8883 58.4785 44.7712 58.5176 44.6932 58.5176C44.5762 58.5176 44.4982 58.5566 44.3811 58.5566C44.069 58.5566 43.7569 58.4785 43.4839 58.3615C43.2108 58.2445 42.9767 58.0884 42.7816 57.8544C42.5866 57.6593 42.4305 57.3862 42.3135 57.1131C42.1965 56.8401 42.1575 56.528 42.1575 56.2159C42.1575 55.9038 42.1965 55.5917 42.3135 55.3186C42.4305 55.0455 42.5866 54.7724 42.7816 54.5774C42.9767 54.3823 43.2108 54.1873 43.4839 54.0702C43.7569 53.9532 44.069 53.8752 44.3811 53.8752C44.4982 53.8752 44.5762 53.8752 44.6932 53.8752C44.8103 53.8752 44.9273 53.9142 45.0053 53.9532C45.1224 53.9922 45.2394 54.0312 45.3564 54.1092C45.4735 54.1873 45.5905 54.2653 45.7075 54.3823V52.2757H46.4097V58.4785H45.8246ZM44.3811 54.5774C44.1471 54.5774 43.952 54.6164 43.7569 54.6944C43.5619 54.7724 43.4058 54.8895 43.2498 55.0455C43.0937 55.2016 43.0157 55.3576 42.9377 55.5527C42.8597 55.7477 42.8207 55.9428 42.8207 56.1769C42.8207 56.4109 42.8597 56.606 42.9377 56.801C43.0157 56.9961 43.1328 57.1912 43.2498 57.3082C43.4058 57.4642 43.5619 57.5813 43.7569 57.6593C43.952 57.7373 44.1471 57.7763 44.3811 57.7763C44.6152 57.7763 44.8493 57.7373 45.0833 57.6203C45.3174 57.5032 45.5125 57.3862 45.7075 57.1912V55.0455C45.5515 54.8505 45.3174 54.7334 45.0833 54.6164C44.8493 54.6164 44.6152 54.5774 44.3811 54.5774Z" fill="white"/>
<path d="M47.8532 56.2159C47.8532 55.9038 47.9312 55.5917 48.0482 55.3186C48.1653 55.0455 48.3213 54.7724 48.5554 54.5774C48.7504 54.3823 49.0235 54.1873 49.2966 54.0702C49.5697 53.9532 49.8818 53.8752 50.1939 53.8752C50.506 53.8752 50.8181 53.9532 51.0911 54.0702C51.3642 54.1873 51.6373 54.3433 51.8324 54.5774C52.0274 54.7724 52.2225 55.0455 52.3395 55.3186C52.4566 55.5917 52.5346 55.9038 52.5346 56.2159C52.5346 56.528 52.4566 56.84 52.3395 57.1131C52.2225 57.3862 52.0664 57.6593 51.8324 57.8544C51.5983 58.0494 51.3642 58.2445 51.0911 58.3615C50.8181 58.4785 50.506 58.5566 50.1939 58.5566C49.8818 58.5566 49.5697 58.4785 49.2966 58.3615C49.0235 58.2445 48.7504 58.0884 48.5554 57.8544C48.3603 57.6593 48.1653 57.3862 48.0482 57.1131C47.8922 56.84 47.8532 56.528 47.8532 56.2159ZM48.5164 56.2159C48.5164 56.4499 48.5554 56.645 48.6334 56.8791C48.7114 57.0741 48.8285 57.2692 48.9845 57.3862C49.1406 57.5423 49.2966 57.6593 49.4917 57.7373C49.6867 57.8153 49.9208 57.8544 50.1159 57.8544C50.3499 57.8544 50.545 57.8153 50.7791 57.7373C50.9741 57.6593 51.1692 57.5423 51.2862 57.3862C51.4422 57.2302 51.5593 57.0741 51.6373 56.8791C51.7153 56.684 51.7543 56.4499 51.7543 56.2159C51.7543 55.9818 51.7153 55.7867 51.6373 55.5527C51.5593 55.3576 51.4422 55.1626 51.2862 55.0455C51.1302 54.8895 50.9741 54.7724 50.7791 54.6944C50.584 54.6164 50.3499 54.5774 50.1159 54.5774C49.8818 54.5774 49.6867 54.6164 49.4917 54.6944C49.2966 54.7724 49.1015 54.8895 48.9845 55.0455C48.8285 55.2016 48.7114 55.3576 48.6334 55.5527C48.5944 55.7477 48.5164 55.9818 48.5164 56.2159Z" fill="white"/>
<path d="M54.5242 53.9142C54.5242 53.9142 54.5632 53.9532 54.5632 54.0312C54.5632 54.1092 54.6022 54.1482 54.6022 54.2653V54.5384C54.6802 54.4213 54.7973 54.3043 54.8753 54.2263C54.9923 54.1482 55.1093 54.0702 55.2264 53.9922C55.3434 53.9532 55.4995 53.8752 55.6165 53.8752C55.7725 53.8362 55.8896 53.8362 56.0456 53.8362C56.2797 53.8362 56.5138 53.8752 56.7478 53.9922C56.9429 54.0702 57.138 54.2263 57.255 54.3823C57.411 54.5774 57.5281 54.7724 57.6061 55.0065C57.6841 55.2406 57.7231 55.5527 57.7231 55.8257V58.4395H57.0209V55.8257C57.0209 55.3966 56.9429 55.0845 56.7868 54.8505C56.6308 54.6164 56.3967 54.4993 56.0456 54.4993C55.8506 54.4993 55.6555 54.5384 55.4995 54.5774C55.3434 54.6164 55.1874 54.6944 55.0703 54.7724C54.9533 54.8504 54.8363 54.9675 54.7582 55.0455C54.6802 55.1625 54.6412 55.2796 54.6412 55.3966V58.4395H53.939V53.8752H54.5242V53.9142Z" fill="white"/>
<path d="M60.3759 57.3862C60.3759 57.4252 60.3759 57.5032 60.4149 57.5423C60.4149 57.6203 60.454 57.6593 60.493 57.6983C60.532 57.7373 60.571 57.7763 60.649 57.8153C60.688 57.8543 60.766 57.8544 60.8441 57.8544H60.9611C61.0781 57.8153 61.1952 57.8153 61.2732 57.8153C61.3902 57.8153 61.4683 57.8544 61.5463 57.8934C61.6243 57.9324 61.7023 58.0104 61.7413 58.0884L61.8194 58.1664C61.7804 58.2055 61.7023 58.2445 61.6243 58.2835C61.5463 58.3225 61.4683 58.3615 61.3512 58.4005C61.2732 58.4395 61.1562 58.4395 61.0781 58.4785C61.0001 58.4785 60.9221 58.5176 60.8441 58.5176C60.688 58.5176 60.532 58.4785 60.3759 58.4395C60.2199 58.4005 60.1029 58.2835 60.0248 58.2055C59.9078 58.0884 59.8688 57.9714 59.7908 57.8544C59.7517 57.6983 59.7127 57.5423 59.7127 57.3862V54.6164H58.9325V54.3043C58.9325 54.2263 58.9325 54.1873 58.9715 54.1482C58.9715 54.1092 59.0105 54.0702 59.0495 54.0312C59.0885 53.9922 59.1666 53.9922 59.2446 53.9532C59.3226 53.9532 59.4397 53.9142 59.5567 53.9142H59.7518V52.9389C59.7518 52.8609 59.7517 52.7828 59.7908 52.7048C59.7908 52.6268 59.8298 52.5878 59.8298 52.5098C59.8688 52.4707 59.8688 52.4317 59.9078 52.3927C59.9078 52.3537 59.9468 52.3537 59.9468 52.3147H60.493V53.8752H61.8194V54.5384H60.493V57.3862H60.3759Z" fill="white"/>
<path d="M62.6386 56.2159C62.6386 55.9038 62.7166 55.5917 62.8337 55.3186C62.9507 55.0455 63.1068 54.7724 63.3408 54.5774C63.5359 54.3823 63.809 54.1873 64.0821 54.0702C64.3551 53.9532 64.6672 53.8752 64.9793 53.8752C65.2914 53.8752 65.6035 53.9532 65.8766 54.0702C66.1497 54.1873 66.4227 54.3433 66.6178 54.5774C66.8129 54.7724 67.0079 55.0455 67.125 55.3186C67.242 55.5917 67.32 55.9038 67.32 56.2159C67.32 56.528 67.242 56.84 67.125 57.1131C67.0079 57.3862 66.8519 57.6593 66.6178 57.8544C66.3837 58.0494 66.1497 58.2445 65.8766 58.3615C65.6035 58.4785 65.2914 58.5566 64.9793 58.5566C64.6672 58.5566 64.3551 58.4785 64.0821 58.3615C63.809 58.2445 63.5359 58.0884 63.3408 57.8544C63.1458 57.6203 62.9507 57.3862 62.8337 57.1131C62.6776 56.84 62.6386 56.528 62.6386 56.2159ZM63.3408 56.2159C63.3408 56.4499 63.3798 56.645 63.4579 56.8791C63.5359 57.0741 63.6529 57.2692 63.809 57.3862C63.965 57.5423 64.1211 57.6593 64.3161 57.7373C64.5112 57.8153 64.7452 57.8544 64.9403 57.8544C65.1744 57.8544 65.3694 57.8153 65.6035 57.7373C65.7986 57.6593 65.9936 57.5423 66.1106 57.3862C66.2667 57.2302 66.3837 57.0741 66.4618 56.8791C66.5398 56.684 66.5788 56.4499 66.5788 56.2159C66.5788 55.9818 66.5398 55.7867 66.4618 55.5527C66.3837 55.3576 66.2667 55.1626 66.1106 55.0455C65.9546 54.8895 65.7986 54.7724 65.6035 54.6944C65.4084 54.6164 65.1744 54.5774 64.9403 54.5774C64.7062 54.5774 64.5112 54.6164 64.3161 54.6944C64.1211 54.7724 63.926 54.8895 63.809 55.0455C63.6529 55.2016 63.5359 55.3576 63.4579 55.5527C63.3798 55.7477 63.3408 55.9818 63.3408 56.2159Z" fill="white"/>
<path d="M69.5047 52.2757V58.4785H68.8025V52.2757H69.5047Z" fill="white"/>
<path d="M71.1432 56.2159C71.1432 55.9038 71.2212 55.5917 71.3382 55.3186C71.4552 55.0455 71.6113 54.7724 71.8454 54.5774C72.0404 54.3823 72.3135 54.1873 72.5866 54.0702C72.8597 53.9532 73.1718 53.8752 73.4838 53.8752C73.7959 53.8752 74.108 53.9532 74.3811 54.0702C74.6542 54.1873 74.9273 54.3433 75.1223 54.5774C75.3174 54.7724 75.5125 55.0455 75.6295 55.3186C75.7465 55.5917 75.8246 55.9038 75.8246 56.2159C75.8246 56.528 75.7465 56.8401 75.6295 57.1131C75.5125 57.3862 75.3564 57.6593 75.1223 57.8544C74.8883 58.0494 74.6542 58.2445 74.3811 58.3615C74.108 58.4785 73.7959 58.5566 73.4838 58.5566C73.1718 58.5566 72.8597 58.4785 72.5866 58.3615C72.3135 58.2445 72.0404 58.0884 71.8454 57.8544C71.6503 57.6203 71.4552 57.3862 71.3382 57.1131C71.1822 56.8401 71.1432 56.528 71.1432 56.2159ZM71.8064 56.2159C71.8064 56.4499 71.8454 56.645 71.9234 56.8791C72.0014 57.0741 72.1184 57.2692 72.2745 57.3862C72.4305 57.5423 72.5866 57.6593 72.7816 57.7373C72.9767 57.8153 73.2108 57.8544 73.4058 57.8544C73.6399 57.8544 73.835 57.8153 74.069 57.7373C74.2641 57.6593 74.4591 57.5423 74.5762 57.3862C74.7322 57.2302 74.8493 57.0741 74.9273 56.8791C75.0053 56.684 75.0443 56.4499 75.0443 56.2159C75.0443 55.9818 75.0053 55.7867 74.9273 55.5527C74.8493 55.3576 74.7322 55.1626 74.5762 55.0455C74.4201 54.8895 74.2641 54.7724 74.069 54.6944C73.874 54.6164 73.6399 54.5774 73.4058 54.5774C73.1718 54.5774 72.9767 54.6164 72.7816 54.6944C72.5866 54.7724 72.3915 54.8895 72.2745 55.0455C72.1184 55.2016 72.0014 55.3576 71.9234 55.5527C71.8454 55.7477 71.8064 55.9818 71.8064 56.2159ZM73.913 53.251C73.874 53.29 73.7959 53.329 73.7179 53.368C73.6399 53.407 73.5619 53.407 73.4448 53.407H73.1718C73.2498 53.251 73.3278 53.1339 73.4058 52.9779C73.4839 52.8219 73.5619 52.7438 73.6009 52.6268C73.6399 52.5488 73.7179 52.4707 73.7179 52.3927C73.7569 52.3537 73.7569 52.3147 73.7959 52.3147C73.835 52.2757 73.913 52.1977 73.991 52.1977C74.069 52.1587 74.147 52.1586 74.2641 52.1586H74.6542L73.913 53.251Z" fill="white"/>
<path d="M80.8961 54.4213C80.8571 54.5384 80.779 54.6164 80.662 54.6554C80.545 54.6944 80.3889 54.7334 80.1549 54.7334C80.1939 54.7724 80.2329 54.8505 80.2329 54.9285C80.2719 55.0065 80.2719 55.0845 80.3109 55.1235C80.3109 55.2016 80.3499 55.2796 80.3499 55.3186C80.3499 55.3966 80.3499 55.4356 80.3499 55.5137C80.3499 55.7477 80.3109 55.9818 80.2329 56.1769C80.1549 56.3719 80.0378 56.567 79.8818 56.723C79.7257 56.8791 79.5697 56.9961 79.3356 57.0741C79.1015 57.1522 78.9065 57.1912 78.6724 57.1912C78.5554 57.1912 78.3993 57.1521 78.2823 57.1131C78.1653 57.0741 78.0092 57.0351 77.8922 56.9961C77.7751 57.0741 77.6971 57.1131 77.6191 57.1912C77.5801 57.2302 77.5411 57.3082 77.5411 57.3472V57.4252C77.5801 57.4642 77.6581 57.5423 77.7751 57.5423C77.8532 57.5813 77.9702 57.5813 78.0872 57.6203C78.2043 57.6203 78.3213 57.6203 78.4774 57.6203C78.6334 57.6203 78.7504 57.6203 78.9065 57.6203C79.0625 57.6203 79.2186 57.6203 79.3356 57.6593C79.4917 57.6593 79.6087 57.6983 79.7257 57.7373C79.9598 57.8153 80.1158 57.9324 80.2719 58.0884C80.3889 58.2445 80.4669 58.4395 80.4669 58.6736C80.4669 58.8687 80.4279 59.0247 80.3499 59.1417C80.2719 59.2978 80.1939 59.4148 80.0378 59.4928C79.9208 59.6099 79.7257 59.6879 79.5307 59.7269C79.3356 59.7659 79.1015 59.8049 78.8675 59.8049C78.6724 59.8049 78.4774 59.8049 78.2823 59.7659C78.0872 59.7269 77.8922 59.6879 77.7361 59.6489C77.5411 59.6099 77.385 59.5319 77.229 59.4928C77.0729 59.4538 76.9169 59.3758 76.7608 59.3368L76.8389 59.1027C76.8389 59.0637 76.8779 59.0247 76.9169 58.9857C76.9559 58.9467 76.9949 58.9077 77.0339 58.8687C77.0729 58.8296 77.1119 58.8296 77.19 58.7906C77.229 58.7906 77.307 58.7516 77.346 58.7516C77.424 58.7516 77.5021 58.7516 77.5411 58.7906C77.6191 58.7906 77.6581 58.8296 77.7361 58.8687C77.7751 58.8687 77.8142 58.9077 77.8922 58.9467C77.9702 58.9857 78.0482 58.9857 78.1653 59.0247C78.2823 59.0637 78.3993 59.0637 78.5164 59.1027C78.6334 59.1417 78.7894 59.1417 78.9455 59.1417C79.0235 59.1417 79.1015 59.1417 79.2186 59.1417C79.3356 59.1417 79.4136 59.1027 79.4917 59.0637C79.5697 59.0247 79.6477 58.9857 79.7257 58.9077C79.8037 58.8296 79.8428 58.7516 79.8428 58.6736C79.8428 58.6346 79.8428 58.6346 79.8428 58.5956C79.8428 58.5566 79.8428 58.5566 79.8037 58.5176C79.8037 58.4785 79.7647 58.4785 79.7257 58.4395C79.6867 58.4005 79.6477 58.4005 79.6087 58.3615C79.4526 58.3225 79.2966 58.2835 79.1015 58.2835C78.9065 58.2835 78.7504 58.2835 78.5554 58.2445C78.3603 58.2445 78.2043 58.2445 78.0092 58.2055C77.8142 58.1665 77.6581 58.1274 77.5021 58.0884C77.346 58.0104 77.229 57.9324 77.1119 57.8153C76.9949 57.6983 76.9559 57.5813 76.9559 57.3862C76.9559 57.3472 76.9559 57.3082 76.9949 57.2302C76.9949 57.1912 77.0339 57.1131 77.1119 57.0741C77.151 56.9961 77.229 56.9571 77.307 56.8791C77.385 56.801 77.5021 56.762 77.6191 56.684C77.5021 56.606 77.424 56.4889 77.346 56.3719C77.268 56.2549 77.229 56.1378 77.151 56.0208C77.1119 55.9038 77.0729 55.7867 77.0729 55.7087C77.0729 55.5917 77.0339 55.5137 77.0339 55.4356C77.0339 55.2016 77.0729 54.9675 77.151 54.7724C77.229 54.5774 77.346 54.3823 77.5021 54.2263C77.6581 54.0702 77.8142 53.9532 78.0482 53.8752C78.2433 53.7971 78.4774 53.7581 78.7114 53.7581C78.9065 53.7581 79.0625 53.7971 79.2576 53.8362C79.4526 53.9142 79.6087 53.9922 79.7647 54.1092C79.8428 54.0702 79.9208 54.0312 79.9988 53.9922C80.1158 53.9532 80.2329 53.9532 80.3499 53.9532C80.4279 53.9532 80.506 53.9532 80.623 53.9922C80.74 54.0312 80.8571 54.0312 80.9741 54.0702L80.8961 54.4213ZM77.6971 55.5527C77.6971 55.7087 77.7361 55.8257 77.7751 55.9428C77.8142 56.0598 77.8922 56.1769 77.9702 56.2549C78.0482 56.3329 78.1653 56.4109 78.2823 56.4499C78.3993 56.4889 78.5164 56.528 78.6724 56.528C78.8285 56.528 78.9455 56.4889 79.0625 56.4499C79.1796 56.4109 79.2966 56.3329 79.3746 56.2549C79.4526 56.1769 79.5307 56.0598 79.5697 55.9428C79.6087 55.8257 79.6477 55.7087 79.6477 55.5527C79.6477 55.3966 79.6087 55.2796 79.5697 55.1625C79.5307 55.0455 79.4526 54.9285 79.3746 54.8505C79.2966 54.7724 79.1796 54.6944 79.0625 54.6554C78.9455 54.6164 78.8285 54.5774 78.6724 54.5774C78.5164 54.5774 78.3993 54.6164 78.2823 54.6554C78.1653 54.6944 78.0482 54.7724 77.9702 54.8505C77.8922 54.9285 77.8142 55.0455 77.7751 55.1625C77.7361 55.2796 77.6971 55.3966 77.6971 55.5527Z" fill="white"/>
<path d="M82.1055 52.7048C82.1055 52.6268 82.1055 52.5488 82.1445 52.5098C82.1835 52.4317 82.2225 52.3927 82.2615 52.3537C82.3005 52.3147 82.3785 52.2757 82.4175 52.2367C82.4956 52.1977 82.5346 52.1977 82.6126 52.1977C82.6906 52.1977 82.7687 52.1977 82.8077 52.2367C82.8857 52.2757 82.9247 52.3147 82.9637 52.3537C83.0027 52.3927 83.0417 52.4707 83.0807 52.5098C83.1198 52.5878 83.1198 52.6268 83.1198 52.7048C83.1198 52.7828 83.1198 52.8609 83.0807 52.8999C83.0417 52.9779 83.0027 53.0169 82.9637 53.0559C82.9247 53.0949 82.8467 53.1339 82.8077 53.173C82.7296 53.212 82.6906 53.212 82.6126 53.212C82.5346 53.212 82.4566 53.212 82.4175 53.173C82.3395 53.1339 82.3005 53.0949 82.2615 53.0559C82.2225 53.0169 82.1835 52.9389 82.1445 52.8999C82.1055 52.8609 82.1055 52.7828 82.1055 52.7048ZM82.9637 53.9142V58.4785H82.2615V53.9142H82.9637Z" fill="white"/>
<path d="M86.9429 54.5384C86.7088 54.5384 86.5138 54.5774 86.2797 54.6554C86.0846 54.7334 85.8896 54.8505 85.7726 55.0065C85.6165 55.1626 85.4995 55.3186 85.4214 55.5137C85.3434 55.7087 85.3044 55.9428 85.3044 56.1769C85.3044 56.4109 85.3434 56.606 85.4214 56.8401C85.4995 57.0351 85.6165 57.2302 85.7726 57.3472C85.9286 57.5033 86.0846 57.6203 86.2797 57.6983C86.4748 57.7763 86.7088 57.8153 86.9429 57.8153C87.0989 57.8153 87.216 57.8154 87.372 57.7763C87.5281 57.7373 87.6451 57.6983 87.7621 57.6203C87.8012 57.5813 87.8792 57.5813 87.9182 57.5423C87.9572 57.5423 88.0352 57.5033 88.0742 57.5033C88.1523 57.5033 88.2303 57.5033 88.3083 57.5423C88.3863 57.5813 88.4254 57.6203 88.5034 57.6983L88.6204 57.8153C88.5424 57.9324 88.4254 58.0104 88.3083 58.0884C88.1913 58.1665 88.0742 58.2445 87.9182 58.3225C87.7622 58.4005 87.6451 58.4395 87.4501 58.4785C87.294 58.5176 87.138 58.5176 86.9819 58.5176C86.6698 58.5176 86.3577 58.4395 86.0846 58.3225C85.8116 58.2055 85.5385 58.0494 85.3434 57.8153C85.1484 57.6203 84.9533 57.3472 84.8363 57.0741C84.7192 56.801 84.6412 56.489 84.6412 56.1769C84.6412 55.8648 84.7192 55.5527 84.8363 55.2796C84.9533 55.0065 85.1093 54.7334 85.3434 54.5384C85.5385 54.3433 85.8116 54.1482 86.0846 54.0312C86.3577 53.9142 86.6698 53.8362 86.9819 53.8362C87.138 53.8362 87.294 53.8362 87.4501 53.8752C87.6061 53.9142 87.7622 53.9532 87.8792 54.0312C88.0352 54.1092 88.1523 54.1482 88.2693 54.2653C88.3863 54.3433 88.5034 54.4603 88.6204 54.5384L88.5034 54.6554C88.4254 54.7334 88.3863 54.7724 88.3083 54.8114C88.2303 54.8505 88.1523 54.8505 88.0742 54.8505C87.9572 54.8505 87.8792 54.8114 87.8012 54.7724C87.6841 54.6944 87.5671 54.6554 87.411 54.6164C87.216 54.5774 87.0989 54.5774 86.9429 54.5384Z" fill="white"/>
<path d="M89.9078 54.5774C89.9468 54.5384 89.9858 54.4603 90.0248 54.4213C90.0638 54.3823 90.1028 54.3433 90.1419 54.3043C90.1809 54.2653 90.2589 54.2263 90.2979 54.1873C90.454 54.0702 90.649 53.9922 90.8441 53.9532C91.0391 53.8752 91.2732 53.8752 91.5073 53.8752C91.7413 53.8752 91.9754 53.9142 92.1315 53.9532C92.3265 54.0312 92.4826 54.1092 92.5996 54.2263C92.7166 54.3433 92.8337 54.4603 92.9117 54.6164C92.9897 54.7724 93.0677 54.9285 93.1068 55.0845C93.1458 55.2406 93.1848 55.4356 93.2238 55.6307C93.2238 55.8258 93.2628 56.0208 93.2628 56.2159V58.4785H92.6776C92.6386 58.4395 92.6386 58.4005 92.5996 58.3615C92.5606 58.3225 92.5606 58.2445 92.5606 58.1665V58.0104C92.4436 58.0884 92.3265 58.2055 92.2095 58.2445C92.0924 58.3225 91.9364 58.3615 91.8194 58.4005C91.7023 58.4395 91.5463 58.4785 91.4292 58.5176C91.3122 58.5566 91.1952 58.5566 91.0781 58.5566H91.0391C90.8441 58.5566 90.61 58.5176 90.454 58.4395C90.2589 58.3615 90.1029 58.2835 89.9858 58.1665C89.8688 58.0494 89.7517 57.8934 89.6737 57.7373C89.5957 57.5813 89.5567 57.3862 89.5567 57.1912C89.5567 56.9571 89.5957 56.762 89.6737 56.606C89.7517 56.4109 89.8688 56.2939 90.0638 56.1378C90.2589 55.9818 90.454 55.9038 90.727 55.8648C91.0001 55.7867 91.3122 55.7477 91.6633 55.7477C91.7803 55.7477 91.8584 55.7477 91.9754 55.7477C92.0924 55.7477 92.1705 55.7477 92.2485 55.7867C92.3265 55.7867 92.4045 55.7867 92.4826 55.8257C92.5606 55.8257 92.5996 55.8257 92.5996 55.8257C92.5996 55.5527 92.5606 55.3576 92.4826 55.1625C92.4045 55.0065 92.3265 54.8505 92.2485 54.7724C92.1705 54.6944 92.0534 54.6164 91.9364 54.5774C91.8194 54.5384 91.7023 54.5384 91.5463 54.5384C91.4683 54.5384 91.3902 54.5384 91.3122 54.5384C91.2342 54.5384 91.1952 54.5774 91.1171 54.5774C91.0781 54.6164 91.0001 54.6164 90.9611 54.6554C90.9221 54.6944 90.8441 54.6944 90.8051 54.7334C90.766 54.7724 90.727 54.7724 90.649 54.8114C90.571 54.8114 90.532 54.8505 90.454 54.8505C90.3759 54.8505 90.3369 54.8505 90.2589 54.8114C90.1809 54.7724 90.1419 54.7724 90.0638 54.6944L89.9078 54.5774ZM91.0781 57.8544C91.1952 57.8544 91.3122 57.8544 91.4292 57.8153C91.5463 57.7763 91.7023 57.7763 91.8194 57.7373C91.9364 57.6983 92.0924 57.6593 92.2095 57.5813C92.3265 57.5423 92.4826 57.4642 92.5996 57.3862V56.528C92.5996 56.528 92.5606 56.528 92.4826 56.528C92.4045 56.528 92.3655 56.528 92.2485 56.528C92.1705 56.528 92.0534 56.528 91.9754 56.528C91.8584 56.528 91.7803 56.528 91.6633 56.528C91.4683 56.528 91.2732 56.528 91.1171 56.567C90.9611 56.606 90.8051 56.645 90.688 56.684C90.571 56.762 90.454 56.84 90.3759 56.9181C90.2979 56.9961 90.2589 57.1131 90.2589 57.2692C90.2589 57.3862 90.2979 57.4642 90.3369 57.5423C90.3759 57.6203 90.4149 57.6983 90.493 57.7373C90.571 57.7763 90.649 57.8153 90.7661 57.8544C90.8441 57.8544 90.9611 57.8544 91.0781 57.8544Z" fill="white"/>
<path d="M102.313 55.7867C102.313 55.8648 102.313 55.9428 102.274 56.0208C102.235 56.0988 102.196 56.1769 102.157 56.2159C102.118 56.2549 102.04 56.2939 101.962 56.3329C101.884 56.3719 101.845 56.3719 101.767 56.3719H98.4123C98.4513 56.567 98.4904 56.762 98.5684 56.9571C98.6464 57.1522 98.7634 57.3082 98.9195 57.4252C99.0755 57.5423 99.2316 57.6593 99.4266 57.7373C99.6217 57.8154 99.8167 57.8544 100.051 57.8544C100.207 57.8544 100.324 57.8154 100.48 57.7763C100.636 57.7373 100.792 57.6593 100.909 57.5813C100.948 57.5423 100.987 57.5423 101.065 57.5423C101.104 57.5423 101.182 57.5033 101.221 57.5033C101.299 57.5033 101.338 57.5033 101.416 57.5423C101.494 57.5813 101.533 57.5813 101.572 57.6203L101.767 57.7763C101.65 57.8934 101.533 57.9714 101.416 58.0884C101.299 58.1665 101.143 58.2445 100.987 58.3225C100.831 58.4005 100.675 58.4395 100.519 58.4785C100.363 58.5176 100.207 58.5176 100.051 58.5176C99.7387 58.5176 99.4266 58.4395 99.1536 58.3225C98.8805 58.2055 98.6074 58.0494 98.4123 57.8153C98.2173 57.6203 98.0222 57.3472 97.9052 57.0741C97.7881 56.801 97.7101 56.489 97.7101 56.1769C97.7101 55.8648 97.7881 55.5527 97.9052 55.2796C98.0222 55.0065 98.2173 54.7334 98.4123 54.5384C98.6074 54.3433 98.8805 54.1482 99.1536 54.0312C99.4266 53.9142 99.7387 53.8362 100.051 53.8362C100.324 53.8362 100.558 53.8752 100.831 53.9532C101.104 54.0312 101.299 54.1482 101.494 54.3043C101.689 54.4603 101.845 54.6554 102.001 54.8505C102.157 55.0455 102.235 55.2796 102.313 55.5527C102.313 55.6697 102.313 55.7477 102.313 55.7867ZM101.611 55.7087C101.572 55.5137 101.494 55.3576 101.377 55.2406C101.26 55.0845 101.143 54.9675 101.026 54.8895C100.87 54.7724 100.753 54.7334 100.558 54.6554C100.402 54.6164 100.207 54.5774 100.051 54.5774C99.8558 54.5774 99.6607 54.6164 99.4656 54.6944C99.2706 54.7724 99.1145 54.8505 98.9975 54.9675C98.8415 55.0845 98.7244 55.2406 98.6464 55.3966C98.5294 55.5527 98.4904 55.7477 98.4513 55.9038C98.4904 55.8648 98.4904 55.8258 98.5294 55.7867C98.5684 55.7477 98.6074 55.7087 98.6854 55.7087H101.611Z" fill="white"/>
<path d="M111.13 55.7867C111.13 55.8648 111.13 55.9428 111.091 56.0208C111.052 56.0988 111.013 56.1769 110.974 56.2159C110.935 56.2549 110.857 56.2939 110.779 56.3329C110.701 56.3719 110.662 56.3719 110.584 56.3719H107.229C107.268 56.567 107.307 56.762 107.385 56.9571C107.463 57.1522 107.58 57.3082 107.736 57.4252C107.892 57.5423 108.048 57.6593 108.243 57.7373C108.438 57.8154 108.633 57.8544 108.867 57.8544C109.024 57.8544 109.141 57.8154 109.297 57.7763C109.453 57.7373 109.609 57.6593 109.726 57.5813C109.765 57.5423 109.804 57.5423 109.882 57.5423C109.921 57.5423 109.999 57.5033 110.038 57.5033C110.116 57.5033 110.155 57.5033 110.233 57.5423C110.311 57.5813 110.35 57.5813 110.389 57.6203L110.584 57.7763C110.467 57.8934 110.35 57.9714 110.233 58.0884C110.116 58.1665 109.96 58.2445 109.804 58.3225C109.648 58.4005 109.492 58.4395 109.336 58.4785C109.18 58.5176 109.024 58.5176 108.867 58.5176C108.555 58.5176 108.243 58.4395 107.97 58.3225C107.697 58.2055 107.424 58.0494 107.229 57.8153C107.034 57.6203 106.839 57.3472 106.722 57.0741C106.605 56.801 106.527 56.489 106.527 56.1769C106.527 55.8648 106.605 55.5527 106.722 55.2796C106.839 55.0065 107.034 54.7334 107.229 54.5384C107.424 54.3433 107.697 54.1482 107.97 54.0312C108.243 53.9142 108.555 53.8362 108.867 53.8362C109.141 53.8362 109.375 53.8752 109.648 53.9532C109.921 54.0312 110.116 54.1482 110.311 54.3043C110.506 54.4603 110.662 54.6554 110.818 54.8505C110.974 55.0455 111.052 55.2796 111.13 55.5527C111.091 55.6697 111.13 55.7477 111.13 55.7867ZM110.389 55.7087C110.35 55.5137 110.272 55.3576 110.155 55.2406C110.038 55.0845 109.921 54.9675 109.804 54.8895C109.648 54.7724 109.531 54.7334 109.336 54.6554C109.18 54.6164 108.984 54.5774 108.828 54.5774C108.633 54.5774 108.438 54.6164 108.243 54.6944C108.048 54.7724 107.892 54.8505 107.775 54.9675C107.619 55.0845 107.502 55.2406 107.424 55.3966C107.307 55.5527 107.268 55.7477 107.229 55.9038C107.268 55.8648 107.268 55.8258 107.307 55.7867C107.346 55.7477 107.385 55.7087 107.463 55.7087H110.389Z" fill="white"/>
<path d="M112.066 57.7373C112.183 57.6983 112.261 57.6593 112.34 57.6203C112.418 57.5813 112.496 57.5813 112.574 57.5813C112.613 57.5813 112.691 57.5813 112.769 57.6203C112.847 57.6593 112.925 57.6983 113.003 57.7373C113.081 57.7763 113.159 57.8153 113.237 57.8544C113.315 57.8934 113.432 57.8934 113.51 57.8934C113.627 57.8934 113.705 57.8934 113.822 57.8544C113.939 57.8153 114.017 57.7763 114.095 57.6983C114.173 57.6203 114.251 57.5423 114.29 57.4642C114.329 57.3862 114.368 57.2692 114.368 57.1521C114.368 57.0741 114.368 56.9961 114.329 56.9181C114.29 56.84 114.251 56.801 114.173 56.723C114.095 56.684 114.017 56.606 113.9 56.567C113.783 56.528 113.666 56.4499 113.471 56.4109H113.432C113.276 56.3719 113.12 56.2939 112.964 56.2159C112.808 56.1378 112.691 56.0598 112.574 55.9818C112.457 55.8648 112.34 55.7477 112.3 55.6307C112.222 55.4746 112.183 55.3186 112.183 55.0845C112.183 54.8895 112.222 54.7334 112.3 54.6164C112.379 54.4603 112.496 54.3433 112.613 54.2263C112.73 54.1092 112.886 54.0312 113.042 53.9922C113.198 53.9532 113.354 53.9142 113.51 53.9142C113.666 53.9142 113.822 53.9532 113.978 53.9922C114.095 54.0312 114.251 54.1092 114.329 54.1873C114.446 54.2653 114.524 54.3433 114.602 54.4213C114.68 54.4993 114.719 54.5384 114.758 54.5774L114.602 54.6944C114.563 54.7334 114.485 54.7724 114.407 54.8114C114.329 54.8505 114.29 54.8505 114.212 54.8505C114.173 54.8505 114.095 54.8505 114.056 54.8114C113.978 54.7724 113.939 54.7724 113.861 54.7334C113.783 54.6944 113.744 54.6944 113.666 54.6554C113.588 54.6164 113.549 54.6164 113.471 54.6164C113.354 54.6164 113.237 54.6164 113.159 54.6554C113.081 54.6944 113.003 54.7334 112.964 54.7724C112.925 54.8114 112.886 54.8895 112.847 54.9285C112.808 54.9675 112.808 55.0455 112.808 55.0455C112.808 55.1626 112.847 55.2406 112.886 55.3186C112.925 55.3966 113.003 55.4356 113.081 55.5137C113.159 55.5527 113.237 55.5917 113.354 55.6307C113.432 55.6697 113.549 55.7087 113.666 55.7477C113.822 55.7867 114.017 55.8648 114.173 55.9428C114.329 56.0208 114.485 56.0988 114.602 56.2159C114.719 56.3329 114.836 56.4499 114.914 56.606C114.992 56.762 115.031 56.9181 115.031 57.1521C115.031 57.3472 114.992 57.5423 114.914 57.6983C114.836 57.8544 114.719 58.0104 114.602 58.1665C114.446 58.2835 114.29 58.4005 114.095 58.4785C113.9 58.5566 113.705 58.5956 113.471 58.5956C113.315 58.5956 113.198 58.5956 113.042 58.5566C112.886 58.5176 112.769 58.4785 112.652 58.4005C112.535 58.3225 112.418 58.2445 112.3 58.1274C112.222 57.9714 112.144 57.8544 112.066 57.7373Z" fill="white"/>
<path d="M117.255 53.9142C117.255 53.9142 117.294 53.9532 117.294 54.0312C117.294 54.1092 117.333 54.1482 117.333 54.2263V54.4993C117.372 54.4213 117.411 54.3433 117.45 54.3043C117.528 54.2263 117.567 54.1873 117.645 54.1482C117.723 54.1092 117.801 54.0702 117.918 54.0312C117.996 53.9922 118.113 53.9922 118.191 53.9532C118.269 53.9142 118.347 53.9142 118.425 53.9142C118.503 53.9142 118.581 53.9142 118.62 53.9142C118.932 53.9142 119.245 53.9922 119.518 54.1092C119.791 54.2263 120.025 54.3823 120.22 54.6164C120.415 54.8114 120.571 55.0845 120.688 55.3576C120.805 55.6307 120.844 55.9428 120.844 56.2549C120.844 56.567 120.805 56.8791 120.688 57.1521C120.571 57.4252 120.415 57.6983 120.22 57.8934C120.025 58.0884 119.791 58.2835 119.518 58.4005C119.245 58.5176 118.932 58.5956 118.62 58.5956C118.503 58.5956 118.425 58.5956 118.308 58.5566C118.191 58.5566 118.074 58.5176 117.957 58.4785C117.84 58.4395 117.723 58.3615 117.606 58.2835C117.489 58.2055 117.372 58.0884 117.255 57.9714V60.039H116.553V53.9532H117.255V53.9142ZM118.659 57.8544C118.893 57.8544 119.089 57.8153 119.284 57.7373C119.479 57.6593 119.635 57.5423 119.791 57.3862C119.947 57.2302 120.025 57.0741 120.103 56.8791C120.181 56.684 120.22 56.4499 120.22 56.2159C120.22 55.9818 120.181 55.7867 120.103 55.5527C120.025 55.3576 119.908 55.1626 119.791 55.0455C119.635 54.8895 119.479 54.7724 119.284 54.6944C119.089 54.6164 118.893 54.5774 118.659 54.5774C118.425 54.5774 118.191 54.6164 117.957 54.7334C117.723 54.8505 117.528 54.9675 117.333 55.1625V57.2302C117.411 57.3472 117.489 57.4252 117.606 57.5033C117.723 57.5813 117.801 57.6593 117.918 57.6983C118.035 57.7373 118.152 57.8153 118.269 57.8153C118.425 57.8544 118.542 57.8544 118.659 57.8544Z" fill="white"/>
<path d="M126.579 55.7867C126.579 55.8648 126.579 55.9428 126.54 56.0208C126.501 56.0988 126.462 56.1769 126.423 56.2159C126.384 56.2549 126.306 56.2939 126.228 56.3329C126.15 56.3719 126.111 56.3719 126.033 56.3719H122.678C122.717 56.567 122.756 56.762 122.834 56.9571C122.912 57.1522 123.029 57.3082 123.185 57.4252C123.341 57.5423 123.497 57.6593 123.692 57.7373C123.887 57.8154 124.082 57.8544 124.316 57.8544C124.472 57.8544 124.589 57.8154 124.745 57.7763C124.901 57.7373 125.057 57.6593 125.174 57.5813C125.213 57.5423 125.252 57.5423 125.33 57.5423C125.369 57.5423 125.447 57.5033 125.486 57.5033C125.564 57.5033 125.603 57.5033 125.682 57.5423C125.76 57.5813 125.799 57.5813 125.838 57.6203L126.033 57.7763C125.916 57.8934 125.799 57.9714 125.682 58.0884C125.564 58.1665 125.408 58.2445 125.252 58.3225C125.096 58.4005 124.94 58.4395 124.784 58.4785C124.628 58.5176 124.472 58.5176 124.316 58.5176C124.004 58.5176 123.692 58.4395 123.419 58.3225C123.146 58.2055 122.873 58.0494 122.678 57.8153C122.483 57.6203 122.288 57.3472 122.17 57.0741C122.053 56.801 121.975 56.489 121.975 56.1769C121.975 55.8648 122.053 55.5527 122.17 55.2796C122.288 55.0065 122.483 54.7334 122.678 54.5384C122.873 54.3433 123.146 54.1482 123.419 54.0312C123.692 53.9142 124.004 53.8362 124.316 53.8362C124.589 53.8362 124.823 53.8752 125.096 53.9532C125.369 54.0312 125.564 54.1482 125.76 54.3043C125.955 54.4603 126.111 54.6554 126.267 54.8505C126.423 55.0455 126.501 55.2796 126.579 55.5527C126.579 55.6697 126.579 55.7477 126.579 55.7867ZM125.838 55.7087C125.799 55.5137 125.721 55.3576 125.603 55.2406C125.486 55.0845 125.369 54.9675 125.252 54.8895C125.096 54.7724 124.979 54.7334 124.784 54.6554C124.628 54.6164 124.433 54.5774 124.277 54.5774C124.082 54.5774 123.887 54.6164 123.692 54.6944C123.497 54.7724 123.341 54.8505 123.224 54.9675C123.068 55.0845 122.951 55.2406 122.873 55.3966C122.756 55.5527 122.717 55.7477 122.678 55.9038C122.717 55.8648 122.717 55.8258 122.756 55.7867C122.795 55.7477 122.834 55.7087 122.912 55.7087H125.838Z" fill="white"/>
<path d="M130.012 54.5384C129.778 54.5384 129.583 54.5774 129.349 54.6554C129.154 54.7334 128.958 54.8505 128.841 55.0065C128.685 55.1626 128.568 55.3186 128.49 55.5137C128.412 55.7087 128.373 55.9428 128.373 56.1769C128.373 56.4109 128.412 56.606 128.49 56.8401C128.568 57.0351 128.685 57.2302 128.841 57.3472C128.998 57.5033 129.154 57.6203 129.349 57.6983C129.544 57.7763 129.778 57.8153 130.012 57.8153C130.168 57.8153 130.285 57.8154 130.441 57.7763C130.597 57.7373 130.714 57.6983 130.831 57.6203C130.87 57.5813 130.948 57.5813 130.987 57.5423C131.026 57.5423 131.104 57.5033 131.143 57.5033C131.221 57.5033 131.299 57.5033 131.377 57.5423C131.455 57.5813 131.494 57.6203 131.572 57.6983L131.689 57.8153C131.611 57.9324 131.494 58.0104 131.377 58.0884C131.26 58.1665 131.143 58.2445 130.987 58.3225C130.831 58.4005 130.714 58.4395 130.519 58.4785C130.363 58.5176 130.207 58.5176 130.051 58.5176C129.739 58.5176 129.427 58.4395 129.154 58.3225C128.88 58.2055 128.607 58.0494 128.412 57.8153C128.217 57.6203 128.022 57.3472 127.905 57.0741C127.788 56.801 127.71 56.489 127.71 56.1769C127.71 55.8648 127.788 55.5527 127.905 55.2796C128.022 55.0065 128.178 54.7334 128.412 54.5384C128.607 54.3433 128.88 54.1482 129.154 54.0312C129.427 53.9142 129.739 53.8362 130.051 53.8362C130.207 53.8362 130.363 53.8362 130.519 53.8752C130.675 53.9142 130.831 53.9532 130.948 54.0312C131.104 54.1092 131.221 54.1482 131.338 54.2653C131.455 54.3433 131.572 54.4603 131.689 54.5384L131.572 54.6554C131.494 54.7334 131.455 54.7724 131.377 54.8114C131.299 54.8505 131.221 54.8505 131.143 54.8505C131.026 54.8505 130.948 54.8114 130.87 54.7724C130.753 54.6944 130.636 54.6554 130.48 54.6164C130.285 54.5774 130.129 54.5774 130.012 54.5384Z" fill="white"/>
<path d="M132.782 52.7048C132.782 52.6268 132.782 52.5488 132.821 52.5098C132.86 52.4317 132.899 52.3927 132.938 52.3537C132.977 52.3147 133.055 52.2757 133.094 52.2367C133.172 52.1977 133.211 52.1977 133.289 52.1977C133.367 52.1977 133.445 52.1977 133.484 52.2367C133.562 52.2757 133.601 52.3147 133.64 52.3537C133.679 52.3927 133.718 52.4707 133.757 52.5098C133.796 52.5878 133.796 52.6268 133.796 52.7048C133.796 52.7828 133.796 52.8609 133.757 52.8999C133.718 52.9779 133.679 53.0169 133.64 53.0559C133.601 53.0949 133.523 53.1339 133.484 53.173C133.406 53.212 133.367 53.212 133.289 53.212C133.211 53.212 133.133 53.212 133.094 53.173C133.016 53.1339 132.977 53.0949 132.938 53.0559C132.899 53.0169 132.86 52.9389 132.821 52.8999C132.782 52.8609 132.782 52.7828 132.782 52.7048ZM133.64 53.9142V58.4785H132.938V53.9142H133.64Z" fill="white"/>
<path d="M135.708 54.5774C135.747 54.5384 135.786 54.4603 135.825 54.4213C135.864 54.3823 135.903 54.3433 135.942 54.3043C135.981 54.2653 136.059 54.2263 136.098 54.1873C136.254 54.0702 136.449 53.9922 136.644 53.9532C136.839 53.8752 137.073 53.8752 137.307 53.8752C137.541 53.8752 137.775 53.9142 137.931 53.9532C138.126 54.0312 138.282 54.1092 138.399 54.2263C138.516 54.3433 138.633 54.4603 138.711 54.6164C138.789 54.7724 138.867 54.9285 138.906 55.0845C138.945 55.2406 138.984 55.4356 139.023 55.6307C139.023 55.8258 139.063 56.0208 139.063 56.2159V58.4785H138.477C138.438 58.4395 138.438 58.4005 138.399 58.3615C138.36 58.3225 138.36 58.2445 138.36 58.1665V58.0104C138.243 58.0884 138.126 58.2055 138.009 58.2445C137.892 58.3225 137.736 58.3615 137.619 58.4005C137.502 58.4395 137.346 58.4785 137.229 58.5176C137.112 58.5566 136.995 58.5566 136.878 58.5566H136.839C136.644 58.5566 136.41 58.5176 136.254 58.4395C136.059 58.3615 135.903 58.2835 135.786 58.1665C135.669 58.0494 135.551 57.8934 135.473 57.7373C135.395 57.5813 135.356 57.3862 135.356 57.1912C135.356 56.9571 135.395 56.762 135.473 56.606C135.551 56.4109 135.669 56.2939 135.864 56.1378C136.02 56.0208 136.254 55.9038 136.527 55.8648C136.8 55.7867 137.112 55.7477 137.463 55.7477C137.58 55.7477 137.658 55.7477 137.775 55.7477C137.892 55.7477 137.97 55.7477 138.048 55.7867C138.126 55.7867 138.204 55.7867 138.282 55.8257C138.36 55.8257 138.399 55.8257 138.399 55.8257C138.399 55.5527 138.36 55.3576 138.282 55.1625C138.204 55.0065 138.126 54.8505 138.048 54.7724C137.97 54.6944 137.853 54.6164 137.736 54.5774C137.619 54.5384 137.502 54.5384 137.346 54.5384C137.268 54.5384 137.19 54.5384 137.112 54.5384C137.034 54.5384 136.995 54.5774 136.917 54.5774C136.878 54.6164 136.8 54.6164 136.761 54.6554C136.722 54.6944 136.644 54.6944 136.605 54.7334C136.566 54.7724 136.527 54.7724 136.449 54.8114C136.371 54.8114 136.332 54.8505 136.254 54.8505C136.176 54.8505 136.137 54.8505 136.059 54.8114C135.981 54.7724 135.942 54.7724 135.864 54.6944L135.708 54.5774ZM136.878 57.8544C136.995 57.8544 137.112 57.8544 137.229 57.8153C137.346 57.7763 137.502 57.7763 137.619 57.7373C137.736 57.6983 137.892 57.6593 138.009 57.5813C138.126 57.5423 138.282 57.4642 138.399 57.3862V56.528C138.399 56.528 138.36 56.528 138.282 56.528C138.204 56.528 138.165 56.528 138.048 56.528C137.97 56.528 137.853 56.528 137.775 56.528C137.658 56.528 137.58 56.528 137.463 56.528C137.268 56.528 137.073 56.528 136.917 56.567C136.761 56.606 136.605 56.645 136.488 56.684C136.371 56.762 136.254 56.84 136.176 56.9181C136.098 56.9961 136.059 57.1131 136.059 57.2692C136.059 57.3862 136.098 57.4642 136.137 57.5423C136.176 57.6203 136.215 57.6983 136.293 57.7373C136.371 57.7763 136.449 57.8153 136.566 57.8544C136.644 57.8544 136.761 57.8544 136.878 57.8544Z" fill="white"/>
<path d="M141.481 52.2757V58.4785H140.779V52.2757H141.481Z" fill="white"/>
<path d="M143.354 52.7048C143.354 52.6268 143.354 52.5488 143.393 52.5098C143.432 52.4317 143.471 52.3927 143.51 52.3537C143.549 52.3147 143.627 52.2757 143.666 52.2367C143.744 52.1977 143.783 52.1977 143.861 52.1977C143.939 52.1977 144.017 52.1977 144.056 52.2367C144.134 52.2757 144.173 52.3147 144.212 52.3537C144.251 52.3927 144.29 52.4707 144.329 52.5098C144.368 52.5878 144.368 52.6268 144.368 52.7048C144.368 52.7828 144.368 52.8609 144.329 52.8999C144.29 52.9779 144.251 53.0169 144.212 53.0559C144.173 53.0949 144.095 53.1339 144.056 53.173C143.978 53.212 143.939 53.212 143.861 53.212C143.783 53.212 143.705 53.212 143.666 53.173C143.588 53.1339 143.549 53.0949 143.51 53.0559C143.471 53.0169 143.432 52.9389 143.393 52.8999C143.393 52.8609 143.354 52.7828 143.354 52.7048ZM144.251 53.9142V58.4785H143.549V53.9142H144.251Z" fill="white"/>
<path d="M149.557 58.4785C149.518 58.4395 149.518 58.4395 149.518 58.4005C149.518 58.3615 149.479 58.3225 149.479 58.2835C149.479 58.2445 149.44 58.2055 149.44 58.1274V58.0104C149.323 58.1274 149.206 58.2055 149.089 58.2835C148.972 58.3615 148.854 58.4005 148.737 58.4395C148.62 58.4785 148.503 58.5176 148.425 58.5176C148.308 58.5176 148.23 58.5566 148.113 58.5566C147.801 58.5566 147.489 58.4785 147.216 58.3615C146.943 58.2445 146.709 58.0884 146.514 57.8544C146.319 57.6593 146.163 57.3862 146.046 57.1131C145.929 56.8401 145.89 56.528 145.89 56.2159C145.89 55.9038 145.929 55.5917 146.046 55.3186C146.163 55.0455 146.319 54.7724 146.514 54.5774C146.709 54.3823 146.943 54.1873 147.216 54.0702C147.489 53.9532 147.801 53.8752 148.113 53.8752C148.23 53.8752 148.308 53.8752 148.425 53.8752C148.542 53.8752 148.659 53.9142 148.737 53.9532C148.854 53.9922 148.972 54.0312 149.089 54.1092C149.206 54.1873 149.323 54.2653 149.44 54.3823V52.2757H150.142V58.4785H149.557ZM148.113 54.5774C147.879 54.5774 147.684 54.6164 147.489 54.6944C147.294 54.7724 147.138 54.8895 146.982 55.0455C146.826 55.2016 146.748 55.3576 146.67 55.5527C146.592 55.7477 146.553 55.9428 146.553 56.1769C146.553 56.4109 146.592 56.606 146.67 56.801C146.748 56.9961 146.865 57.1912 146.982 57.3082C147.138 57.4642 147.294 57.5813 147.489 57.6593C147.684 57.7373 147.879 57.7763 148.113 57.7763C148.347 57.7763 148.581 57.7373 148.815 57.6203C149.05 57.5032 149.245 57.3862 149.44 57.1912V55.0455C149.284 54.8505 149.05 54.7334 148.815 54.6164C148.62 54.6164 148.347 54.5774 148.113 54.5774Z" fill="white"/>
<path d="M152.014 54.5774C152.053 54.5384 152.092 54.4603 152.131 54.4213C152.17 54.3823 152.209 54.3433 152.249 54.3043C152.288 54.2653 152.366 54.2263 152.405 54.1873C152.561 54.0702 152.756 53.9922 152.951 53.9532C153.146 53.8752 153.38 53.8752 153.614 53.8752C153.848 53.8752 154.082 53.9142 154.238 53.9532C154.433 54.0312 154.589 54.1092 154.706 54.2263C154.823 54.3433 154.94 54.4603 155.018 54.6164C155.096 54.7724 155.174 54.9285 155.213 55.0845C155.252 55.2406 155.291 55.4356 155.33 55.6307C155.33 55.8258 155.369 56.0208 155.369 56.2159V58.4785H154.784C154.745 58.4395 154.745 58.4005 154.706 58.3615C154.667 58.3225 154.667 58.2445 154.667 58.1665V58.0104C154.55 58.0884 154.433 58.2055 154.316 58.2445C154.199 58.3225 154.043 58.3615 153.926 58.4005C153.809 58.4395 153.653 58.4785 153.536 58.5176C153.419 58.5566 153.302 58.5566 153.185 58.5566H153.146C152.951 58.5566 152.717 58.5176 152.561 58.4395C152.366 58.3615 152.209 58.2835 152.092 58.1665C151.975 58.0494 151.858 57.8934 151.78 57.7373C151.702 57.5813 151.663 57.3862 151.663 57.1912C151.663 56.9571 151.702 56.762 151.78 56.606C151.858 56.4109 151.975 56.2939 152.17 56.1378C152.366 55.9818 152.561 55.9038 152.834 55.8648C153.107 55.7867 153.419 55.7477 153.77 55.7477C153.887 55.7477 153.965 55.7477 154.082 55.7477C154.199 55.7477 154.277 55.7477 154.355 55.7867C154.433 55.7867 154.511 55.7867 154.589 55.8257C154.667 55.8257 154.706 55.8257 154.706 55.8257C154.706 55.5527 154.667 55.3576 154.589 55.1625C154.511 55.0065 154.433 54.8505 154.355 54.7724C154.277 54.6944 154.16 54.6164 154.043 54.5774C153.926 54.5384 153.809 54.5384 153.653 54.5384C153.575 54.5384 153.497 54.5384 153.419 54.5384C153.341 54.5384 153.302 54.5774 153.224 54.5774C153.185 54.6164 153.107 54.6164 153.068 54.6554C153.029 54.6944 152.951 54.6944 152.912 54.7334C152.873 54.7724 152.834 54.7724 152.756 54.8114C152.678 54.8114 152.639 54.8505 152.561 54.8505C152.483 54.8505 152.444 54.8505 152.366 54.8114C152.288 54.7724 152.248 54.7724 152.17 54.6944L152.014 54.5774ZM153.185 57.8544C153.302 57.8544 153.419 57.8544 153.536 57.8153C153.653 57.7763 153.809 57.7763 153.926 57.7373C154.043 57.6983 154.199 57.6593 154.316 57.5813C154.433 57.5423 154.589 57.4642 154.706 57.3862V56.528C154.706 56.528 154.667 56.528 154.589 56.528C154.511 56.528 154.472 56.528 154.355 56.528C154.277 56.528 154.16 56.528 154.082 56.528C153.965 56.528 153.887 56.528 153.77 56.528C153.575 56.528 153.38 56.528 153.224 56.567C153.068 56.606 152.912 56.645 152.795 56.684C152.678 56.762 152.561 56.84 152.483 56.9181C152.405 56.9961 152.366 57.1131 152.366 57.2692C152.366 57.3862 152.405 57.4642 152.444 57.5423C152.483 57.6203 152.522 57.6983 152.6 57.7373C152.678 57.7763 152.756 57.8153 152.873 57.8544C152.951 57.8544 153.068 57.8544 153.185 57.8544Z" fill="white"/>
<path d="M160.402 58.4785C160.363 58.4395 160.363 58.4395 160.363 58.4005C160.363 58.3615 160.324 58.3225 160.324 58.2835C160.324 58.2445 160.285 58.2055 160.285 58.1274V58.0104C160.168 58.1274 160.051 58.2055 159.934 58.2835C159.817 58.3615 159.7 58.4005 159.583 58.4395C159.466 58.4785 159.349 58.5176 159.271 58.5176C159.154 58.5176 159.076 58.5566 158.958 58.5566C158.646 58.5566 158.334 58.4785 158.061 58.3615C157.788 58.2445 157.554 58.0884 157.359 57.8544C157.164 57.6593 157.008 57.3862 156.891 57.1131C156.774 56.8401 156.735 56.528 156.735 56.2159C156.735 55.9038 156.774 55.5917 156.891 55.3186C157.008 55.0455 157.164 54.7724 157.359 54.5774C157.554 54.3823 157.788 54.1873 158.061 54.0702C158.334 53.9532 158.646 53.8752 158.958 53.8752C159.076 53.8752 159.154 53.8752 159.271 53.8752C159.388 53.8752 159.505 53.9142 159.583 53.9532C159.7 53.9922 159.817 54.0312 159.934 54.1092C160.051 54.1873 160.168 54.2653 160.285 54.3823V52.2757H160.987V58.4785H160.402ZM158.958 54.5774C158.724 54.5774 158.529 54.6164 158.334 54.6944C158.139 54.7724 157.983 54.8895 157.827 55.0455C157.671 55.2016 157.593 55.3576 157.515 55.5527C157.437 55.7477 157.398 55.9428 157.398 56.1769C157.398 56.4109 157.437 56.606 157.515 56.801C157.593 56.9961 157.71 57.1912 157.827 57.3082C157.983 57.4642 158.139 57.5813 158.334 57.6593C158.529 57.7373 158.724 57.7763 158.958 57.7763C159.193 57.7763 159.427 57.7373 159.661 57.6203C159.895 57.5032 160.09 57.3862 160.285 57.1912V55.0455C160.129 54.8505 159.895 54.7334 159.661 54.6164C159.427 54.6164 159.193 54.5774 158.958 54.5774Z" fill="white"/>
<path d="M167.034 55.7867C167.034 55.8648 167.034 55.9428 166.995 56.0208C166.956 56.0988 166.917 56.1769 166.878 56.2159C166.839 56.2549 166.761 56.2939 166.683 56.3329C166.605 56.3719 166.566 56.3719 166.488 56.3719H163.133C163.172 56.567 163.211 56.762 163.289 56.9571C163.367 57.1522 163.484 57.3082 163.64 57.4252C163.796 57.5423 163.952 57.6593 164.147 57.7373C164.342 57.8154 164.537 57.8544 164.771 57.8544C164.927 57.8544 165.044 57.8154 165.2 57.7763C165.356 57.7373 165.512 57.6593 165.63 57.5813C165.669 57.5423 165.708 57.5423 165.786 57.5423C165.825 57.5423 165.903 57.5033 165.942 57.5033C166.02 57.5033 166.059 57.5033 166.137 57.5423C166.215 57.5813 166.254 57.5813 166.293 57.6203L166.488 57.7763C166.371 57.8934 166.254 57.9714 166.137 58.0884C166.02 58.1665 165.864 58.2445 165.708 58.3225C165.551 58.4005 165.395 58.4395 165.239 58.4785C165.083 58.5176 164.927 58.5176 164.771 58.5176C164.459 58.5176 164.147 58.4395 163.874 58.3225C163.601 58.2055 163.328 58.0494 163.133 57.8153C162.938 57.6203 162.743 57.3472 162.626 57.0741C162.509 56.801 162.431 56.489 162.431 56.1769C162.431 55.8648 162.509 55.5527 162.626 55.2796C162.743 55.0065 162.938 54.7334 163.133 54.5384C163.328 54.3433 163.601 54.1482 163.874 54.0312C164.147 53.9142 164.459 53.8362 164.771 53.8362C165.044 53.8362 165.278 53.8752 165.551 53.9532C165.786 54.0312 166.02 54.1482 166.215 54.3043C166.41 54.4603 166.566 54.6554 166.722 54.8505C166.878 55.0455 166.956 55.2796 167.034 55.5527C167.034 55.6697 167.034 55.7477 167.034 55.7867ZM166.332 55.7087C166.293 55.5137 166.215 55.3576 166.098 55.2406C165.981 55.0845 165.864 54.9675 165.747 54.8895C165.59 54.7724 165.473 54.7334 165.278 54.6554C165.122 54.6164 164.927 54.5774 164.771 54.5774C164.576 54.5774 164.381 54.6164 164.186 54.6944C163.991 54.7724 163.835 54.8505 163.718 54.9675C163.562 55.0845 163.445 55.2406 163.367 55.3966C163.25 55.5527 163.211 55.7477 163.172 55.9038C163.211 55.8648 163.211 55.8258 163.25 55.7867C163.289 55.7477 163.328 55.7087 163.406 55.7087H166.332Z" fill="white"/>
<path d="M168.009 57.7373C168.126 57.6983 168.204 57.6593 168.282 57.6203C168.36 57.5813 168.438 57.5813 168.516 57.5813C168.555 57.5813 168.633 57.5813 168.711 57.6203C168.789 57.6593 168.867 57.6983 168.945 57.7373C169.024 57.7763 169.102 57.8153 169.18 57.8544C169.258 57.8934 169.375 57.8934 169.453 57.8934C169.57 57.8934 169.648 57.8934 169.765 57.8544C169.882 57.8153 169.96 57.7763 170.038 57.6983C170.116 57.6203 170.194 57.5423 170.233 57.4642C170.272 57.3862 170.311 57.2692 170.311 57.1521C170.311 57.0741 170.311 56.9961 170.272 56.9181C170.233 56.84 170.194 56.801 170.116 56.723C170.038 56.684 169.96 56.606 169.843 56.567C169.726 56.528 169.609 56.4499 169.414 56.4109H169.375C169.219 56.3719 169.063 56.2939 168.906 56.2159C168.75 56.1378 168.633 56.0598 168.516 55.9818C168.399 55.8648 168.282 55.7477 168.243 55.6307C168.165 55.4746 168.126 55.3186 168.126 55.0845C168.126 54.8895 168.165 54.7334 168.243 54.6164C168.321 54.4603 168.438 54.3433 168.555 54.2263C168.672 54.1092 168.828 54.0312 168.984 53.9922C169.141 53.9532 169.297 53.9142 169.453 53.9142C169.609 53.9142 169.765 53.9532 169.921 53.9922C170.038 54.0312 170.194 54.1092 170.272 54.1873C170.389 54.2653 170.467 54.3433 170.545 54.4213C170.623 54.4993 170.662 54.5384 170.701 54.5774L170.545 54.6944C170.506 54.7334 170.428 54.7724 170.35 54.8114C170.272 54.8505 170.233 54.8505 170.155 54.8505C170.116 54.8505 170.038 54.8505 169.999 54.8114C169.921 54.7724 169.882 54.7724 169.804 54.7334C169.726 54.6944 169.687 54.6944 169.609 54.6554C169.531 54.6164 169.492 54.6164 169.414 54.6164C169.297 54.6164 169.18 54.6164 169.102 54.6554C169.024 54.6944 168.945 54.7334 168.906 54.7724C168.867 54.8114 168.828 54.8895 168.789 54.9285C168.75 54.9675 168.75 55.0455 168.75 55.0455C168.75 55.1626 168.789 55.2406 168.828 55.3186C168.867 55.3966 168.945 55.4356 169.024 55.5137C169.102 55.5527 169.18 55.5917 169.297 55.6307C169.375 55.6697 169.492 55.7087 169.609 55.7477C169.765 55.7867 169.96 55.8648 170.116 55.9428C170.272 56.0208 170.428 56.0988 170.545 56.2159C170.662 56.3329 170.779 56.4499 170.857 56.606C170.935 56.762 170.974 56.9181 170.974 57.1521C170.974 57.3472 170.935 57.5423 170.857 57.6983C170.779 57.8544 170.662 58.0104 170.545 58.1665C170.389 58.2835 170.233 58.4005 170.038 58.4785C169.843 58.5566 169.648 58.5956 169.414 58.5956C169.258 58.5956 169.141 58.5956 168.984 58.5566C168.828 58.5176 168.711 58.4785 168.594 58.4005C168.477 58.3225 168.36 58.2445 168.243 58.1274C168.165 57.9714 168.087 57.8544 168.009 57.7373Z" fill="white"/>
</svg>
