<svg width="207" height="71" viewBox="0 0 207 71" fill="none" xmlns="http://www.w3.org/2000/svg">
<path d="M46.468 49.1548L33.5877 13.199C32.8139 11.0598 30.7658 9.60338 28.4446 9.60338H19.0688C16.7931 9.60338 14.6995 11.0598 13.9258 13.199L1.0454 49.1548C0.954377 49.3823 0.999891 49.6554 1.13643 49.883C1.27297 50.1105 1.50054 50.2016 1.77362 50.2016H15.2002C16.4745 50.2016 17.6124 49.3368 17.931 48.1535L18.4316 46.4694C18.4771 46.2874 18.6137 46.1053 18.7502 45.9688L18.7957 45.9233C18.9778 45.8323 19.1598 45.7412 19.3419 45.7412H28.0805C28.5356 45.7412 28.8998 46.0143 29.0363 46.4694L29.537 48.1535C29.9011 49.3823 30.9934 50.2016 32.2678 50.2016H45.6943C45.9674 50.2016 46.1949 50.065 46.3315 49.883C46.5135 49.6554 46.5591 49.3823 46.468 49.1548ZM29.4459 35.5462L19.2964 30.9948L33.6787 21.3914L29.4459 35.5462ZM18.2496 29.8114L15.6553 14.5644L33.2236 19.844L18.2496 29.8114ZM16.8842 30.9038L3.91276 45.7867L14.4264 16.4759L16.8842 30.9038ZM18.4771 44.2393V32.3147L28.4446 36.775L18.4771 44.2393ZM35.0896 22.0286L44.0558 47.0611L30.8113 36.3199L35.0896 22.0286ZM19.0688 11.1508H28.4446C30.0831 11.1508 31.5851 12.1977 32.1312 13.7451L33.7697 18.3875L15.7463 13.0169C16.4745 11.8791 17.7034 11.1508 19.0688 11.1508ZM15.2002 48.6541H3.45763L16.8842 33.1795V46.1053L16.429 47.6983C16.2925 48.2445 15.7918 48.6541 15.2002 48.6541ZM31.0389 47.6983L30.5382 46.0143C30.2197 44.922 29.2184 44.1938 28.126 44.1938H21.1169L29.9011 37.5943L43.5552 48.6541H32.2678C31.7216 48.6541 31.1754 48.2445 31.0389 47.6983Z" fill="white"/>
<path d="M74.5499 43.8752C75.6878 43.1469 76.7346 42.2822 77.6904 41.2809C78.6462 40.2796 79.4199 39.1873 80.1026 37.9584C80.7398 36.775 81.286 35.5006 81.6501 34.1352C82.0142 32.7698 82.1962 31.3589 82.1962 29.857C82.1962 27.5358 81.7411 25.3966 80.8763 23.394C80.0116 21.3914 78.8282 19.6164 77.2808 18.1144C75.7788 16.6125 74.0038 15.4291 72.0012 14.5189C69.9986 13.6541 67.8139 13.199 65.5382 13.199C63.9908 13.199 62.5343 13.381 61.1234 13.7906C59.7125 14.2003 58.3926 14.7464 57.1637 15.4746C55.9349 16.2029 54.797 17.0676 53.7957 18.0689C52.7944 19.0702 51.9297 20.2081 51.2014 21.4369C50.4732 22.6658 49.9271 23.9857 49.5174 25.4421C49.1078 26.8531 48.9258 28.355 48.9258 29.857C48.9258 31.4044 49.1078 32.8609 49.5174 34.2718C49.9271 35.6827 50.4732 37.0026 51.2014 38.277C51.9297 39.5059 52.7944 40.6437 53.7957 41.645C54.797 42.6463 55.9349 43.5111 57.1637 44.2393C58.3926 44.9675 59.7125 45.5137 61.1234 45.9233C62.5343 46.3329 64.0363 46.515 65.5382 46.515C66.7216 46.515 67.8594 46.3784 68.9973 46.1508C70.0896 45.9233 71.1819 45.5592 72.1832 45.1495L74.2313 47.9714C72.9115 48.6086 71.546 49.1092 70.0441 49.4278C68.5877 49.7464 67.0857 49.9285 65.4927 49.9285C62.7164 49.9285 60.1221 49.3823 57.6644 48.3355C55.2522 47.2887 53.113 45.8322 51.2925 44.0117C49.4719 42.1912 48.0155 40.052 46.9687 37.6398C45.9219 35.1821 45.3757 32.5878 45.3757 29.8114C45.3757 27.0351 45.9219 24.4408 46.9687 21.9831C48.0155 19.5254 49.4719 17.4317 51.2925 15.6112C53.113 13.7906 55.2522 12.3797 57.6644 11.2874C60.0766 10.2406 62.7164 9.69441 65.4927 9.69441C68.2691 9.69441 70.8633 10.2406 73.3211 11.2874C75.7788 12.3342 77.8724 13.7906 79.693 15.6112C81.5135 17.4317 82.9244 19.5709 84.0168 21.9831C85.0636 24.4408 85.6098 27.0351 85.6098 29.8114C85.6098 31.2679 85.4732 32.6788 85.1546 33.9987C84.8815 35.3641 84.4264 36.6385 83.8802 37.9129C83.3341 39.1417 82.6514 40.3251 81.8776 41.4174C81.1039 42.5098 80.1936 43.5111 79.2378 44.4668C80.8763 46.6515 82.5148 48.8817 84.1533 51.0663C85.7918 53.2965 87.4303 55.5267 89.1143 57.8023H87.4758C85.6098 57.8023 84.1988 57.1196 83.3341 55.7087L74.5499 43.8752Z" fill="white"/>
<path d="M95.8048 34.4538C95.8048 36.1378 96.1234 37.7308 96.7606 39.1873C97.3978 40.6437 98.2626 41.9636 99.3549 43.0559C100.447 44.1482 101.722 45.013 103.224 45.6502C104.68 46.2874 106.273 46.606 107.957 46.606C109.641 46.606 111.188 46.2874 112.645 45.6502C114.101 45.013 115.421 44.1482 116.514 43.0559C117.606 41.9636 118.471 40.6892 119.108 39.1873C119.745 37.7308 120.064 36.1378 120.064 34.4538V10.2861H123.523V34.4538C123.523 36.593 123.113 38.6411 122.294 40.5071C121.475 42.4187 120.382 44.0572 118.971 45.4681C117.56 46.8791 115.922 47.9714 114.01 48.7906C112.099 49.6099 110.096 50.0195 107.957 50.0195C105.818 50.0195 103.815 49.6099 101.904 48.7906C99.9921 47.9714 98.3536 46.8791 96.9427 45.4681C95.5317 44.0572 94.3939 42.4187 93.6202 40.5071C92.8009 38.5956 92.3913 36.593 92.3913 34.4538V10.2861H95.8048V34.4538Z" fill="white"/>
<path d="M136.676 49.5189H133.263V10.2861H136.676V49.5189Z" fill="white"/>
<path d="M147.19 49.5189V10.2861H150.603V46.1053H168.581V49.5189H147.19Z" fill="white"/>
<path d="M186.741 10.2861H189.654C191.11 13.6086 192.521 16.8856 193.978 20.1625C195.389 23.4395 196.845 26.671 198.256 29.948C199.667 33.1795 201.123 36.4564 202.534 39.6879C203.945 42.9649 205.402 46.2419 206.813 49.5189H205.265C204.582 49.5189 203.991 49.3368 203.445 48.9727C202.898 48.6086 202.489 48.1534 202.216 47.5163L199.03 40.1886H177.365L174.225 47.5163C173.952 48.1079 173.542 48.6086 172.996 48.9727C172.45 49.3368 171.813 49.5189 171.13 49.5189H169.582L186.741 10.2861ZM178.867 36.8205H197.482L188.698 16.658C188.607 16.4759 188.516 16.2029 188.471 15.9753C188.38 15.7022 188.334 15.4746 188.289 15.2016C188.243 14.9285 188.198 14.6554 188.198 14.3823C188.152 14.6554 188.106 14.9285 188.061 15.2016C188.015 15.4291 187.97 15.7022 187.924 15.9753C187.879 16.2484 187.788 16.4759 187.697 16.658L178.867 36.8205Z" fill="white"/>
<path d="M27.0337 6.82705C26.7606 7.10013 26.442 7.3277 26.0324 7.55527C25.6228 7.73732 25.1221 7.87386 24.5304 7.87386L23.3471 7.91937C23.8022 7.05462 24.2574 6.23537 24.758 5.41612C25.2131 4.59688 25.6683 3.91417 26.0324 3.27698C26.3965 2.63979 26.7151 2.13914 26.9427 1.77503C27.1702 1.41092 27.3068 1.18335 27.3523 1.18335C27.5343 0.910273 27.8985 0.637191 28.3991 0.409623C28.8998 0.136541 29.4459 0 30.0376 0H32.0857L27.0337 6.82705Z" fill="white"/>
<path d="M8.00899 67.3602C8.14553 67.3147 8.23656 67.2692 8.32759 67.2237C8.41861 67.1781 8.50964 67.1782 8.60067 67.1782C8.64618 67.1782 8.73721 67.1781 8.82824 67.2237C8.91926 67.2692 9.01029 67.3147 9.10132 67.3602C9.19235 67.4057 9.28337 67.4512 9.3744 67.4967C9.46543 67.5423 9.60197 67.5423 9.693 67.5423C9.82954 67.5423 9.92056 67.5423 10.0571 67.4967C10.1936 67.4512 10.2847 67.4057 10.3757 67.3147C10.4667 67.2237 10.5578 67.1326 10.6033 67.0416C10.6488 66.9506 10.6943 66.814 10.6943 66.6775C10.6943 66.5865 10.6943 66.4954 10.6488 66.4044C10.6033 66.3134 10.5578 66.2679 10.4667 66.1768C10.3757 66.1313 10.2847 66.0403 10.1481 65.9948C10.0116 65.9493 9.87505 65.8583 9.64748 65.8127H9.60197C9.41992 65.7672 9.23786 65.6762 9.05581 65.5852C8.87375 65.4941 8.73721 65.4031 8.60067 65.3121C8.46413 65.1755 8.32759 65.039 8.28207 64.9025C8.19105 64.7204 8.14553 64.5384 8.14553 64.2653C8.14553 64.0377 8.19105 63.8557 8.28207 63.7191C8.3731 63.5371 8.50964 63.4005 8.64618 63.264C8.78272 63.1274 8.96478 63.0364 9.14683 62.9909C9.32889 62.9454 9.51094 62.8999 9.693 62.8999C9.87505 62.8999 10.0571 62.9454 10.2392 62.9909C10.3757 63.0364 10.5578 63.1274 10.6488 63.2185C10.7853 63.3095 10.8764 63.4005 10.9674 63.4915C11.0584 63.5826 11.1039 63.6281 11.1494 63.6736L10.9674 63.8101C10.9219 63.8557 10.8308 63.9012 10.7398 63.9467C10.6488 63.9922 10.6033 63.9922 10.5122 63.9922C10.4667 63.9922 10.3757 63.9922 10.3302 63.9467C10.2392 63.9012 10.1936 63.9012 10.1026 63.8557C10.0116 63.8101 9.96608 63.8101 9.87505 63.7646C9.78402 63.7191 9.73851 63.7191 9.64748 63.7191C9.51094 63.7191 9.3744 63.7191 9.28337 63.7646C9.19235 63.8101 9.10132 63.8557 9.05581 63.9012C9.01029 63.9467 8.96478 64.0377 8.91926 64.0832C8.87375 64.1287 8.87375 64.2198 8.87375 64.2198C8.87375 64.3563 8.91926 64.4473 8.96478 64.5384C9.01029 64.6294 9.10132 64.6749 9.19235 64.7659C9.28337 64.8114 9.3744 64.857 9.51094 64.9025C9.60197 64.948 9.73851 64.9935 9.87505 65.039C10.0571 65.0845 10.2847 65.1755 10.4667 65.2666C10.6488 65.3576 10.8308 65.4486 10.9674 65.5852C11.1039 65.7217 11.2405 65.8583 11.3315 66.0403C11.4225 66.2224 11.468 66.4044 11.468 66.6775C11.468 66.9051 11.4225 67.1326 11.3315 67.3147C11.2405 67.4967 11.1039 67.6788 10.9674 67.8609C10.8308 68.0429 10.6033 68.1339 10.3757 68.225C10.1481 68.316 9.92056 68.3615 9.64748 68.3615C9.46543 68.3615 9.32889 68.3615 9.14683 68.316C8.96478 68.2705 8.82824 68.225 8.6917 68.1339C8.55515 68.0429 8.41861 67.9519 8.28207 67.8153C8.19105 67.6333 8.10002 67.4967 8.00899 67.3602Z" fill="white"/>
<path d="M13.4706 63.6736C13.5161 63.6281 13.5617 63.5371 13.6072 63.4915C13.6527 63.446 13.6982 63.4005 13.7437 63.355C13.7892 63.3095 13.8803 63.264 13.9258 63.2185C14.1078 63.0819 14.3354 62.9909 14.563 62.9454C14.7905 62.8544 15.0636 62.8544 15.3367 62.8544C15.6098 62.8544 15.8829 62.8999 16.0649 62.9454C16.2925 63.0364 16.4745 63.1274 16.6111 63.264C16.7476 63.4005 16.8842 63.5371 16.9752 63.7191C17.0662 63.9012 17.1572 64.0832 17.2027 64.2653C17.2483 64.4473 17.2938 64.6749 17.3393 64.9025C17.3393 65.13 17.3848 65.3576 17.3848 65.5852V68.225H16.7021C16.6566 68.1794 16.6566 68.1339 16.6111 68.0884C16.5656 68.0429 16.5656 67.9519 16.5656 67.8609V67.6788C16.429 67.7698 16.2925 67.9064 16.1559 67.9519C16.0194 68.0429 15.8373 68.0884 15.7008 68.1339C15.5643 68.1794 15.3822 68.225 15.2457 68.2705C15.1091 68.316 14.9726 68.316 14.836 68.316H14.7905C14.563 68.316 14.2899 68.2705 14.1078 68.1795C13.8803 68.0884 13.6982 67.9974 13.5617 67.8609C13.4251 67.7243 13.2886 67.5423 13.1975 67.3602C13.1065 67.1782 13.061 66.9506 13.061 66.723C13.061 66.4499 13.1065 66.2224 13.1975 66.0403C13.2886 65.8127 13.4251 65.6762 13.6527 65.4941C13.8803 65.3121 14.1078 65.2211 14.4264 65.1755C14.745 65.0845 15.1091 65.039 15.5187 65.039C15.6553 65.039 15.7463 65.039 15.8829 65.039C16.0194 65.039 16.1104 65.039 16.2014 65.0845C16.2925 65.0845 16.3835 65.0845 16.4745 65.13C16.5656 65.13 16.6111 65.13 16.6111 65.13C16.6111 64.8114 16.5656 64.5839 16.4745 64.3563C16.3835 64.1742 16.2925 63.9922 16.2014 63.9012C16.1104 63.8101 15.9739 63.7191 15.8373 63.6736C15.7008 63.6281 15.5643 63.6281 15.3822 63.6281C15.2912 63.6281 15.2001 63.6281 15.1091 63.6281C15.0181 63.6281 14.9726 63.6736 14.8816 63.6736C14.836 63.7191 14.745 63.7191 14.6995 63.7646C14.654 63.8101 14.563 63.8101 14.5174 63.8557C14.4719 63.9012 14.4264 63.9012 14.3354 63.9467C14.2444 63.9467 14.1988 63.9922 14.1078 63.9922C14.0168 63.9922 13.9713 63.9922 13.8803 63.9467C13.7892 63.9012 13.7437 63.9012 13.6527 63.8101L13.4706 63.6736ZM14.836 67.4967C14.9726 67.4967 15.1091 67.4967 15.2457 67.4512C15.3822 67.4057 15.5643 67.4057 15.7008 67.3602C15.8373 67.3147 16.0194 67.2692 16.1559 67.1782C16.2925 67.1326 16.4745 67.0416 16.6111 66.9506V65.9493C16.6111 65.9493 16.5656 65.9493 16.4745 65.9493C16.3835 65.9493 16.338 65.9493 16.2014 65.9493C16.1104 65.9493 15.9739 65.9493 15.8829 65.9493C15.7463 65.9493 15.6553 65.9493 15.5187 65.9493C15.2912 65.9493 15.0636 65.9493 14.8816 65.9948C14.6995 66.0403 14.5174 66.0858 14.3809 66.1313C14.2444 66.2224 14.1078 66.3134 14.0168 66.4044C13.9258 66.4954 13.8803 66.632 13.8803 66.814C13.8803 66.9506 13.9258 67.0416 13.9713 67.1326C14.0168 67.2237 14.0623 67.3147 14.1533 67.3602C14.2444 67.4057 14.3354 67.4512 14.4719 67.4967C14.563 67.4967 14.6995 67.4967 14.836 67.4967Z" fill="white"/>
<path d="M22.9375 68.225C22.9375 68.225 22.892 68.1795 22.892 68.0884C22.8464 68.0429 22.8464 67.9519 22.8464 67.8153V67.5423C22.7554 67.6788 22.6189 67.8153 22.5278 67.9064C22.3913 67.9974 22.2548 68.0884 22.1182 68.1339C21.9817 68.1794 21.7996 68.225 21.6631 68.2705C21.481 68.316 21.3445 68.316 21.1624 68.316C20.8894 68.316 20.6163 68.2705 20.3432 68.1339C20.1156 68.0429 19.8881 67.8609 19.7515 67.6788C19.5695 67.4512 19.4329 67.2237 19.3419 66.9506C19.2509 66.6775 19.2054 66.3134 19.2054 65.9948V62.9454H20.0246V65.9948C20.0246 66.4954 20.1156 66.8596 20.2977 67.1326C20.4797 67.4057 20.7528 67.5423 21.1624 67.5423C21.39 67.5423 21.6176 67.4967 21.7996 67.4512C21.9817 67.4057 22.1637 67.3147 22.3003 67.2237C22.4368 67.1326 22.5734 66.9961 22.6644 66.9051C22.7554 66.7685 22.8009 66.632 22.8009 66.4954V62.9454H23.6202V68.2705H22.9375V68.225ZM21.39 62.1261C21.3445 62.1717 21.2535 62.2172 21.1624 62.2627C21.0714 62.3082 20.9804 62.3082 20.8438 62.3082H20.5708C20.6618 62.1261 20.7528 61.9896 20.8438 61.8075C20.9349 61.6255 21.0259 61.5345 21.0714 61.3979C21.1169 61.3069 21.208 61.2159 21.208 61.1248C21.2535 61.0793 21.2535 61.0338 21.299 61.0338C21.3445 60.9883 21.4355 60.8973 21.5265 60.8973C21.6176 60.8518 21.7086 60.8518 21.8451 60.8518H22.3003L21.39 62.1261Z" fill="white"/>
<path d="M29.628 68.225C29.5825 68.1794 29.5825 68.1794 29.5825 68.1339C29.5825 68.0884 29.5369 68.0429 29.5369 67.9974C29.5369 67.9519 29.4914 67.9064 29.4914 67.8153V67.6788C29.3549 67.8153 29.2184 67.9064 29.0818 67.9974C28.9453 68.0884 28.8087 68.1339 28.6722 68.1795C28.5356 68.225 28.3991 68.2705 28.3081 68.2705C28.1715 68.2705 28.0805 68.316 27.944 68.316C27.5799 68.316 27.2158 68.225 26.8972 68.0884C26.5786 67.9519 26.3055 67.7698 26.0779 67.4967C25.8503 67.2692 25.6683 66.9506 25.5317 66.632C25.3952 66.3134 25.3497 65.9493 25.3497 65.5852C25.3497 65.2211 25.3952 64.857 25.5317 64.5384C25.6683 64.2198 25.8503 63.9012 26.0779 63.6736C26.3055 63.446 26.5786 63.2185 26.8972 63.0819C27.2158 62.9454 27.5799 62.8544 27.944 62.8544C28.0805 62.8544 28.1715 62.8544 28.3081 62.8544C28.4446 62.8544 28.5812 62.8999 28.6722 62.9454C28.8087 62.9909 28.9453 63.0364 29.0818 63.1274C29.2184 63.2185 29.3549 63.3095 29.4914 63.446V60.9883H30.3107V68.225H29.628ZM27.944 63.6736C27.6709 63.6736 27.4433 63.7191 27.2157 63.8101C26.9882 63.9012 26.8061 64.0377 26.6241 64.2198C26.442 64.4018 26.351 64.5839 26.26 64.8114C26.1689 65.039 26.1234 65.2666 26.1234 65.5397C26.1234 65.8127 26.1689 66.0403 26.26 66.2679C26.351 66.4955 26.4875 66.723 26.6241 66.8596C26.8061 67.0416 26.9882 67.1782 27.2157 67.2692C27.4433 67.3602 27.6709 67.4057 27.944 67.4057C28.2171 67.4057 28.4901 67.3602 28.7632 67.2237C29.0363 67.0871 29.2639 66.9506 29.4914 66.723V64.2198C29.3094 63.9922 29.0363 63.8557 28.7632 63.7191C28.5356 63.7191 28.2171 63.6736 27.944 63.6736Z" fill="white"/>
<path d="M37.4108 65.0845C37.4108 65.1756 37.4108 65.2666 37.3653 65.3576C37.3198 65.4486 37.2743 65.5397 37.2288 65.5852C37.1832 65.6307 37.0922 65.6762 37.0012 65.7217C36.9102 65.7672 36.8646 65.7672 36.7736 65.7672H32.8594C32.905 65.9948 32.9505 66.2224 33.0415 66.4499C33.1325 66.6775 33.2691 66.8596 33.4511 66.9961C33.6332 67.1326 33.8152 67.2692 34.0428 67.3602C34.2704 67.4512 34.4979 67.4967 34.771 67.4967C34.9531 67.4967 35.0896 67.4512 35.2717 67.4057C35.4537 67.3602 35.6358 67.2692 35.7723 67.1782C35.8178 67.1326 35.8633 67.1326 35.9544 67.1326C35.9999 67.1326 36.0909 67.0871 36.1364 67.0871C36.2275 67.0871 36.273 67.0871 36.364 67.1326C36.455 67.1782 36.5005 67.1782 36.5461 67.2237L36.7736 67.4057C36.6371 67.5423 36.5005 67.6333 36.364 67.7698C36.2275 67.8609 36.0454 67.9519 35.8633 68.0429C35.6813 68.1339 35.4992 68.1795 35.3172 68.225C35.1351 68.2705 34.9531 68.2705 34.771 68.2705C34.4069 68.2705 34.0428 68.1795 33.7242 68.0429C33.4056 67.9064 33.087 67.7243 32.8594 67.4512C32.6319 67.1782 32.4043 66.9051 32.2678 66.5865C32.1312 66.2679 32.0402 65.9038 32.0402 65.5397C32.0402 65.1756 32.1312 64.8114 32.2678 64.4928C32.4043 64.1742 32.6319 63.8557 32.8594 63.6281C33.087 63.4005 33.4056 63.173 33.7242 63.0364C34.0428 62.8999 34.4069 62.8088 34.771 62.8088C35.0896 62.8088 35.3627 62.8544 35.6813 62.9454C35.9544 63.0364 36.2275 63.1729 36.455 63.355C36.6826 63.5371 36.8646 63.7646 37.0467 63.9922C37.2288 64.2198 37.3198 64.4928 37.4108 64.8114C37.4108 64.948 37.4108 65.039 37.4108 65.0845ZM36.5461 64.9935C36.5005 64.7659 36.4095 64.5839 36.273 64.4473C36.1364 64.2653 35.9999 64.1287 35.8633 64.0377C35.6813 63.9012 35.5447 63.8557 35.3172 63.7646C35.1351 63.7191 34.9076 63.6736 34.7255 63.6736C34.4979 63.6736 34.2704 63.7191 34.0428 63.8101C33.8152 63.9012 33.6332 63.9922 33.4966 64.1287C33.3146 64.2653 33.178 64.4473 33.087 64.6294C32.9505 64.8114 32.905 65.039 32.8594 65.2211C32.905 65.1756 32.905 65.13 32.9505 65.0845C32.996 65.039 33.0415 64.9935 33.1325 64.9935H36.5461Z" fill="white"/>
<path d="M42.2353 65.5852C42.2353 65.2211 42.3263 64.857 42.4628 64.5384C42.5994 64.2198 42.7814 63.9012 43.0545 63.6736C43.2821 63.446 43.6007 63.2185 43.9193 63.0819C44.2379 62.9454 44.602 62.8544 44.9661 62.8544C45.3302 62.8544 45.6943 62.9454 46.0129 63.0819C46.3315 63.2185 46.6501 63.4005 46.8777 63.6736C47.1052 63.9012 47.3328 64.2198 47.4693 64.5384C47.6059 64.857 47.6969 65.2211 47.6969 65.5852C47.6969 65.9493 47.6059 66.3134 47.4693 66.632C47.3328 66.9506 47.1507 67.2692 46.8777 67.4967C46.6046 67.7243 46.3315 67.9519 46.0129 68.0884C45.6943 68.225 45.3302 68.316 44.9661 68.316C44.602 68.316 44.2379 68.225 43.9193 68.0884C43.6007 67.9519 43.2821 67.7698 43.0545 67.4967C42.8269 67.2692 42.5994 66.9506 42.4628 66.632C42.3263 66.3134 42.2353 65.9493 42.2353 65.5852ZM43.0545 65.5852C43.0545 65.8583 43.1 66.0858 43.191 66.3589C43.2821 66.5865 43.4186 66.814 43.6007 66.9506C43.7827 67.1326 43.9648 67.2692 44.1923 67.3602C44.4199 67.4512 44.693 67.4967 44.9206 67.4967C45.1936 67.4967 45.4212 67.4512 45.6943 67.3602C45.9219 67.2692 46.1494 67.1326 46.286 66.9506C46.468 66.7685 46.6046 66.5865 46.6956 66.3589C46.7866 66.1313 46.8321 65.8583 46.8321 65.5852C46.8321 65.3121 46.7866 65.0845 46.6956 64.8114C46.6046 64.5839 46.468 64.3563 46.286 64.2198C46.1039 64.0377 45.9219 63.9012 45.6943 63.8101C45.4667 63.7191 45.1936 63.6736 44.9206 63.6736C44.6475 63.6736 44.4199 63.7191 44.1923 63.8101C43.9648 63.9012 43.7372 64.0377 43.6007 64.2198C43.4186 64.4018 43.2821 64.5839 43.191 64.8114C43.1 65.039 43.0545 65.3121 43.0545 65.5852Z" fill="white"/>
<path d="M53.2951 68.225C53.2496 68.1794 53.2496 68.1794 53.2496 68.1339C53.2496 68.0884 53.2041 68.0429 53.2041 67.9974C53.2041 67.9519 53.1585 67.9064 53.1585 67.8153V67.6788C53.022 67.8153 52.8855 67.9064 52.7489 67.9974C52.6124 68.0884 52.4758 68.1339 52.3393 68.1795C52.2028 68.225 52.0662 68.2705 51.9752 68.2705C51.8386 68.2705 51.7476 68.316 51.6111 68.316C51.247 68.316 50.8829 68.225 50.5643 68.0884C50.2457 67.9519 49.9726 67.7698 49.745 67.4967C49.5174 67.2692 49.3354 66.9506 49.1988 66.632C49.0623 66.3134 49.0168 65.9493 49.0168 65.5852C49.0168 65.2211 49.0623 64.857 49.1988 64.5384C49.3354 64.2198 49.5174 63.9012 49.745 63.6736C49.9726 63.446 50.2457 63.2185 50.5643 63.0819C50.8829 62.9454 51.247 62.8544 51.6111 62.8544C51.7476 62.8544 51.8386 62.8544 51.9752 62.8544C52.1117 62.8544 52.2483 62.8999 52.3393 62.9454C52.4758 62.9909 52.6124 63.0364 52.7489 63.1274C52.8855 63.2185 53.022 63.3095 53.1585 63.446V60.9883H53.9778V68.225H53.2951ZM51.6111 63.6736C51.338 63.6736 51.1104 63.7191 50.8829 63.8101C50.6553 63.9012 50.4732 64.0377 50.2912 64.2198C50.1091 64.4018 50.0181 64.5839 49.9271 64.8114C49.836 65.039 49.7905 65.2666 49.7905 65.5397C49.7905 65.8127 49.836 66.0403 49.9271 66.2679C50.0181 66.4955 50.1546 66.723 50.2912 66.8596C50.4732 67.0416 50.6553 67.1782 50.8829 67.2692C51.1104 67.3602 51.338 67.4057 51.6111 67.4057C51.8842 67.4057 52.1572 67.3602 52.4303 67.2237C52.7034 67.0871 52.931 66.9506 53.1585 66.723V64.2198C52.9765 63.9922 52.7034 63.8557 52.4303 63.7191C52.1572 63.7191 51.8842 63.6736 51.6111 63.6736Z" fill="white"/>
<path d="M55.6618 65.5852C55.6618 65.2211 55.7528 64.857 55.8894 64.5384C56.0259 64.2198 56.208 63.9012 56.481 63.6736C56.7086 63.446 57.0272 63.2185 57.3458 63.0819C57.6644 62.9454 58.0285 62.8544 58.3926 62.8544C58.7567 62.8544 59.1208 62.9454 59.4394 63.0819C59.758 63.2185 60.0766 63.4005 60.3042 63.6736C60.5318 63.9012 60.7593 64.2198 60.8959 64.5384C61.0324 64.857 61.1234 65.2211 61.1234 65.5852C61.1234 65.9493 61.0324 66.3134 60.8959 66.632C60.7593 66.9506 60.5773 67.2692 60.3042 67.4967C60.0311 67.7243 59.758 67.9519 59.4394 68.0884C59.1208 68.225 58.7567 68.316 58.3926 68.316C58.0285 68.316 57.6644 68.225 57.3458 68.0884C57.0272 67.9519 56.7086 67.7698 56.481 67.4967C56.2535 67.2692 56.0259 66.9506 55.8894 66.632C55.7073 66.3134 55.6618 65.9493 55.6618 65.5852ZM56.4355 65.5852C56.4355 65.8583 56.481 66.0858 56.5721 66.3589C56.6631 66.5865 56.7996 66.814 56.9817 66.9506C57.1637 67.1326 57.3458 67.2692 57.5734 67.3602C57.8009 67.4512 58.074 67.4967 58.3016 67.4967C58.5747 67.4967 58.8022 67.4512 59.0753 67.3602C59.3029 67.2692 59.5304 67.1326 59.667 66.9506C59.849 66.7685 59.9856 66.5865 60.0766 66.3589C60.1676 66.1313 60.2132 65.8583 60.2132 65.5852C60.2132 65.3121 60.1676 65.0845 60.0766 64.8114C59.9856 64.5839 59.849 64.3563 59.667 64.2198C59.4849 64.0377 59.3029 63.9012 59.0753 63.8101C58.8477 63.7191 58.5747 63.6736 58.3016 63.6736C58.0285 63.6736 57.8009 63.7191 57.5734 63.8101C57.3458 63.9012 57.1182 64.0377 56.9817 64.2198C56.7996 64.4018 56.6631 64.5839 56.5721 64.8114C56.5265 65.039 56.4355 65.3121 56.4355 65.5852Z" fill="white"/>
<path d="M63.4446 62.8999C63.4446 62.8999 63.4901 62.9454 63.4901 63.0364C63.4901 63.1274 63.5356 63.173 63.5356 63.3095V63.6281C63.6267 63.4915 63.7632 63.355 63.8542 63.264C63.9908 63.1729 64.1273 63.0819 64.2639 62.9909C64.4004 62.9454 64.5825 62.8544 64.719 62.8544C64.9011 62.8088 65.0376 62.8088 65.2197 62.8088C65.4927 62.8088 65.7658 62.8544 66.0389 62.9909C66.2665 63.0819 66.494 63.264 66.6306 63.446C66.8126 63.6736 66.9492 63.9012 67.0402 64.1742C67.1312 64.4473 67.1767 64.8114 67.1767 65.13V68.1795H66.3575V65.13C66.3575 64.6294 66.2665 64.2653 66.0844 63.9922C65.9023 63.7191 65.6293 63.5826 65.2197 63.5826C64.9921 63.5826 64.7645 63.6281 64.5825 63.6736C64.4004 63.7191 64.2184 63.8101 64.0818 63.9012C63.9453 63.9922 63.8087 64.1287 63.7177 64.2198C63.6267 64.3563 63.5812 64.4928 63.5812 64.6294V68.1795H62.7619V62.8544H63.4446V62.8999Z" fill="white"/>
<path d="M70.2717 66.9506C70.2717 66.9961 70.2717 67.0871 70.3172 67.1326C70.3172 67.2237 70.3627 67.2692 70.4082 67.3147C70.4537 67.3602 70.4992 67.4057 70.5903 67.4512C70.6358 67.4967 70.7268 67.4967 70.8178 67.4967H70.9544C71.0909 67.4512 71.2275 67.4512 71.3185 67.4512C71.455 67.4512 71.5461 67.4967 71.6371 67.5423C71.7281 67.5878 71.8191 67.6788 71.8647 67.7698L71.9557 67.8609C71.9102 67.9064 71.8191 67.9519 71.7281 67.9974C71.6371 68.0429 71.5461 68.0884 71.4095 68.1339C71.3185 68.1794 71.1819 68.1794 71.0909 68.225C70.9999 68.225 70.9089 68.2705 70.8178 68.2705C70.6358 68.2705 70.4537 68.225 70.2717 68.1795C70.0896 68.1339 69.9531 67.9974 69.8621 67.9064C69.7255 67.7698 69.68 67.6333 69.589 67.4967C69.5435 67.3147 69.4979 67.1326 69.4979 66.9506V63.7191H68.5877V63.355C68.5877 63.264 68.5877 63.2185 68.6332 63.173C68.6332 63.1274 68.6787 63.0819 68.7242 63.0364C68.7697 62.9909 68.8608 62.9909 68.9518 62.9454C69.0428 62.9454 69.1794 62.8999 69.3159 62.8999H69.5435V61.762C69.5435 61.671 69.5435 61.58 69.589 61.4889C69.589 61.3979 69.6345 61.3524 69.6345 61.2614C69.68 61.2159 69.68 61.1704 69.7255 61.1248C69.7255 61.0793 69.771 61.0793 69.771 61.0338H70.4082V62.8544H71.9557V63.6281H70.4082V66.9506H70.2717Z" fill="white"/>
<path d="M72.9115 65.5852C72.9115 65.2211 73.0025 64.857 73.139 64.5384C73.2756 64.2198 73.4576 63.9012 73.7307 63.6736C73.9583 63.446 74.2769 63.2185 74.5955 63.0819C74.9141 62.9454 75.2782 62.8544 75.6423 62.8544C76.0064 62.8544 76.3705 62.9454 76.6891 63.0819C77.0077 63.2185 77.3263 63.4005 77.5539 63.6736C77.7814 63.9012 78.009 64.2198 78.1455 64.5384C78.2821 64.857 78.3731 65.2211 78.3731 65.5852C78.3731 65.9493 78.2821 66.3134 78.1455 66.632C78.009 66.9506 77.8269 67.2692 77.5539 67.4967C77.2808 67.7243 77.0077 67.9519 76.6891 68.0884C76.3705 68.225 76.0064 68.316 75.6423 68.316C75.2782 68.316 74.9141 68.225 74.5955 68.0884C74.2769 67.9519 73.9583 67.7698 73.7307 67.4967C73.5032 67.2237 73.2756 66.9506 73.139 66.632C72.957 66.3134 72.9115 65.9493 72.9115 65.5852ZM73.7307 65.5852C73.7307 65.8583 73.7762 66.0858 73.8673 66.3589C73.9583 66.5865 74.0948 66.814 74.2769 66.9506C74.4589 67.1326 74.641 67.2692 74.8686 67.3602C75.0961 67.4512 75.3692 67.4967 75.5968 67.4967C75.8699 67.4967 76.0974 67.4512 76.3705 67.3602C76.5981 67.2692 76.8256 67.1326 76.9622 66.9506C77.1442 66.7685 77.2808 66.5865 77.3718 66.3589C77.4628 66.1313 77.5083 65.8583 77.5083 65.5852C77.5083 65.3121 77.4628 65.0845 77.3718 64.8114C77.2808 64.5839 77.1442 64.3563 76.9622 64.2198C76.7801 64.0377 76.5981 63.9012 76.3705 63.8101C76.1429 63.7191 75.8699 63.6736 75.5968 63.6736C75.3237 63.6736 75.0961 63.7191 74.8686 63.8101C74.641 63.9012 74.4134 64.0377 74.2769 64.2198C74.0948 64.4018 73.9583 64.5839 73.8673 64.8114C73.7762 65.039 73.7307 65.3121 73.7307 65.5852Z" fill="white"/>
<path d="M80.9219 60.9883V68.225H80.1026V60.9883H80.9219Z" fill="white"/>
<path d="M82.8334 65.5852C82.8334 65.2211 82.9245 64.857 83.061 64.5384C83.1975 64.2198 83.3796 63.9012 83.6527 63.6736C83.8802 63.446 84.1988 63.2185 84.5174 63.0819C84.836 62.9454 85.2001 62.8544 85.5642 62.8544C85.9284 62.8544 86.2925 62.9454 86.6111 63.0819C86.9297 63.2185 87.2483 63.4005 87.4758 63.6736C87.7034 63.9012 87.931 64.2198 88.0675 64.5384C88.204 64.857 88.2951 65.2211 88.2951 65.5852C88.2951 65.9493 88.204 66.3134 88.0675 66.632C87.931 66.9506 87.7489 67.2692 87.4758 67.4967C87.2027 67.7243 86.9297 67.9519 86.6111 68.0884C86.2925 68.225 85.9284 68.316 85.5642 68.316C85.2001 68.316 84.836 68.225 84.5174 68.0884C84.1988 67.9519 83.8802 67.7698 83.6527 67.4967C83.4251 67.2237 83.1975 66.9506 83.061 66.632C82.8789 66.3134 82.8334 65.9493 82.8334 65.5852ZM83.6072 65.5852C83.6072 65.8583 83.6527 66.0858 83.7437 66.3589C83.8347 66.5865 83.9713 66.814 84.1533 66.9506C84.3354 67.1326 84.5174 67.2692 84.745 67.3602C84.9726 67.4512 85.2457 67.4967 85.4732 67.4967C85.7463 67.4967 85.9739 67.4512 86.247 67.3602C86.4745 67.2692 86.7021 67.1326 86.8386 66.9506C87.0207 66.7685 87.1572 66.5865 87.2483 66.3589C87.3393 66.1313 87.3848 65.8583 87.3848 65.5852C87.3848 65.3121 87.3393 65.0845 87.2483 64.8114C87.1572 64.5839 87.0207 64.3563 86.8386 64.2198C86.6566 64.0377 86.4745 63.9012 86.247 63.8101C86.0194 63.7191 85.7463 63.6736 85.4732 63.6736C85.2001 63.6736 84.9726 63.7191 84.745 63.8101C84.5174 63.9012 84.2899 64.0377 84.1533 64.2198C83.9713 64.4018 83.8347 64.5839 83.7437 64.8114C83.6527 65.039 83.6072 65.3121 83.6072 65.5852ZM86.0649 62.1261C86.0194 62.1717 85.9284 62.2172 85.8373 62.2627C85.7463 62.3082 85.6553 62.3082 85.5187 62.3082H85.2001C85.2912 62.1261 85.3822 61.9896 85.4732 61.8075C85.5642 61.6255 85.6553 61.5345 85.7008 61.3979C85.7463 61.3069 85.8373 61.2159 85.8373 61.1248C85.8828 61.0793 85.8828 61.0338 85.9284 61.0338C85.9739 60.9883 86.0649 60.8973 86.1559 60.8973C86.247 60.8518 86.338 60.8518 86.4745 60.8518H86.9297L86.0649 62.1261Z" fill="white"/>
<path d="M94.2118 63.4916C94.1663 63.6281 94.0753 63.7191 93.9388 63.7646C93.8022 63.8101 93.6202 63.8557 93.3471 63.8557C93.3926 63.9012 93.4381 63.9922 93.4381 64.0832C93.4836 64.1743 93.4836 64.2653 93.5291 64.3108C93.5291 64.4018 93.5746 64.4928 93.5746 64.5384C93.5746 64.6294 93.5746 64.6749 93.5746 64.7659C93.5746 65.039 93.5291 65.3121 93.4381 65.5397C93.3471 65.7672 93.2105 65.9948 93.0285 66.1768C92.8464 66.3589 92.6644 66.4955 92.3913 66.5865C92.1182 66.6775 91.8907 66.723 91.6176 66.723C91.481 66.723 91.299 66.6775 91.1624 66.632C91.0259 66.5865 90.8438 66.541 90.7073 66.4955C90.5708 66.5865 90.4797 66.632 90.3887 66.723C90.3432 66.7685 90.2977 66.8596 90.2977 66.9051V66.9961C90.3432 67.0416 90.4342 67.1326 90.5708 67.1326C90.6618 67.1782 90.7983 67.1781 90.9349 67.2237C91.0714 67.2237 91.2079 67.2237 91.39 67.2237C91.5721 67.2237 91.7086 67.2237 91.8906 67.2237C92.0727 67.2237 92.2548 67.2237 92.3913 67.2692C92.5734 67.2692 92.7099 67.3147 92.8464 67.3602C93.1195 67.4512 93.3016 67.5878 93.4836 67.7698C93.6202 67.9519 93.7112 68.1794 93.7112 68.4525C93.7112 68.6801 93.6657 68.8622 93.5746 68.9987C93.4836 69.1808 93.3926 69.3173 93.2105 69.4083C93.074 69.5449 92.8464 69.6359 92.6189 69.6814C92.3913 69.7269 92.1182 69.7724 91.8451 69.7724C91.6176 69.7724 91.39 69.7724 91.1624 69.7269C90.9349 69.6814 90.7073 69.6359 90.5252 69.5904C90.2977 69.5449 90.1156 69.4538 89.9336 69.4083C89.7515 69.3628 89.5695 69.2718 89.3874 69.2263L89.4784 68.9532C89.4784 68.9077 89.5239 68.8622 89.5695 68.8166C89.615 68.7711 89.6605 68.7256 89.706 68.6801C89.7515 68.6346 89.797 68.6346 89.8881 68.5891C89.9336 68.5891 90.0246 68.5436 90.0701 68.5436C90.1611 68.5436 90.2522 68.5436 90.2977 68.5891C90.3887 68.5891 90.4342 68.6346 90.5252 68.6801C90.5708 68.6801 90.6163 68.7256 90.7073 68.7711C90.7983 68.8166 90.8894 68.8166 91.0259 68.8622C91.1624 68.9077 91.299 68.9077 91.4355 68.9532C91.572 68.9987 91.7541 68.9987 91.9362 68.9987C92.0272 68.9987 92.1182 68.9987 92.2548 68.9987C92.3913 68.9987 92.4823 68.9532 92.5733 68.9077C92.6644 68.8622 92.7554 68.8166 92.8464 68.7256C92.9375 68.6346 92.983 68.5436 92.983 68.4525C92.983 68.407 92.983 68.407 92.983 68.3615C92.983 68.316 92.983 68.316 92.9375 68.2705C92.9375 68.225 92.8919 68.225 92.8464 68.1795C92.8009 68.1339 92.7554 68.1339 92.7099 68.0884C92.5278 68.0429 92.3458 67.9974 92.1182 67.9974C91.8906 67.9974 91.7086 67.9974 91.481 67.9519C91.2535 67.9519 91.0714 67.9519 90.8438 67.9064C90.6163 67.8609 90.4342 67.8153 90.2522 67.7698C90.0701 67.6788 89.9336 67.5878 89.797 67.4512C89.6605 67.3147 89.615 67.1782 89.615 66.9506C89.615 66.9051 89.615 66.8596 89.6605 66.7685C89.6605 66.723 89.706 66.632 89.797 66.5865C89.8425 66.4955 89.9336 66.4499 90.0246 66.3589C90.1156 66.2679 90.2522 66.2224 90.3887 66.1313C90.2522 66.0403 90.1611 65.9038 90.0701 65.7672C89.9791 65.6307 89.9336 65.4942 89.8425 65.3576C89.797 65.2211 89.7515 65.0845 89.7515 64.9935C89.7515 64.857 89.706 64.7659 89.706 64.6749C89.706 64.4018 89.7515 64.1287 89.8425 63.9012C89.9336 63.6736 90.0701 63.446 90.2522 63.264C90.4342 63.0819 90.6163 62.9454 90.8894 62.8544C91.1169 62.7633 91.39 62.7178 91.6631 62.7178C91.8906 62.7178 92.0727 62.7633 92.3003 62.8088C92.5278 62.8999 92.7099 62.9909 92.8919 63.1274C92.983 63.0819 93.074 63.0364 93.165 62.9909C93.3016 62.9454 93.4381 62.9454 93.5746 62.9454C93.6657 62.9454 93.7567 62.9454 93.8932 62.9909C94.0298 63.0364 94.1663 63.0364 94.3029 63.0819L94.2118 63.4916ZM90.4797 64.8114C90.4797 64.9935 90.5252 65.13 90.5708 65.2666C90.6163 65.4031 90.7073 65.5397 90.7983 65.6307C90.8894 65.7217 91.0259 65.8127 91.1624 65.8583C91.299 65.9038 91.4355 65.9493 91.6176 65.9493C91.7996 65.9493 91.9362 65.9038 92.0727 65.8583C92.2092 65.8127 92.3458 65.7217 92.4368 65.6307C92.5278 65.5397 92.6189 65.4031 92.6644 65.2666C92.7099 65.13 92.7554 64.9935 92.7554 64.8114C92.7554 64.6294 92.7099 64.4928 92.6644 64.3563C92.6189 64.2198 92.5278 64.0832 92.4368 63.9922C92.3458 63.9012 92.2092 63.8101 92.0727 63.7646C91.9362 63.7191 91.7996 63.6736 91.6176 63.6736C91.4355 63.6736 91.299 63.7191 91.1624 63.7646C91.0259 63.8101 90.8894 63.9012 90.7983 63.9922C90.7073 64.0832 90.6163 64.2198 90.5708 64.3563C90.5252 64.4928 90.4797 64.6294 90.4797 64.8114Z" fill="white"/>
<path d="M95.6228 61.4889C95.6228 61.3979 95.6228 61.3069 95.6683 61.2614C95.7138 61.1704 95.7593 61.1248 95.8048 61.0793C95.8503 61.0338 95.9414 60.9883 95.9869 60.9428C96.0779 60.8973 96.1234 60.8973 96.2145 60.8973C96.3055 60.8973 96.3965 60.8973 96.442 60.9428C96.5331 60.9883 96.5786 61.0338 96.6241 61.0793C96.6696 61.1248 96.7151 61.2159 96.7606 61.2614C96.8061 61.3524 96.8061 61.3979 96.8061 61.4889C96.8061 61.58 96.8061 61.671 96.7606 61.7165C96.7151 61.8075 96.6696 61.8531 96.6241 61.8986C96.5786 61.9441 96.4875 61.9896 96.442 62.0351C96.351 62.0806 96.3055 62.0806 96.2145 62.0806C96.1234 62.0806 96.0324 62.0806 95.9869 62.0351C95.8959 61.9896 95.8503 61.9441 95.8048 61.8986C95.7593 61.8531 95.7138 61.762 95.6683 61.7165C95.6228 61.671 95.6228 61.58 95.6228 61.4889ZM96.6241 62.8999V68.225H95.8048V62.8999H96.6241Z" fill="white"/>
<path d="M101.266 63.6281C100.993 63.6281 100.766 63.6736 100.493 63.7646C100.265 63.8557 100.038 63.9922 99.9011 64.1743C99.719 64.3563 99.5825 64.5384 99.4914 64.7659C99.4004 64.9935 99.3549 65.2666 99.3549 65.5397C99.3549 65.8127 99.4004 66.0403 99.4914 66.3134C99.5825 66.541 99.719 66.7685 99.9011 66.9051C100.083 67.0871 100.265 67.2237 100.493 67.3147C100.72 67.4057 100.993 67.4512 101.266 67.4512C101.449 67.4512 101.585 67.4512 101.767 67.4057C101.949 67.3602 102.086 67.3147 102.222 67.2237C102.268 67.1782 102.359 67.1782 102.404 67.1326C102.45 67.1326 102.541 67.0871 102.586 67.0871C102.677 67.0871 102.768 67.0871 102.859 67.1326C102.95 67.1782 102.996 67.2237 103.087 67.3147L103.224 67.4512C103.133 67.5878 102.996 67.6788 102.859 67.7698C102.723 67.8609 102.586 67.9519 102.404 68.0429C102.222 68.1339 102.086 68.1795 101.858 68.225C101.676 68.2705 101.494 68.2705 101.312 68.2705C100.948 68.2705 100.584 68.1795 100.265 68.0429C99.9466 67.9064 99.628 67.7243 99.4004 67.4512C99.1728 67.2237 98.9453 66.9051 98.8087 66.5865C98.6722 66.2679 98.5811 65.9038 98.5811 65.5397C98.5811 65.1756 98.6722 64.8114 98.8087 64.4928C98.9453 64.1742 99.1273 63.8557 99.4004 63.6281C99.628 63.4005 99.9466 63.173 100.265 63.0364C100.584 62.8999 100.948 62.8088 101.312 62.8088C101.494 62.8088 101.676 62.8088 101.858 62.8544C102.04 62.8999 102.222 62.9454 102.359 63.0364C102.541 63.1274 102.677 63.173 102.814 63.3095C102.95 63.4005 103.087 63.5371 103.224 63.6281L103.087 63.7646C102.996 63.8557 102.95 63.9012 102.859 63.9467C102.768 63.9922 102.677 63.9922 102.586 63.9922C102.45 63.9922 102.359 63.9467 102.268 63.9012C102.131 63.8101 101.995 63.7646 101.813 63.7191C101.585 63.6736 101.449 63.6736 101.266 63.6281Z" fill="white"/>
<path d="M104.726 63.6736C104.771 63.6281 104.817 63.5371 104.862 63.4915C104.908 63.446 104.953 63.4005 104.999 63.355C105.044 63.3095 105.135 63.264 105.181 63.2185C105.363 63.0819 105.59 62.9909 105.818 62.9454C106.045 62.8544 106.318 62.8544 106.592 62.8544C106.865 62.8544 107.138 62.8999 107.32 62.9454C107.547 63.0364 107.729 63.1274 107.866 63.264C108.002 63.4005 108.139 63.5371 108.23 63.7191C108.321 63.9012 108.412 64.0832 108.458 64.2653C108.503 64.4473 108.549 64.6749 108.594 64.9025C108.594 65.13 108.64 65.3576 108.64 65.5852V68.225H107.957C107.911 68.1794 107.911 68.1339 107.866 68.0884C107.82 68.0429 107.82 67.9519 107.82 67.8609V67.6788C107.684 67.7698 107.547 67.9064 107.411 67.9519C107.274 68.0429 107.092 68.0884 106.956 68.1339C106.819 68.1794 106.637 68.225 106.501 68.2705C106.364 68.316 106.227 68.316 106.091 68.316H106.045C105.818 68.316 105.545 68.2705 105.363 68.1795C105.135 68.0884 104.953 67.9974 104.817 67.8609C104.68 67.7243 104.543 67.5423 104.452 67.3602C104.361 67.1782 104.316 66.9506 104.316 66.723C104.316 66.4499 104.361 66.2224 104.452 66.0403C104.543 65.8127 104.68 65.6762 104.908 65.4941C105.135 65.3121 105.363 65.2211 105.681 65.1755C106 65.0845 106.364 65.039 106.774 65.039C106.91 65.039 107.001 65.039 107.138 65.039C107.274 65.039 107.365 65.039 107.456 65.0845C107.547 65.0845 107.638 65.0845 107.729 65.13C107.82 65.13 107.866 65.13 107.866 65.13C107.866 64.8114 107.82 64.5839 107.729 64.3563C107.638 64.1742 107.547 63.9922 107.456 63.9012C107.365 63.8101 107.229 63.7191 107.092 63.6736C106.956 63.6281 106.819 63.6281 106.637 63.6281C106.546 63.6281 106.455 63.6281 106.364 63.6281C106.273 63.6281 106.227 63.6736 106.136 63.6736C106.091 63.7191 106 63.7191 105.954 63.7646C105.909 63.8101 105.818 63.8101 105.772 63.8557C105.727 63.9012 105.681 63.9012 105.59 63.9467C105.499 63.9467 105.454 63.9922 105.363 63.9922C105.272 63.9922 105.226 63.9922 105.135 63.9467C105.044 63.9012 104.999 63.9012 104.908 63.8101L104.726 63.6736ZM106.091 67.4967C106.227 67.4967 106.364 67.4967 106.501 67.4512C106.637 67.4057 106.819 67.4057 106.956 67.3602C107.092 67.3147 107.274 67.2692 107.411 67.1782C107.547 67.1326 107.729 67.0416 107.866 66.9506V65.9493C107.866 65.9493 107.82 65.9493 107.729 65.9493C107.638 65.9493 107.593 65.9493 107.456 65.9493C107.365 65.9493 107.229 65.9493 107.138 65.9493C107.001 65.9493 106.91 65.9493 106.774 65.9493C106.546 65.9493 106.318 65.9493 106.136 65.9948C105.954 66.0403 105.772 66.0858 105.636 66.1313C105.499 66.2224 105.363 66.3134 105.272 66.4044C105.181 66.4954 105.135 66.632 105.135 66.814C105.135 66.9506 105.181 67.0416 105.226 67.1326C105.272 67.2237 105.317 67.3147 105.408 67.3602C105.499 67.4057 105.59 67.4512 105.727 67.4967C105.818 67.4967 105.954 67.4967 106.091 67.4967Z" fill="white"/>
<path d="M119.199 65.0845C119.199 65.1756 119.199 65.2666 119.153 65.3576C119.108 65.4486 119.062 65.5397 119.017 65.5852C118.971 65.6307 118.88 65.6762 118.789 65.7217C118.698 65.7672 118.653 65.7672 118.562 65.7672H114.647C114.693 65.9948 114.739 66.2224 114.83 66.4499C114.921 66.6775 115.057 66.8596 115.239 66.9961C115.421 67.1326 115.603 67.2692 115.831 67.3602C116.058 67.4512 116.286 67.4967 116.559 67.4967C116.741 67.4967 116.878 67.4512 117.06 67.4057C117.242 67.3602 117.424 67.2692 117.56 67.1782C117.606 67.1326 117.651 67.1326 117.742 67.1326C117.788 67.1326 117.879 67.0871 117.924 67.0871C118.015 67.0871 118.061 67.0871 118.152 67.1326C118.243 67.1782 118.289 67.1782 118.334 67.2237L118.562 67.4057C118.425 67.5423 118.289 67.6333 118.152 67.7698C118.015 67.8609 117.833 67.9519 117.651 68.0429C117.469 68.1339 117.287 68.1795 117.105 68.225C116.923 68.2705 116.741 68.2705 116.559 68.2705C116.195 68.2705 115.831 68.1795 115.512 68.0429C115.194 67.9064 114.875 67.7243 114.647 67.4512C114.42 67.2237 114.192 66.9051 114.056 66.5865C113.919 66.2679 113.828 65.9038 113.828 65.5397C113.828 65.1756 113.919 64.8114 114.056 64.4928C114.192 64.1742 114.42 63.8557 114.647 63.6281C114.875 63.4005 115.194 63.173 115.512 63.0364C115.831 62.8999 116.195 62.8088 116.559 62.8088C116.878 62.8088 117.151 62.8544 117.469 62.9454C117.788 63.0364 118.015 63.1729 118.243 63.355C118.471 63.5371 118.653 63.7646 118.835 63.9922C119.017 64.2198 119.108 64.4928 119.199 64.8114C119.199 64.948 119.199 65.039 119.199 65.0845ZM118.38 64.9935C118.334 64.7659 118.243 64.5839 118.106 64.4473C117.97 64.2653 117.833 64.1287 117.697 64.0377C117.515 63.9012 117.378 63.8557 117.151 63.7646C116.969 63.7191 116.741 63.6736 116.559 63.6736C116.331 63.6736 116.104 63.7191 115.876 63.8101C115.649 63.9012 115.467 63.9922 115.33 64.1287C115.148 64.2653 115.012 64.4473 114.921 64.6294C114.784 64.8114 114.738 65.039 114.693 65.2211C114.738 65.1756 114.738 65.13 114.784 65.0845C114.83 65.039 114.875 64.9935 114.966 64.9935H118.38Z" fill="white"/>
<path d="M129.485 65.0845C129.485 65.1756 129.485 65.2666 129.439 65.3576C129.394 65.4486 129.348 65.5397 129.303 65.5852C129.257 65.6307 129.166 65.6762 129.075 65.7217C128.984 65.7672 128.939 65.7672 128.848 65.7672H124.934C124.979 65.9948 125.025 66.2224 125.116 66.4499C125.207 66.6775 125.343 66.8596 125.525 66.9961C125.707 67.1326 125.889 67.2692 126.117 67.3602C126.344 67.4512 126.572 67.4967 126.845 67.4967C127.027 67.4967 127.164 67.4512 127.346 67.4057C127.528 67.3602 127.71 67.2692 127.846 67.1782C127.892 67.1326 127.937 67.1326 128.028 67.1326C128.074 67.1326 128.165 67.0871 128.211 67.0871C128.302 67.0871 128.347 67.0871 128.438 67.1326C128.529 67.1782 128.575 67.1782 128.62 67.2237L128.848 67.4057C128.711 67.5423 128.575 67.6333 128.438 67.7698C128.302 67.8609 128.12 67.9519 127.937 68.0429C127.755 68.1339 127.573 68.1795 127.391 68.225C127.209 68.2705 127.027 68.2705 126.845 68.2705C126.481 68.2705 126.117 68.1795 125.798 68.0429C125.48 67.9064 125.161 67.7243 124.934 67.4512C124.706 67.2237 124.478 66.9051 124.342 66.5865C124.205 66.2679 124.114 65.9038 124.114 65.5397C124.114 65.1756 124.205 64.8114 124.342 64.4928C124.478 64.1742 124.706 63.8557 124.934 63.6281C125.161 63.4005 125.48 63.173 125.798 63.0364C126.117 62.8999 126.481 62.8088 126.845 62.8088C127.164 62.8088 127.437 62.8544 127.755 62.9454C128.074 63.0364 128.302 63.1729 128.529 63.355C128.757 63.5371 128.939 63.7646 129.121 63.9922C129.303 64.2198 129.394 64.4928 129.485 64.8114C129.439 64.948 129.485 65.039 129.485 65.0845ZM128.62 64.9935C128.575 64.7659 128.484 64.5839 128.347 64.4473C128.211 64.2653 128.074 64.1287 127.937 64.0377C127.755 63.9012 127.619 63.8557 127.391 63.7646C127.209 63.7191 126.982 63.6736 126.8 63.6736C126.572 63.6736 126.344 63.7191 126.117 63.8101C125.889 63.9012 125.707 63.9922 125.571 64.1287C125.389 64.2653 125.252 64.4473 125.161 64.6294C125.025 64.8114 124.979 65.039 124.934 65.2211C124.979 65.1756 124.979 65.13 125.025 65.0845C125.07 65.039 125.116 64.9935 125.207 64.9935H128.62Z" fill="white"/>
<path d="M130.577 67.3602C130.714 67.3147 130.805 67.2692 130.896 67.2237C130.987 67.1781 131.078 67.1782 131.169 67.1782C131.214 67.1782 131.305 67.1781 131.396 67.2237C131.488 67.2692 131.579 67.3147 131.67 67.3602C131.761 67.4057 131.852 67.4512 131.943 67.4967C132.034 67.5423 132.17 67.5423 132.261 67.5423C132.398 67.5423 132.489 67.5423 132.625 67.4967C132.762 67.4512 132.853 67.4057 132.944 67.3147C133.035 67.2237 133.126 67.1326 133.172 67.0416C133.217 66.9506 133.263 66.814 133.263 66.6775C133.263 66.5865 133.263 66.4954 133.217 66.4044C133.172 66.3134 133.126 66.2679 133.035 66.1768C132.944 66.1313 132.853 66.0403 132.716 65.9948C132.58 65.9493 132.443 65.8583 132.216 65.8127H132.17C131.988 65.7672 131.806 65.6762 131.624 65.5852C131.442 65.4941 131.305 65.4031 131.169 65.3121C131.032 65.1755 130.896 65.039 130.85 64.9025C130.759 64.7204 130.714 64.5384 130.714 64.2653C130.714 64.0377 130.759 63.8557 130.85 63.7191C130.941 63.5371 131.078 63.4005 131.214 63.264C131.351 63.1274 131.533 63.0364 131.715 62.9909C131.897 62.9454 132.079 62.8999 132.261 62.8999C132.443 62.8999 132.625 62.9454 132.807 62.9909C132.944 63.0364 133.126 63.1274 133.217 63.2185C133.354 63.3095 133.445 63.4005 133.536 63.4915C133.627 63.5826 133.672 63.6281 133.718 63.6736L133.536 63.8101C133.49 63.8557 133.399 63.9012 133.308 63.9467C133.217 63.9922 133.172 63.9922 133.081 63.9922C133.035 63.9922 132.944 63.9922 132.898 63.9467C132.807 63.9012 132.762 63.9012 132.671 63.8557C132.58 63.8101 132.534 63.8101 132.443 63.7646C132.352 63.7191 132.307 63.7191 132.216 63.7191C132.079 63.7191 131.943 63.7191 131.852 63.7646C131.761 63.8101 131.67 63.8557 131.624 63.9012C131.579 63.9467 131.533 64.0377 131.488 64.0832C131.442 64.1287 131.442 64.2198 131.442 64.2198C131.442 64.3563 131.488 64.4473 131.533 64.5384C131.579 64.6294 131.67 64.6749 131.761 64.7659C131.852 64.8114 131.943 64.857 132.079 64.9025C132.17 64.948 132.307 64.9935 132.443 65.039C132.625 65.0845 132.853 65.1755 133.035 65.2666C133.217 65.3576 133.399 65.4486 133.536 65.5852C133.672 65.7217 133.809 65.8583 133.9 66.0403C133.991 66.2224 134.036 66.4044 134.036 66.6775C134.036 66.9051 133.991 67.1326 133.9 67.3147C133.809 67.4967 133.672 67.6788 133.536 67.8609C133.354 67.9974 133.172 68.1339 132.944 68.225C132.716 68.316 132.489 68.3615 132.216 68.3615C132.034 68.3615 131.897 68.3615 131.715 68.316C131.533 68.2705 131.397 68.225 131.26 68.1339C131.123 68.0429 130.987 67.9519 130.85 67.8153C130.759 67.6333 130.668 67.4967 130.577 67.3602Z" fill="white"/>
<path d="M136.631 62.8999C136.631 62.8999 136.676 62.9454 136.676 63.0364C136.676 63.1274 136.722 63.1729 136.722 63.264V63.5826C136.767 63.4915 136.813 63.4005 136.858 63.355C136.949 63.264 136.995 63.2185 137.086 63.173C137.177 63.1274 137.268 63.0819 137.404 63.0364C137.495 62.9909 137.632 62.9909 137.723 62.9454C137.814 62.8999 137.905 62.8999 137.996 62.8999C138.087 62.8999 138.178 62.8999 138.224 62.8999C138.588 62.8999 138.952 62.9909 139.27 63.1274C139.589 63.264 139.862 63.446 140.09 63.7191C140.317 63.9467 140.499 64.2653 140.636 64.5839C140.772 64.9025 140.818 65.2666 140.818 65.6307C140.818 65.9948 140.772 66.3589 140.636 66.6775C140.499 66.9961 140.317 67.3147 140.09 67.5423C139.862 67.7698 139.589 67.9974 139.27 68.1339C138.952 68.2705 138.588 68.3615 138.224 68.3615C138.087 68.3615 137.996 68.3615 137.859 68.316C137.723 68.316 137.586 68.2705 137.45 68.225C137.313 68.1794 137.177 68.0884 137.04 67.9974C136.904 67.9064 136.767 67.7698 136.631 67.6333V70.0455H135.811V62.9454H136.631V62.8999ZM138.269 67.4967C138.542 67.4967 138.77 67.4512 138.997 67.3602C139.225 67.2692 139.407 67.1326 139.589 66.9506C139.771 66.7685 139.862 66.5865 139.953 66.3589C140.044 66.1313 140.09 65.8583 140.09 65.5852C140.09 65.3121 140.044 65.0845 139.953 64.8114C139.862 64.5839 139.725 64.3563 139.589 64.2198C139.407 64.0377 139.225 63.9012 138.997 63.8101C138.77 63.7191 138.542 63.6736 138.269 63.6736C137.996 63.6736 137.723 63.7191 137.45 63.8557C137.177 63.9922 136.949 64.1287 136.722 64.3563V66.7685C136.813 66.9051 136.904 66.9961 137.04 67.0871C137.177 67.1781 137.268 67.2692 137.404 67.3147C137.541 67.3602 137.677 67.4512 137.814 67.4512C137.996 67.4967 138.133 67.4967 138.269 67.4967Z" fill="white"/>
<path d="M147.508 65.0845C147.508 65.1756 147.508 65.2666 147.463 65.3576C147.417 65.4486 147.372 65.5397 147.326 65.5852C147.281 65.6307 147.19 65.6762 147.099 65.7217C147.008 65.7672 146.962 65.7672 146.871 65.7672H142.957C143.002 65.9948 143.048 66.2224 143.139 66.4499C143.23 66.6775 143.367 66.8596 143.549 66.9961C143.731 67.1326 143.913 67.2692 144.14 67.3602C144.368 67.4512 144.595 67.4967 144.869 67.4967C145.051 67.4967 145.187 67.4512 145.369 67.4057C145.551 67.3602 145.733 67.2692 145.87 67.1782C145.915 67.1326 145.961 67.1326 146.052 67.1326C146.097 67.1326 146.188 67.0871 146.234 67.0871C146.325 67.0871 146.37 67.0871 146.462 67.1326C146.553 67.1782 146.598 67.1782 146.644 67.2237L146.871 67.4057C146.735 67.5423 146.598 67.6333 146.462 67.7698C146.325 67.8609 146.143 67.9519 145.961 68.0429C145.779 68.1339 145.597 68.1795 145.415 68.225C145.233 68.2705 145.051 68.2705 144.869 68.2705C144.504 68.2705 144.14 68.1795 143.822 68.0429C143.503 67.9064 143.185 67.7243 142.957 67.4512C142.729 67.2237 142.502 66.9051 142.365 66.5865C142.229 66.2679 142.138 65.9038 142.138 65.5397C142.138 65.1756 142.229 64.8114 142.365 64.4928C142.502 64.1742 142.729 63.8557 142.957 63.6281C143.185 63.4005 143.503 63.173 143.822 63.0364C144.14 62.8999 144.504 62.8088 144.869 62.8088C145.187 62.8088 145.46 62.8544 145.779 62.9454C146.097 63.0364 146.325 63.1729 146.553 63.355C146.78 63.5371 146.962 63.7646 147.144 63.9922C147.326 64.2198 147.417 64.4928 147.508 64.8114C147.508 64.948 147.508 65.039 147.508 65.0845ZM146.644 64.9935C146.598 64.7659 146.507 64.5839 146.37 64.4473C146.234 64.2653 146.097 64.1287 145.961 64.0377C145.779 63.9012 145.642 63.8557 145.415 63.7646C145.233 63.7191 145.005 63.6736 144.823 63.6736C144.595 63.6736 144.368 63.7191 144.14 63.8101C143.913 63.9012 143.731 63.9922 143.594 64.1287C143.412 64.2653 143.276 64.4473 143.185 64.6294C143.048 64.8114 143.002 65.039 142.957 65.2211C143.002 65.1756 143.002 65.13 143.048 65.0845C143.094 65.039 143.139 64.9935 143.23 64.9935H146.644Z" fill="white"/>
<path d="M151.514 63.6281C151.24 63.6281 151.013 63.6736 150.74 63.7646C150.512 63.8557 150.285 63.9922 150.148 64.1743C149.966 64.3563 149.83 64.5384 149.738 64.7659C149.647 64.9935 149.602 65.2666 149.602 65.5397C149.602 65.8127 149.647 66.0403 149.738 66.3134C149.83 66.541 149.966 66.7685 150.148 66.9051C150.33 67.0871 150.512 67.2237 150.74 67.3147C150.967 67.4057 151.24 67.4512 151.514 67.4512C151.696 67.4512 151.832 67.4512 152.014 67.4057C152.196 67.3602 152.333 67.3147 152.469 67.2237C152.515 67.1782 152.606 67.1782 152.651 67.1326C152.697 67.1326 152.788 67.0871 152.833 67.0871C152.924 67.0871 153.015 67.0871 153.107 67.1326C153.198 67.1782 153.243 67.2237 153.334 67.3147L153.471 67.4512C153.38 67.5878 153.243 67.6788 153.107 67.7698C152.97 67.8609 152.833 67.9519 152.651 68.0429C152.469 68.1339 152.333 68.1795 152.105 68.225C151.923 68.2705 151.741 68.2705 151.559 68.2705C151.195 68.2705 150.831 68.1795 150.512 68.0429C150.194 67.9064 149.875 67.7243 149.647 67.4512C149.42 67.2237 149.192 66.9051 149.056 66.5865C148.919 66.2679 148.828 65.9038 148.828 65.5397C148.828 65.1756 148.919 64.8114 149.056 64.4928C149.192 64.1742 149.374 63.8557 149.647 63.6281C149.875 63.4005 150.194 63.173 150.512 63.0364C150.831 62.8999 151.195 62.8088 151.559 62.8088C151.741 62.8088 151.923 62.8088 152.105 62.8544C152.287 62.8999 152.469 62.9454 152.606 63.0364C152.788 63.1274 152.924 63.173 153.061 63.3095C153.198 63.4005 153.334 63.5371 153.471 63.6281L153.334 63.7646C153.243 63.8557 153.198 63.9012 153.107 63.9467C153.015 63.9922 152.924 63.9922 152.833 63.9922C152.697 63.9922 152.606 63.9467 152.515 63.9012C152.378 63.8101 152.242 63.7646 152.06 63.7191C151.832 63.6736 151.65 63.6736 151.514 63.6281Z" fill="white"/>
<path d="M154.745 61.4889C154.745 61.3979 154.745 61.3069 154.79 61.2614C154.836 61.1704 154.882 61.1248 154.927 61.0793C154.973 61.0338 155.064 60.9883 155.109 60.9428C155.2 60.8973 155.246 60.8973 155.337 60.8973C155.428 60.8973 155.519 60.8973 155.564 60.9428C155.655 60.9883 155.701 61.0338 155.746 61.0793C155.792 61.1248 155.837 61.2159 155.883 61.2614C155.928 61.3524 155.928 61.3979 155.928 61.4889C155.928 61.58 155.928 61.671 155.883 61.7165C155.837 61.8075 155.792 61.8531 155.746 61.8986C155.701 61.9441 155.61 61.9896 155.564 62.0351C155.473 62.0806 155.428 62.0806 155.337 62.0806C155.246 62.0806 155.155 62.0806 155.109 62.0351C155.018 61.9896 154.973 61.9441 154.927 61.8986C154.882 61.8531 154.836 61.762 154.79 61.7165C154.745 61.671 154.745 61.58 154.745 61.4889ZM155.746 62.8999V68.225H154.927V62.8999H155.746Z" fill="white"/>
<path d="M158.159 63.6736C158.204 63.6281 158.25 63.5371 158.295 63.4915C158.341 63.446 158.386 63.4005 158.432 63.355C158.477 63.3095 158.568 63.264 158.614 63.2185C158.796 63.0819 159.023 62.9909 159.251 62.9454C159.478 62.8544 159.751 62.8544 160.025 62.8544C160.298 62.8544 160.571 62.8999 160.753 62.9454C160.98 63.0364 161.162 63.1274 161.299 63.264C161.436 63.4005 161.572 63.5371 161.663 63.7191C161.754 63.9012 161.845 64.0832 161.891 64.2653C161.936 64.4473 161.982 64.6749 162.027 64.9025C162.027 65.13 162.073 65.3576 162.073 65.5852V68.225H161.39C161.344 68.1794 161.344 68.1339 161.299 68.0884C161.253 68.0429 161.253 67.9519 161.253 67.8609V67.6788C161.117 67.7698 160.98 67.9064 160.844 67.9519C160.707 68.0429 160.525 68.0884 160.389 68.1339C160.252 68.1794 160.07 68.225 159.934 68.2705C159.797 68.316 159.66 68.316 159.524 68.316H159.478C159.251 68.316 158.978 68.2705 158.796 68.1795C158.568 68.0884 158.386 67.9974 158.25 67.8609C158.113 67.7243 157.976 67.5423 157.885 67.3602C157.794 67.1782 157.749 66.9506 157.749 66.723C157.749 66.4499 157.794 66.2224 157.885 66.0403C157.976 65.8127 158.113 65.6762 158.341 65.4941C158.523 65.3576 158.796 65.2211 159.114 65.1755C159.433 65.0845 159.797 65.039 160.207 65.039C160.343 65.039 160.434 65.039 160.571 65.039C160.707 65.039 160.798 65.039 160.889 65.0845C160.98 65.0845 161.071 65.0845 161.162 65.13C161.253 65.13 161.299 65.13 161.299 65.13C161.299 64.8114 161.253 64.5839 161.162 64.3563C161.071 64.1742 160.98 63.9922 160.889 63.9012C160.798 63.8101 160.662 63.7191 160.525 63.6736C160.389 63.6281 160.252 63.6281 160.07 63.6281C159.979 63.6281 159.888 63.6281 159.797 63.6281C159.706 63.6281 159.66 63.6736 159.569 63.6736C159.524 63.7191 159.433 63.7191 159.387 63.7646C159.342 63.8101 159.251 63.8101 159.205 63.8557C159.16 63.9012 159.114 63.9012 159.023 63.9467C158.932 63.9467 158.887 63.9922 158.796 63.9922C158.705 63.9922 158.659 63.9922 158.568 63.9467C158.477 63.9012 158.432 63.9012 158.341 63.8101L158.159 63.6736ZM159.524 67.4967C159.66 67.4967 159.797 67.4967 159.934 67.4512C160.07 67.4057 160.252 67.4057 160.389 67.3602C160.525 67.3147 160.707 67.2692 160.844 67.1782C160.98 67.1326 161.162 67.0416 161.299 66.9506V65.9493C161.299 65.9493 161.253 65.9493 161.162 65.9493C161.071 65.9493 161.026 65.9493 160.889 65.9493C160.798 65.9493 160.662 65.9493 160.571 65.9493C160.434 65.9493 160.343 65.9493 160.207 65.9493C159.979 65.9493 159.751 65.9493 159.569 65.9948C159.387 66.0403 159.205 66.0858 159.069 66.1313C158.932 66.2224 158.796 66.3134 158.705 66.4044C158.614 66.4954 158.568 66.632 158.568 66.814C158.568 66.9506 158.614 67.0416 158.659 67.1326C158.705 67.2237 158.75 67.3147 158.841 67.3602C158.932 67.4057 159.023 67.4512 159.16 67.4967C159.251 67.4967 159.387 67.4967 159.524 67.4967Z" fill="white"/>
<path d="M164.895 60.9883V68.225H164.075V60.9883H164.895Z" fill="white"/>
<path d="M167.079 61.4889C167.079 61.3979 167.079 61.3069 167.125 61.2614C167.17 61.1704 167.216 61.1248 167.261 61.0793C167.307 61.0338 167.398 60.9883 167.443 60.9428C167.534 60.8973 167.58 60.8973 167.671 60.8973C167.762 60.8973 167.853 60.8973 167.898 60.9428C167.989 60.9883 168.035 61.0338 168.08 61.0793C168.126 61.1248 168.172 61.2159 168.217 61.2614C168.263 61.3524 168.263 61.3979 168.263 61.4889C168.263 61.58 168.263 61.671 168.217 61.7165C168.172 61.8075 168.126 61.8531 168.08 61.8986C168.035 61.9441 167.944 61.9896 167.898 62.0351C167.807 62.0806 167.762 62.0806 167.671 62.0806C167.58 62.0806 167.489 62.0806 167.443 62.0351C167.352 61.9896 167.307 61.9441 167.261 61.8986C167.216 61.8531 167.17 61.762 167.125 61.7165C167.125 61.671 167.079 61.58 167.079 61.4889ZM168.126 62.8999V68.225H167.307V62.8999H168.126Z" fill="white"/>
<path d="M174.316 68.225C174.27 68.1794 174.27 68.1794 174.27 68.1339C174.27 68.0884 174.225 68.0429 174.225 67.9974C174.225 67.9519 174.179 67.9064 174.179 67.8153V67.6788C174.043 67.8153 173.906 67.9064 173.77 67.9974C173.633 68.0884 173.497 68.1339 173.36 68.1795C173.224 68.225 173.087 68.2705 172.996 68.2705C172.859 68.2705 172.768 68.316 172.632 68.316C172.268 68.316 171.904 68.225 171.585 68.0884C171.266 67.9519 170.993 67.7698 170.766 67.4967C170.538 67.2692 170.356 66.9506 170.22 66.632C170.083 66.3134 170.038 65.9493 170.038 65.5852C170.038 65.2211 170.083 64.857 170.22 64.5384C170.356 64.2198 170.538 63.9012 170.766 63.6736C170.993 63.446 171.266 63.2185 171.585 63.0819C171.904 62.9454 172.268 62.8544 172.632 62.8544C172.768 62.8544 172.859 62.8544 172.996 62.8544C173.133 62.8544 173.269 62.8999 173.36 62.9454C173.497 62.9909 173.633 63.0364 173.77 63.1274C173.906 63.2185 174.043 63.3095 174.179 63.446V60.9883H174.999V68.225H174.316ZM172.632 63.6736C172.359 63.6736 172.131 63.7191 171.904 63.8101C171.676 63.9012 171.494 64.0377 171.312 64.2198C171.13 64.4018 171.039 64.5839 170.948 64.8114C170.857 65.039 170.811 65.2666 170.811 65.5397C170.811 65.8127 170.857 66.0403 170.948 66.2679C171.039 66.4955 171.175 66.723 171.312 66.8596C171.494 67.0416 171.676 67.1782 171.904 67.2692C172.131 67.3602 172.359 67.4057 172.632 67.4057C172.905 67.4057 173.178 67.3602 173.451 67.2237C173.724 67.0871 173.952 66.9506 174.179 66.723V64.2198C173.997 63.9922 173.724 63.8557 173.451 63.7191C173.224 63.7191 172.905 63.6736 172.632 63.6736Z" fill="white"/>
<path d="M177.183 63.6736C177.229 63.6281 177.274 63.5371 177.32 63.4915C177.365 63.446 177.411 63.4005 177.456 63.355C177.502 63.3095 177.593 63.264 177.638 63.2185C177.82 63.0819 178.048 62.9909 178.276 62.9454C178.503 62.8544 178.776 62.8544 179.049 62.8544C179.322 62.8544 179.595 62.8999 179.777 62.9454C180.005 63.0364 180.187 63.1274 180.324 63.264C180.46 63.4005 180.597 63.5371 180.688 63.7191C180.779 63.9012 180.87 64.0832 180.915 64.2653C180.961 64.4473 181.006 64.6749 181.052 64.9025C181.052 65.13 181.097 65.3576 181.097 65.5852V68.225H180.415C180.369 68.1794 180.369 68.1339 180.324 68.0884C180.278 68.0429 180.278 67.9519 180.278 67.8609V67.6788C180.142 67.7698 180.005 67.9064 179.869 67.9519C179.732 68.0429 179.55 68.0884 179.413 68.1339C179.277 68.1794 179.095 68.225 178.958 68.2705C178.822 68.316 178.685 68.316 178.549 68.316H178.503C178.276 68.316 178.002 68.2705 177.82 68.1795C177.593 68.0884 177.411 67.9974 177.274 67.8609C177.138 67.7243 177.001 67.5423 176.91 67.3602C176.819 67.1782 176.774 66.9506 176.774 66.723C176.774 66.4499 176.819 66.2224 176.91 66.0403C177.001 65.8127 177.138 65.6762 177.365 65.4941C177.593 65.3121 177.82 65.2211 178.139 65.1755C178.458 65.0845 178.822 65.039 179.231 65.039C179.368 65.039 179.459 65.039 179.595 65.039C179.732 65.039 179.823 65.039 179.914 65.0845C180.005 65.0845 180.096 65.0845 180.187 65.13C180.278 65.13 180.324 65.13 180.324 65.13C180.324 64.8114 180.278 64.5839 180.187 64.3563C180.096 64.1742 180.005 63.9922 179.914 63.9012C179.823 63.8101 179.686 63.7191 179.55 63.6736C179.413 63.6281 179.277 63.6281 179.095 63.6281C179.004 63.6281 178.913 63.6281 178.822 63.6281C178.731 63.6281 178.685 63.6736 178.594 63.6736C178.549 63.7191 178.458 63.7191 178.412 63.7646C178.367 63.8101 178.276 63.8101 178.23 63.8557C178.185 63.9012 178.139 63.9012 178.048 63.9467C177.957 63.9467 177.911 63.9922 177.82 63.9922C177.729 63.9922 177.684 63.9922 177.593 63.9467C177.502 63.9012 177.456 63.9012 177.365 63.8101L177.183 63.6736ZM178.549 67.4967C178.685 67.4967 178.822 67.4967 178.958 67.4512C179.095 67.4057 179.277 67.4057 179.413 67.3602C179.55 67.3147 179.732 67.2692 179.869 67.1782C180.005 67.1326 180.187 67.0416 180.324 66.9506V65.9493C180.324 65.9493 180.278 65.9493 180.187 65.9493C180.096 65.9493 180.051 65.9493 179.914 65.9493C179.823 65.9493 179.686 65.9493 179.595 65.9493C179.459 65.9493 179.368 65.9493 179.231 65.9493C179.004 65.9493 178.776 65.9493 178.594 65.9948C178.412 66.0403 178.23 66.0858 178.094 66.1313C177.957 66.2224 177.82 66.3134 177.729 66.4044C177.638 66.4954 177.593 66.632 177.593 66.814C177.593 66.9506 177.638 67.0416 177.684 67.1326C177.729 67.2237 177.775 67.3147 177.866 67.3602C177.957 67.4057 178.048 67.4512 178.185 67.4967C178.276 67.4967 178.412 67.4967 178.549 67.4967Z" fill="white"/>
<path d="M186.969 68.225C186.923 68.1794 186.923 68.1794 186.923 68.1339C186.923 68.0884 186.878 68.0429 186.878 67.9974C186.878 67.9519 186.832 67.9064 186.832 67.8153V67.6788C186.696 67.8153 186.559 67.9064 186.422 67.9974C186.286 68.0884 186.149 68.1339 186.013 68.1795C185.876 68.225 185.74 68.2705 185.649 68.2705C185.512 68.2705 185.421 68.316 185.285 68.316C184.921 68.316 184.556 68.225 184.238 68.0884C183.919 67.9519 183.646 67.7698 183.419 67.4967C183.191 67.2692 183.009 66.9506 182.872 66.632C182.736 66.3134 182.69 65.9493 182.69 65.5852C182.69 65.2211 182.736 64.857 182.872 64.5384C183.009 64.2198 183.191 63.9012 183.419 63.6736C183.646 63.446 183.919 63.2185 184.238 63.0819C184.556 62.9454 184.921 62.8544 185.285 62.8544C185.421 62.8544 185.512 62.8544 185.649 62.8544C185.785 62.8544 185.922 62.8999 186.013 62.9454C186.149 62.9909 186.286 63.0364 186.422 63.1274C186.559 63.2185 186.696 63.3095 186.832 63.446V60.9883H187.651V68.225H186.969ZM185.285 63.6736C185.012 63.6736 184.784 63.7191 184.556 63.8101C184.329 63.9012 184.147 64.0377 183.965 64.2198C183.783 64.4018 183.692 64.5839 183.601 64.8114C183.51 65.039 183.464 65.2666 183.464 65.5397C183.464 65.8127 183.51 66.0403 183.601 66.2679C183.692 66.4955 183.828 66.723 183.965 66.8596C184.147 67.0416 184.329 67.1782 184.556 67.2692C184.784 67.3602 185.012 67.4057 185.285 67.4057C185.558 67.4057 185.831 67.3602 186.104 67.2237C186.377 67.0871 186.605 66.9506 186.832 66.723V64.2198C186.65 63.9922 186.377 63.8557 186.104 63.7191C185.831 63.7191 185.558 63.6736 185.285 63.6736Z" fill="white"/>
<path d="M194.706 65.0845C194.706 65.1756 194.706 65.2666 194.66 65.3576C194.615 65.4486 194.569 65.5397 194.524 65.5852C194.478 65.6307 194.387 65.6762 194.296 65.7217C194.205 65.7672 194.16 65.7672 194.069 65.7672H190.155C190.2 65.9948 190.246 66.2224 190.337 66.4499C190.428 66.6775 190.564 66.8596 190.746 66.9961C190.928 67.1326 191.11 67.2692 191.338 67.3602C191.566 67.4512 191.793 67.4967 192.066 67.4967C192.248 67.4967 192.385 67.4512 192.567 67.4057C192.749 67.3602 192.931 67.2692 193.067 67.1782C193.113 67.1326 193.159 67.1326 193.25 67.1326C193.295 67.1326 193.386 67.0871 193.432 67.0871C193.523 67.0871 193.568 67.0871 193.659 67.1326C193.75 67.1782 193.796 67.1782 193.841 67.2237L194.069 67.4057C193.932 67.5423 193.796 67.6333 193.659 67.7698C193.523 67.8609 193.341 67.9519 193.159 68.0429C192.976 68.1339 192.794 68.1795 192.612 68.225C192.43 68.2705 192.248 68.2705 192.066 68.2705C191.702 68.2705 191.338 68.1795 191.019 68.0429C190.701 67.9064 190.382 67.7243 190.155 67.4512C189.927 67.2237 189.699 66.9051 189.563 66.5865C189.426 66.2679 189.335 65.9038 189.335 65.5397C189.335 65.1756 189.426 64.8114 189.563 64.4928C189.699 64.1742 189.927 63.8557 190.155 63.6281C190.382 63.4005 190.701 63.173 191.019 63.0364C191.338 62.8999 191.702 62.8088 192.066 62.8088C192.385 62.8088 192.658 62.8544 192.976 62.9454C193.25 63.0364 193.523 63.1729 193.75 63.355C193.978 63.5371 194.16 63.7646 194.342 63.9922C194.524 64.2198 194.615 64.4928 194.706 64.8114C194.706 64.948 194.706 65.039 194.706 65.0845ZM193.887 64.9935C193.841 64.7659 193.75 64.5839 193.614 64.4473C193.477 64.2653 193.341 64.1287 193.204 64.0377C193.022 63.9012 192.885 63.8557 192.658 63.7646C192.476 63.7191 192.248 63.6736 192.066 63.6736C191.839 63.6736 191.611 63.7191 191.383 63.8101C191.156 63.9012 190.974 63.9922 190.837 64.1287C190.655 64.2653 190.519 64.4473 190.428 64.6294C190.291 64.8114 190.246 65.039 190.2 65.2211C190.246 65.1756 190.246 65.13 190.291 65.0845C190.337 65.039 190.382 64.9935 190.473 64.9935H193.887Z" fill="white"/>
<path d="M195.844 67.3602C195.98 67.3147 196.071 67.2692 196.162 67.2237C196.253 67.1781 196.344 67.1782 196.435 67.1782C196.481 67.1782 196.572 67.1781 196.663 67.2237C196.754 67.2692 196.845 67.3147 196.936 67.3602C197.027 67.4057 197.118 67.4512 197.209 67.4967C197.3 67.5423 197.437 67.5423 197.528 67.5423C197.664 67.5423 197.755 67.5423 197.892 67.4967C198.028 67.4512 198.119 67.4057 198.211 67.3147C198.302 67.2237 198.393 67.1326 198.438 67.0416C198.484 66.9506 198.529 66.814 198.529 66.6775C198.529 66.5865 198.529 66.4954 198.484 66.4044C198.438 66.3134 198.393 66.2679 198.302 66.1768C198.211 66.1313 198.119 66.0403 197.983 65.9948C197.846 65.9493 197.71 65.8583 197.482 65.8127H197.437C197.255 65.7672 197.073 65.6762 196.891 65.5852C196.709 65.4941 196.572 65.4031 196.435 65.3121C196.299 65.1755 196.162 65.039 196.117 64.9025C196.026 64.7204 195.98 64.5384 195.98 64.2653C195.98 64.0377 196.026 63.8557 196.117 63.7191C196.208 63.5371 196.344 63.4005 196.481 63.264C196.618 63.1274 196.8 63.0364 196.982 62.9909C197.164 62.9454 197.346 62.8999 197.528 62.8999C197.71 62.8999 197.892 62.9454 198.074 62.9909C198.211 63.0364 198.393 63.1274 198.484 63.2185C198.62 63.3095 198.711 63.4005 198.802 63.4915C198.893 63.5826 198.939 63.6281 198.984 63.6736L198.802 63.8101C198.757 63.8557 198.666 63.9012 198.575 63.9467C198.484 63.9922 198.438 63.9922 198.347 63.9922C198.302 63.9922 198.211 63.9922 198.165 63.9467C198.074 63.9012 198.028 63.9012 197.937 63.8557C197.846 63.8101 197.801 63.8101 197.71 63.7646C197.619 63.7191 197.573 63.7191 197.482 63.7191C197.346 63.7191 197.209 63.7191 197.118 63.7646C197.027 63.8101 196.936 63.8557 196.891 63.9012C196.845 63.9467 196.8 64.0377 196.754 64.0832C196.709 64.1287 196.709 64.2198 196.709 64.2198C196.709 64.3563 196.754 64.4473 196.8 64.5384C196.845 64.6294 196.936 64.6749 197.027 64.7659C197.118 64.8114 197.209 64.857 197.346 64.9025C197.437 64.948 197.573 64.9935 197.71 65.039C197.892 65.0845 198.119 65.1755 198.302 65.2666C198.484 65.3576 198.666 65.4486 198.802 65.5852C198.939 65.7217 199.075 65.8583 199.166 66.0403C199.257 66.2224 199.303 66.4044 199.303 66.6775C199.303 66.9051 199.257 67.1326 199.166 67.3147C199.075 67.4967 198.939 67.6788 198.802 67.8609C198.62 67.9974 198.438 68.1339 198.211 68.225C197.983 68.316 197.755 68.3615 197.482 68.3615C197.3 68.3615 197.164 68.3615 196.982 68.316C196.8 68.2705 196.663 68.225 196.527 68.1339C196.39 68.0429 196.253 67.9519 196.117 67.8153C196.026 67.6333 195.935 67.4967 195.844 67.3602Z" fill="white"/>
</svg>
