<svg width="25" height="18" viewBox="0 0 25 18" fill="none" xmlns="http://www.w3.org/2000/svg">
<path d="M24.1758 2.57457L17.8711 8.99645C17.8242 9.04332 17.8242 9.11364 17.8711 9.16051L22.2832 13.8597C22.582 14.1586 22.582 14.639 22.2832 14.9379C22.1367 15.0843 21.9375 15.1605 21.7441 15.1605C21.5508 15.1605 21.3516 15.0843 21.2051 14.9379L16.8105 10.2562C16.7637 10.2093 16.6875 10.2093 16.6406 10.2562L15.5684 11.3461C14.6719 12.2543 13.4824 12.7582 12.2051 12.764C10.9102 12.7699 9.67969 12.225 8.77148 11.305L7.74023 10.2562C7.69336 10.2093 7.61719 10.2093 7.57031 10.2562L3.17578 14.9379C3.0293 15.0843 2.83008 15.1605 2.63672 15.1605C2.44336 15.1605 2.24414 15.0843 2.09766 14.9379C1.79883 14.639 1.79883 14.1586 2.09766 13.8597L6.50977 9.16051C6.55078 9.11364 6.55078 9.04332 6.50977 8.99645L0.199219 2.57457C0.123047 2.4984 0 2.55113 0 2.6566V15.5062C0 16.5375 0.84375 17.3812 1.875 17.3812H22.5C23.5312 17.3812 24.375 16.5375 24.375 15.5062V2.6566C24.375 2.55113 24.2461 2.50426 24.1758 2.57457Z" fill="#01A3C8"/>
<path d="M12.1875 11.2348C13.0547 11.2348 13.8691 10.895 14.4785 10.2739L23.6719 0.916443C23.3496 0.65863 22.9512 0.506287 22.5117 0.506287H1.86914C1.42969 0.506287 1.02539 0.65863 0.708984 0.916443L9.90234 10.2739C10.5059 10.8891 11.3203 11.2348 12.1875 11.2348Z" fill="#01A3C8"/>
</svg>
