<svg width="90" height="90" viewBox="0 0 90 90" fill="none" xmlns="http://www.w3.org/2000/svg">
<path d="M28.3915 30.1967C29.1196 30.1967 29.7099 29.6066 29.7099 28.8784V26.0752C29.7099 25.3469 29.1196 24.7568 28.3915 24.7568C27.6634 24.7568 27.0732 25.3469 27.0732 26.0752V28.8784C27.0732 29.6064 27.6633 30.1967 28.3915 30.1967Z" fill="#01A3C8"/>
<path d="M68.8214 56.82C69.1886 57.663 70.02 58.2077 70.9397 58.2077C71.8594 58.2077 72.6907 57.6628 73.0579 56.8198C73.6061 55.5616 74.601 54.5666 75.8594 54.0185C76.7025 53.6513 77.2472 52.8199 77.2472 51.9002C77.2472 50.9809 76.7025 50.1493 75.8594 49.7821C74.6012 49.234 73.6063 48.2392 73.058 46.9808C72.6908 46.1378 71.8594 45.593 70.9397 45.593C70.0204 45.593 69.1887 46.1378 68.8215 46.981C68.2735 48.2392 67.2787 49.234 66.0201 49.7821C65.1771 50.1493 64.6323 50.9807 64.6323 51.9002C64.6323 52.8199 65.1771 53.6513 66.0201 54.0185C67.2784 54.5665 68.2731 55.5614 68.8214 56.82ZM70.9395 48.6485C71.6847 50.0287 72.8111 51.1553 74.1913 51.9002C72.8109 52.6454 71.6847 53.7716 70.9395 55.152C70.1944 53.7716 69.0682 52.6452 67.6878 51.9002C69.0682 51.1551 70.1946 50.0289 70.9395 48.6485Z" fill="#01A3C8"/>
<path d="M87.9521 36.9399C87.2314 36.8496 86.5707 37.3609 86.4798 38.0837C83.995 57.8625 76.9488 76.5278 68.9462 84.53C67.3034 86.1729 65.1219 87.076 62.7993 87.076H62.764C58.0125 87.0574 54.1284 83.0781 54.1058 78.2056C54.0588 68.006 49.128 65.865 44.9998 65.865C40.8718 65.865 35.9409 68.006 35.8938 78.2055C35.8713 83.0779 31.9871 87.0571 27.2356 87.076H27.2003C24.878 87.076 22.6962 86.1727 21.0532 84.53C20.5652 84.0421 20.0713 83.5044 19.5853 82.932C19.1138 82.3771 18.282 82.3094 17.7269 82.7805C17.172 83.2518 17.1039 84.0837 17.5752 84.6387C18.1075 85.2653 18.6503 85.8563 19.1887 86.3945C21.3299 88.5355 24.173 89.7128 27.1997 89.7128H27.246C33.4389 89.6881 38.5012 84.5314 38.5304 78.2178C38.5752 68.5017 43.4107 68.5017 44.9996 68.5017C46.5885 68.5017 51.424 68.5017 51.4689 78.2178C51.4982 84.5316 56.5605 89.6883 62.7535 89.7128H62.7995C65.8261 89.7128 68.6697 88.5355 70.8105 86.3945C75.0934 82.1116 79.1137 75.1043 82.4368 66.1299C85.5374 57.7565 87.9022 47.913 89.0958 38.4121C89.1866 37.69 88.6746 37.0308 87.9521 36.9399Z" fill="#01A3C8"/>
<path d="M86.5359 12.393C86.5999 12.3631 86.6631 12.3322 86.7282 12.3039C87.7122 11.8753 88.3232 10.9425 88.3232 9.86933C88.323 8.79619 87.7117 7.8635 86.7282 7.43512C84.9261 6.65008 83.5012 5.2252 82.7162 3.42293C82.2876 2.43908 81.3549 1.82807 80.2818 1.82807C79.2086 1.82807 78.276 2.43926 77.8474 3.42293C77.8202 3.48533 77.7905 3.54615 77.7618 3.60767C74.0966 1.44715 69.9631 0.301064 65.7199 0.287529C61.4703 0.277334 57.2948 1.36876 53.6271 3.45299C48.3055 6.47641 41.6941 6.47641 36.3725 3.45299C32.7265 1.38124 28.5733 0.287354 24.3561 0.287354C24.3307 0.287354 24.3052 0.287529 24.2797 0.287529C17.8799 0.307568 11.8284 2.86676 7.24039 7.4933C2.53703 12.2362 -0.0341112 18.5014 0.000341808 25.1355C0.0569431 36.0121 2.04256 48.6149 5.46009 59.8655C4.91112 60.247 4.32261 60.5781 3.69894 60.8497C2.57939 61.3372 1.88401 62.3987 1.88383 63.6199C1.88383 64.8408 2.57922 65.9025 3.69876 66.3903C6.07883 67.4271 7.96056 69.3088 8.99732 71.6889C9.31056 72.4083 9.86163 72.9512 10.5389 73.2482C11.5997 75.4956 12.7147 77.5789 13.8589 79.4438C14.1076 79.8493 14.5406 80.0727 14.9839 80.0727C15.2189 80.0727 15.4569 80.01 15.6721 79.878C16.2927 79.4972 16.4872 78.6855 16.1062 78.0648C15.1706 76.5399 14.2533 74.8575 13.3693 73.0515C13.8747 72.7369 14.2841 72.2711 14.5376 71.6891C15.5743 69.309 17.4561 67.4273 19.8363 66.3905C20.9558 65.9029 21.6512 64.8412 21.6512 63.62C21.6512 62.3989 20.9557 61.3375 19.8363 60.8499C17.4562 59.8133 15.5745 57.9316 14.5377 55.5514C14.0501 54.4318 12.9886 53.7364 11.7676 53.7364C10.5465 53.7364 9.48493 54.4318 8.99732 55.5514C8.63433 56.3846 8.1657 57.155 7.61059 57.8513C4.49224 47.1592 2.69014 35.3542 2.63687 25.1218C2.60594 19.1931 4.90567 13.592 9.11245 9.35007C13.2039 5.22415 18.5934 2.94217 24.2878 2.92424C24.3106 2.92424 24.3331 2.92406 24.356 2.92406C28.117 2.92406 31.8203 3.89912 35.0698 5.74534C35.3213 5.88825 35.5762 6.02307 35.8325 6.15438C34.9721 7.12311 34.4011 8.02117 33.7717 9.01152L33.6516 9.20031C33.2607 9.81448 33.4417 10.6294 34.0559 11.0203C34.2754 11.1601 34.5205 11.2267 34.7625 11.2267C35.1983 11.2267 35.6247 11.0108 35.8761 10.616L35.997 10.4257C36.7269 9.27712 37.3258 8.33652 38.424 7.25617C42.6735 8.71867 47.3261 8.71867 51.5754 7.25617C52.6739 8.3367 53.2728 9.27765 54.0028 10.4262L54.1235 10.616C54.3749 11.0108 54.8012 11.2267 55.2369 11.2267C55.4791 11.2267 55.7242 11.1601 55.9437 11.0203C56.5579 10.6292 56.7388 9.81448 56.348 9.20031L56.2283 9.01222C55.5987 8.02152 55.0277 7.12346 54.1671 6.15438C54.4234 6.02325 54.6785 5.88825 54.93 5.74534C58.1992 3.88787 61.9234 2.91176 65.712 2.92424C69.4193 2.93584 73.0344 3.91968 76.254 5.77803C75.5679 6.47219 74.7507 7.03645 73.8356 7.43512C72.8517 7.86332 72.2407 8.79619 72.2405 9.86933C72.2405 10.9423 72.8517 11.8752 73.8354 12.3039C75.6377 13.0889 77.0625 14.5136 77.8476 16.3159C78.2761 17.2997 79.2088 17.9108 80.282 17.9108C81.3549 17.9108 82.2878 17.2996 82.7163 16.3159C83.1138 15.4036 83.6756 14.5885 84.3667 13.9037C86.3499 17.3214 87.3835 21.1696 87.3628 25.1218C87.3513 27.3484 87.2573 29.6777 87.0833 32.0447C87.0298 32.7709 87.5753 33.4028 88.3014 33.4561C88.3345 33.4585 88.367 33.4596 88.3995 33.4596C89.0838 33.4596 89.6621 32.931 89.7129 32.2379C89.8914 29.8113 89.9879 27.4217 89.9996 25.1355C90.0227 20.6383 88.8265 16.263 86.5359 12.393ZM11.4148 56.6043C11.4981 56.413 11.6527 56.3731 11.7678 56.3731C11.8828 56.3731 12.0374 56.4132 12.1206 56.6043C13.4244 59.5971 15.7905 61.9635 18.7836 63.2671C18.9744 63.3504 19.0147 63.5049 19.0147 63.6199C19.0147 63.735 18.9744 63.8897 18.7836 63.973C15.7907 65.2766 13.4244 67.6429 12.1206 70.6358C12.0373 70.827 11.8828 70.8669 11.7678 70.8669C11.755 70.8669 11.7416 70.8662 11.7281 70.865C11.707 70.861 11.6859 70.8574 11.6644 70.8545C11.5718 70.8321 11.4748 70.7734 11.4148 70.6356C10.1111 67.6426 7.74488 65.2764 4.75204 63.9728C4.56097 63.8895 4.52071 63.7348 4.52071 63.6197C4.52071 63.5047 4.56097 63.3502 4.75187 63.2669C7.74488 61.9635 10.1111 59.5973 11.4148 56.6043ZM85.6751 9.88655C83.26 10.9384 81.3505 12.8479 80.2987 15.263L81.5073 15.7894L80.2981 15.2716C80.2906 15.2749 80.2725 15.2749 80.2647 15.263C79.2129 12.8479 77.3032 10.9384 74.8795 9.88603C74.876 9.87864 74.876 9.86036 74.8881 9.85263C76.6957 9.06531 78.2199 7.7974 79.3138 6.19323C79.3157 6.19042 79.3178 6.18796 79.3197 6.18514C79.3204 6.18409 79.3208 6.18321 79.3215 6.18215C79.6859 5.6462 80.0023 5.07298 80.2653 4.46741C80.2725 4.46372 80.2907 4.46425 80.2987 4.47603C81.3507 6.89125 83.2602 8.80076 85.6839 9.85316C85.6874 9.86036 85.6872 9.87847 85.6751 9.88655Z" fill="#01A3C8"/>
<path d="M62.9265 28.8784V26.0752C62.9265 25.3469 62.3364 24.7568 61.6081 24.7568C60.8799 24.7568 60.2898 25.3469 60.2898 26.0752V28.8784C60.2898 29.6066 60.8799 30.1967 61.6081 30.1967C62.3364 30.1967 62.9265 29.6064 62.9265 28.8784Z" fill="#01A3C8"/>
<path d="M44.9998 37.0735C48.3358 37.0735 51.05 34.3592 51.05 31.0233V27.5832C51.05 26.1439 49.8792 24.9732 48.4399 24.9732H41.5598C40.1205 24.9732 38.9498 26.1439 38.9498 27.5832V31.0233C38.9496 34.3592 41.6637 37.0735 44.9998 37.0735ZM41.5862 27.61H48.4131V31.0233C48.4131 32.9055 46.8819 34.4367 44.9997 34.4367C43.1174 34.4367 41.5862 32.9055 41.5862 31.0233V27.61Z" fill="#01A3C8"/>
</svg>
