<svg width="204" height="88" viewBox="0 0 204 88" fill="none" xmlns="http://www.w3.org/2000/svg">
<path d="M23.4033 45.0461C27.4195 52.9211 30.4655 60.0578 32.9123 65.7967C38.0691 77.8891 41.1811 85.1875 47.1562 85.1875C53.4942 85.1875 54.1875 80.2333 54.1875 69.7188C54.1875 56.7137 55.4616 55.6562 57 55.6562C58.5384 55.6562 59.8125 56.7137 59.8125 69.7188C59.8125 80.2333 60.5058 85.1875 66.8438 85.1875C72.8189 85.1875 75.9309 77.8891 81.0877 65.7967C83.5345 60.0578 86.5805 52.9169 90.5967 45.0461L91.0678 44.1236C93.5625 39.2762 96.375 33.7806 96.375 27.5312C96.375 12.5491 86.4919 0.8125 73.875 0.8125C69.0115 0.867954 64.2873 2.44448 60.3652 5.32094C59.3624 5.96876 58.1939 6.31336 57 6.31336C55.8061 6.31336 54.6377 5.96876 53.6348 5.32094C49.7127 2.44448 44.9885 0.867954 40.125 0.8125C27.5081 0.8125 17.625 12.5491 17.625 27.5312C17.625 33.7806 20.4445 39.2762 22.9322 44.125L23.4033 45.0461ZM40.125 3.625C44.3728 3.67093 48.4999 5.0448 51.9277 7.55406C56.0797 10.2933 60.971 11.6954 65.9438 11.5717C69.4561 11.5515 72.9419 10.9621 76.2656 9.82656L75.3755 7.15469C70.7403 8.80016 65.7502 9.18024 60.9192 8.25578C61.3254 8.06003 61.7112 7.8245 62.0709 7.55266C65.4993 5.04362 69.6268 3.67023 73.875 3.625C84.9155 3.625 93.5625 14.1255 93.5625 27.5312C93.5625 33.1014 90.9075 38.275 88.5661 42.8397L88.0908 43.7664C84.0309 51.7258 80.9653 58.9159 78.5016 64.6928C73.9608 75.3438 70.9613 82.375 66.8438 82.375C63.7823 82.375 62.625 81.2838 62.625 69.7188C62.625 57.8191 61.8431 52.8438 57 52.8438C52.1569 52.8438 51.375 57.8191 51.375 69.7188C51.375 81.2838 50.2177 82.375 47.1562 82.375C43.0387 82.375 40.0392 75.3438 35.4984 64.6928C33.0347 58.9159 29.9691 51.7258 25.9092 43.7664L25.4339 42.8397C23.0925 38.275 20.4375 33.1014 20.4375 27.5312C20.4375 14.1255 29.0845 3.625 40.125 3.625Z" fill="#01A3C8"/>
<path d="M41.5312 9.25V6.4375C35.7277 6.4375 24.4397 10.825 23.25 27.4314L26.0625 27.6311C27.3506 9.54812 40.9575 9.25 41.5312 9.25Z" fill="#01A3C8"/>
<path d="M26.0625 30.3438H23.25V33.1562H26.0625V30.3438Z" fill="#01A3C8"/>
<path d="M90.75 27.5312H87.9375C87.9375 27.5973 87.8039 34.3037 81.1678 43.5948L83.4571 45.2289C90.667 35.125 90.75 27.8364 90.75 27.5312Z" fill="#01A3C8"/>
<path fill-rule="evenodd" clip-rule="evenodd" d="M63 20H50C49.4477 20 49 20.4477 49 21V34C49 34.5523 49.4477 35 50 35H63C63.5523 35 64 34.5523 64 34V21C64 20.4477 63.5523 20 63 20ZM50 18C48.3431 18 47 19.3431 47 21V34C47 35.6569 48.3431 37 50 37H63C64.6569 37 66 35.6569 66 34V21C66 19.3431 64.6569 18 63 18H50Z" fill="#01A3C8"/>
<path d="M113.403 47.0461C117.42 54.9211 120.465 62.0578 122.912 67.7967C128.069 79.8891 131.181 87.1875 137.156 87.1875C143.494 87.1875 144.188 82.2333 144.188 71.7188C144.188 58.7137 145.462 57.6562 147 57.6562C148.538 57.6562 149.812 58.7137 149.812 71.7188C149.812 82.2333 150.506 87.1875 156.844 87.1875C162.819 87.1875 165.931 79.8891 171.088 67.7967C173.535 62.0578 176.58 54.9169 180.597 47.0461L181.068 46.1236C183.562 41.2762 186.375 35.7806 186.375 29.5312C186.375 14.5491 176.492 2.8125 163.875 2.8125C159.011 2.86795 154.287 4.44448 150.365 7.32094C149.362 7.96876 148.194 8.31336 147 8.31336C145.806 8.31336 144.638 7.96876 143.635 7.32094C139.713 4.44448 134.989 2.86795 130.125 2.8125C117.508 2.8125 107.625 14.5491 107.625 29.5312C107.625 35.7806 110.445 41.2762 112.932 46.125L113.403 47.0461ZM130.125 5.625C134.373 5.67093 138.5 7.0448 141.928 9.55406C146.08 12.2933 150.971 13.6954 155.944 13.5717C159.456 13.5515 162.942 12.9621 166.266 11.8266L165.375 9.15469C160.74 10.8002 155.75 11.1802 150.919 10.2558C151.325 10.06 151.711 9.8245 152.071 9.55266C155.499 7.04362 159.627 5.67023 163.875 5.625C174.915 5.625 183.562 16.1255 183.562 29.5312C183.562 35.1014 180.908 40.275 178.566 44.8397L178.091 45.7664C174.031 53.7258 170.965 60.9159 168.502 66.6928C163.961 77.3438 160.961 84.375 156.844 84.375C153.782 84.375 152.625 83.2838 152.625 71.7188C152.625 59.8191 151.843 54.8438 147 54.8438C142.157 54.8438 141.375 59.8191 141.375 71.7188C141.375 83.2838 140.218 84.375 137.156 84.375C133.039 84.375 130.039 77.3438 125.498 66.6928C123.035 60.9159 119.969 53.7258 115.909 45.7664L115.434 44.8397C113.092 40.275 110.438 35.1014 110.438 29.5312C110.438 16.1255 119.085 5.625 130.125 5.625Z" fill="#01A3C8"/>
<path d="M131.531 11.25V8.4375C125.728 8.4375 114.44 12.825 113.25 29.4314L116.062 29.6311C117.351 11.5481 130.958 11.25 131.531 11.25Z" fill="#01A3C8"/>
<path d="M116.062 32.3438H113.25V35.1562H116.062V32.3438Z" fill="#01A3C8"/>
<path d="M180.75 29.5312H177.937C177.937 29.5973 177.804 36.3037 171.168 45.5948L173.457 47.2289C180.667 37.125 180.75 29.8364 180.75 29.5312Z" fill="#01A3C8"/>
<path fill-rule="evenodd" clip-rule="evenodd" d="M154 20H141C140.448 20 140 20.4477 140 21V34C140 34.5523 140.448 35 141 35H154C154.552 35 155 34.5523 155 34V21C155 20.4477 154.552 20 154 20ZM141 18C139.343 18 138 19.3431 138 21V34C138 35.6569 139.343 37 141 37H154C155.657 37 157 35.6569 157 34V21C157 19.3431 155.657 18 154 18H141Z" fill="#01A3C8"/>
<path fill-rule="evenodd" clip-rule="evenodd" d="M47 28H0V26H47V28Z" fill="#01A3C8"/>
<path fill-rule="evenodd" clip-rule="evenodd" d="M204 28H157V26H204V28Z" fill="#01A3C8"/>
<path fill-rule="evenodd" clip-rule="evenodd" d="M138 28L66 28V26L138 26V28Z" fill="#01A3C8"/>
</svg>
