<svg width="90" height="90" viewBox="0 0 90 90" fill="none" xmlns="http://www.w3.org/2000/svg">
<path d="M29.1675 28.3127C25.9361 30.4622 23.996 34.0873 24 37.9682V40.0607H27V37.9682C26.9968 35.0903 28.4359 32.4021 30.8325 30.8087L29.1675 28.3127Z" fill="#01A3C8"/>
<path d="M87.4395 6L61.5 31.9395L57.621 28.0605L83.5605 2.121L81.4395 0L54.69 26.7495L37.026 32.637C36.24 32.8988 35.8152 33.7481 36.0769 34.5341C36.1506 34.7554 36.2747 34.9562 36.4395 35.121L54.4395 53.121C55.0258 53.7062 55.9755 53.7054 56.5609 53.1191C56.725 52.9549 56.8485 52.7546 56.922 52.5345L62.811 34.872L89.5605 8.121L87.4395 6ZM54.843 49.287L51.4305 45.873L56.748 37.896L54.252 36.231L49.266 43.71L45.855 40.293L53.3325 35.3085L51.6675 32.8125L43.692 38.13L40.278 34.716L55.0935 29.7765L59.7825 34.4655L54.843 49.287Z" fill="#01A3C8"/>
<path d="M88.911 53.619L74.361 49.461C72.5567 48.9527 70.6425 48.9893 68.859 49.566C70.9226 44.8146 71.9916 39.6908 72 34.5105C72 33.7813 71.9437 33.0531 71.832 32.3325L68.8665 32.7975C68.9563 33.3642 69.0009 33.937 69 34.5105C68.9934 39.9027 67.7381 45.2202 65.3325 50.046L63.1575 54.396C63.0789 54.5547 63.0281 54.7257 63.0075 54.9015L60.4305 78.096C60.264 79.6163 58.8966 80.7135 57.3763 80.5469C56.1251 80.4098 55.1239 79.446 54.939 78.201L51.6525 56.2875C51.0992 52.6135 47.6722 50.0835 43.9982 50.6368C41.0788 51.0765 38.787 53.3682 38.3475 56.2875L35.061 78.201C34.8364 79.7138 33.4281 80.758 31.9153 80.5333C30.6703 80.3485 29.7066 79.3472 29.5695 78.096L26.991 54.8955C26.9702 54.7197 26.9196 54.5487 26.841 54.39L24.666 50.04C22.2619 45.2159 21.0071 39.9006 21 34.5105C21.0011 28.4631 25.9044 23.5615 31.9519 23.5624C33.4322 23.5626 34.8969 23.8632 36.258 24.4455C41.8427 26.8275 48.1573 26.8275 53.742 24.4455L52.5615 21.6885C47.7306 23.7465 42.2694 23.7465 37.4385 21.6885C30.3555 18.6572 22.1563 21.942 19.125 29.025C18.3831 30.7587 18.0004 32.6248 18 34.5105C18.0107 39.6915 19.0826 44.8153 21.15 49.566C19.3659 48.9893 17.4512 48.9527 15.6465 49.461L1.0965 53.619C0.449438 53.7998 0.0015 54.3887 0 55.0605V88.0605C0 88.8889 0.671625 89.5605 1.5 89.5605H88.5C89.3284 89.5605 90 88.8889 90 88.0605V55.0605C89.9994 54.3908 89.5551 53.8026 88.911 53.619ZM87 86.5605H3V56.1915L16.4625 52.3455C19.4274 51.5023 22.5801 52.8336 24.0435 55.5465L26.5935 78.4275C26.9451 81.595 29.7979 83.8778 32.9653 83.5262C35.5663 83.2375 37.6474 81.2346 38.0355 78.6465L41.322 56.733C41.6244 54.6985 43.5191 53.2943 45.5537 53.5967C47.1754 53.8378 48.4487 55.1112 48.69 56.733L51.9765 78.6465C52.449 81.7982 55.3871 83.9702 58.5388 83.4977C61.1269 83.1098 63.1297 81.0285 63.4185 78.4275L65.9685 55.5465C67.4323 52.834 70.5846 51.5031 73.5495 52.3455L87 56.1915V86.5605Z" fill="#01A3C8"/>
<path d="M76.9605 43.9606C77.6489 40.8577 77.9974 37.6889 78.0001 34.5106C78.007 31.5357 77.3402 28.5978 76.05 25.9171L73.3501 27.2131C74.443 29.4901 75.0072 31.9848 75.0001 34.5106C74.9971 37.9306 74.5647 41.3367 73.7131 44.6491C73.6144 45.0338 73.6731 45.442 73.8765 45.7831C74.08 46.1258 74.4113 46.3735 74.7976 46.4716L88.9276 50.5021L89.7511 47.6191L76.9605 43.9606Z" fill="#01A3C8"/>
<path d="M50.1945 16.1715C46.8742 17.5875 43.1198 17.5875 39.7995 16.1715C29.6702 11.8363 17.9443 16.5336 13.6091 26.6629C12.5477 29.1431 12.0002 31.8128 12 34.5105C12.0021 37.6915 12.3506 40.8626 13.0395 43.968L0.248998 47.619L1.0725 50.502L14.814 46.5765L15.2025 46.4715C16.0056 46.2681 16.4916 45.4521 16.2881 44.649L16.287 44.6445C15.4357 41.3336 15.0034 37.929 15 34.5105C15.0075 25.1524 22.5919 17.568 31.95 17.5605C34.2456 17.5583 36.5175 18.0248 38.6265 18.9315C42.6992 20.6678 47.3038 20.6678 51.3765 18.9315C54.0429 17.791 56.9569 17.3515 59.841 17.655L60.153 14.6715C56.76 14.3164 53.3325 14.8328 50.1945 16.1715Z" fill="#01A3C8"/>
<path d="M19.4749 12.8105C19.3684 12.1811 18.8755 11.6882 18.246 11.5817C15.8018 11.1733 13.8867 9.25761 13.479 6.81317C13.3408 5.99642 12.5667 5.44611 11.7499 5.5843C11.1205 5.6908 10.6275 6.18374 10.521 6.81317C10.1134 9.25761 8.19828 11.1733 5.75403 11.5817C4.93728 11.7199 4.38697 12.4941 4.52516 13.3108C4.63166 13.9402 5.1246 14.4332 5.75403 14.5397C8.19828 14.948 10.1134 16.8637 10.521 19.3082C10.6592 20.1249 11.4334 20.6752 12.2502 20.537C12.8796 20.4305 13.3725 19.9376 13.479 19.3082C13.8867 16.8637 15.8018 14.948 18.246 14.5397C19.0628 14.4015 19.6131 13.6273 19.4749 12.8105ZM12 15.2027C11.4152 14.3704 10.6903 13.6455 9.85803 13.0607C10.6903 12.4759 11.4152 11.751 12 10.9187C12.5848 11.751 13.3097 12.4759 14.142 13.0607C13.3097 13.6455 12.5848 14.3704 12 15.2027Z" fill="#01A3C8"/>
</svg>
