<svg width="23" height="23" viewBox="0 0 23 23" fill="none" xmlns="http://www.w3.org/2000/svg">
<path d="M21.858 17.6229C20.9967 16.7616 18.9283 15.4667 17.9088 14.9804C16.7252 14.412 16.2916 14.4237 15.4537 15.0272C14.7564 15.5311 14.3052 15.9999 13.5025 15.8241C12.6998 15.6542 11.1177 14.453 9.58259 12.9237C8.04743 11.3886 6.85212 9.80653 6.6822 9.00379C6.51228 8.1952 6.98103 7.74988 7.47907 7.05262C8.08259 6.21473 8.10017 5.78114 7.52595 4.59754C7.03962 3.57215 5.75056 1.50965 4.88337 0.648323C4.02204 -0.213005 3.82868 -0.0255053 3.35407 0.144417C3.35407 0.144417 2.65095 0.425666 1.95368 0.888557C1.09235 1.46278 0.611882 1.94324 0.272038 2.66395C-0.0619466 3.38465 -0.448665 4.72645 1.52009 8.23035C3.10798 11.0604 4.66657 13.205 6.98103 15.5136L6.99274 15.5253C9.3072 17.8397 11.4459 19.3983 14.276 20.9862C17.7799 22.955 19.1217 22.5682 19.8424 22.2343C20.5631 21.9003 21.0435 21.4198 21.6178 20.5526C22.0806 19.8554 22.3619 19.1522 22.3619 19.1522C22.5318 18.6776 22.7252 18.4843 21.858 17.6229Z" fill="#01A3C8"/>
</svg>
