<svg width="96" height="90" viewBox="0 0 96 90" fill="none" xmlns="http://www.w3.org/2000/svg">
<path d="M95.1047 60.0204C94.9661 59.9233 91.6282 57.6287 86.2377 56.5717C85.3615 56.4027 84.5374 56.9651 84.3675 57.8284C84.1979 58.6918 84.7609 59.5287 85.6243 59.6984C89.0027 60.3601 91.4735 61.5812 92.6013 62.22V86.8138H3.39815V62.217C4.60567 61.5305 7.35578 60.1758 11.1715 59.556C12.0398 59.4142 12.629 58.5963 12.489 57.7281C12.3471 56.8591 11.5292 56.2641 10.661 56.4107C4.74964 57.3713 1.04868 59.9119 0.894913 60.0201C0.467206 60.3174 0.212402 60.8065 0.212402 61.3273V88.407C0.212402 89.2862 0.925247 90 1.80539 90H94.1945C95.0746 90 95.7875 89.2865 95.7875 88.407V61.3273C95.7872 60.8065 95.5324 60.3183 95.1047 60.0204Z" fill="#01A3C8"/>
<path d="M54.0307 30.0001C52.6822 30.0001 51.4565 30.5807 50.3773 31.0922C49.5236 31.4961 48.719 31.8776 48.086 31.8776C47.4527 31.8776 46.6484 31.4961 45.7946 31.0922C44.7147 30.5809 43.4888 30.0001 42.1405 30.0001C37.2295 30.0001 33.6639 35.1445 33.6639 42.2314C33.6639 45.2189 34.3394 51.4051 35.5896 56.9858C37.8467 67.0641 40.4089 68.2301 42.1405 68.2301C44.5665 68.2301 45.214 64.9965 46.1922 60.1016C46.6278 57.9248 47.4116 54.0087 48.1833 52.9486C49.0991 53.8948 49.8852 58.3534 50.274 60.5636C51.0878 65.1799 51.6255 68.2303 54.0309 68.2303C55.7625 68.2303 58.3246 67.0643 60.5819 56.9851C61.8323 51.4051 62.5076 45.2191 62.5076 42.2314C62.5074 35.1443 58.9415 30.0001 54.0307 30.0001ZM54.4376 64.7685C54.0624 63.7101 53.6819 61.5412 53.4109 60.0096C52.5149 54.9187 51.5879 49.6541 48.0787 49.6413C45.033 49.6541 44.1227 54.2058 43.0683 59.476C42.7234 61.2027 42.2297 63.6653 41.7789 64.7821C39.5815 62.6459 36.8496 49.4192 36.8496 42.2312C36.8496 37.0749 39.1235 33.1859 42.1405 33.1859C42.7738 33.1859 43.5774 33.5674 44.4303 33.9713C45.5102 34.4826 46.7361 35.0633 48.0843 35.0633C49.4328 35.0633 50.6592 34.4835 51.7384 33.9713C52.5922 33.5674 53.3967 33.1859 54.0298 33.1859C57.0468 33.1859 59.3207 37.0742 59.3207 42.2312C59.3207 49.4089 56.5969 62.6062 54.4376 64.7685Z" fill="#01A3C8"/>
<path d="M79.5182 34.2479C78.1697 34.2479 76.9433 34.8277 75.8641 35.3399C75.0103 35.7438 74.2058 36.1253 73.5727 36.1253C72.9394 36.1253 72.1351 35.7438 71.2814 35.3399C70.2015 34.8287 68.9755 34.2479 67.6273 34.2479C62.7163 34.2479 59.1506 39.3923 59.1506 46.4792C59.1506 49.4666 59.8259 55.6528 61.0764 61.2335C63.3334 71.3118 65.8957 72.4778 67.6273 72.4778C70.0533 72.4778 70.7008 69.2442 71.679 64.3493C72.1146 62.1725 72.8984 58.2564 73.67 57.1963C74.5859 58.1432 75.372 62.6011 75.7607 64.8113C76.5746 69.4276 77.1122 72.478 79.5177 72.478C81.2493 72.478 83.8113 71.3121 86.0693 61.2328C87.3198 55.6528 87.995 49.4668 87.995 46.4792C87.9948 39.3923 84.429 34.2479 79.5182 34.2479ZM79.9244 69.0165C79.5492 67.9581 79.1686 65.7892 78.8977 64.2576C78.0017 59.1666 77.0746 53.9021 73.5655 53.8893C70.5197 53.9028 69.6095 58.4545 68.555 63.7239C68.2102 65.4506 67.7164 67.9133 67.2656 69.03C65.0683 66.8938 62.3364 53.6671 62.3364 46.4792C62.3364 41.3229 64.6102 37.4339 67.6273 37.4339C68.2606 37.4339 69.0642 37.8154 69.917 38.2193C70.9969 38.7305 72.2229 39.3113 73.5711 39.3113C74.9195 39.3113 76.146 38.7315 77.2252 38.2193C78.0789 37.8154 78.8835 37.4339 79.5165 37.4339C82.5336 37.4339 84.8074 41.3222 84.8074 46.4792C84.8074 53.6566 82.0835 66.8539 79.9244 69.0165Z" fill="#01A3C8"/>
<path d="M28.5439 34.2479C27.1955 34.2479 25.9698 34.8284 24.8906 35.3399C24.0368 35.7438 23.2322 36.1253 22.5992 36.1253C21.9659 36.1253 21.1616 35.7438 20.3078 35.3399C19.2279 34.8287 18.002 34.2479 16.6538 34.2479C11.7427 34.2479 8.1771 39.3923 8.1771 46.4792C8.1771 49.4666 8.85261 55.6528 10.1028 61.2335C12.3599 71.3118 14.9222 72.4778 16.6538 72.4778C19.0798 72.4778 19.7273 69.2433 20.7054 64.3484C21.1411 62.1715 21.9249 58.2555 22.6965 57.1954C23.6123 58.1423 24.3985 62.6009 24.7872 64.8103C25.6011 69.4274 26.1387 72.4778 28.5442 72.4778C30.2758 72.4778 32.8378 71.3118 35.0951 61.2326C36.3456 55.6526 37.0208 49.4666 37.0208 46.4789C37.0206 39.3923 33.455 34.2479 28.5439 34.2479ZM28.9509 69.0165C28.5757 67.9581 28.1951 65.7892 27.9242 64.2576C27.0282 59.1659 26.1011 53.9012 22.592 53.8886C19.5462 53.9021 18.636 58.4538 17.5815 63.7239C17.2366 65.4506 16.7429 67.9133 16.2921 69.03C14.0948 66.8938 11.3629 53.6671 11.3629 46.4792C11.3629 41.3229 13.6367 37.4339 16.6538 37.4339C17.287 37.4339 18.0907 37.8154 18.9435 38.2193C20.0234 38.7305 21.2493 39.3113 22.5976 39.3113C23.946 39.3113 25.1724 38.7315 26.2516 38.2193C27.1054 37.8154 27.91 37.4339 28.543 37.4339C31.56 37.4339 33.8339 41.3222 33.8339 46.4792C33.8339 53.6566 31.1102 66.8539 28.9509 69.0165Z" fill="#01A3C8"/>
<path d="M46.8738 28.2061L40.502 21.8343C39.88 21.2122 39.88 20.204 40.5023 19.5819C40.8135 19.2706 41.2205 19.1152 41.6284 19.1152C42.036 19.1152 42.4429 19.2704 42.7544 19.5819L46.4068 23.2343L46.4068 1.59299C46.4068 0.713543 47.1197 -7.69452e-08 47.9998 0C48.88 7.69452e-08 49.5928 0.713777 49.5928 1.59299L49.5928 23.2344L53.2453 19.5819C53.8674 18.9598 54.8756 18.9598 55.4977 19.5819C56.1198 20.204 56.1198 21.2122 55.4977 21.8343L49.1262 28.2061C48.5041 28.8281 47.4959 28.8281 46.8738 28.2061Z" fill="#01A3C8"/>
</svg>
