<svg width="47" height="37" viewBox="0 0 47 37" fill="none" xmlns="http://www.w3.org/2000/svg">
<path d="M36.2111 37C33.0695 37 30.5066 35.8788 28.5224 33.6364C26.5383 31.3939 25.5462 28.321 25.5462 24.4175C25.5462 19.1021 27.1583 14.2435 30.3826 9.84175C33.6895 5.43996 39.2287 2.15937 47 0V5.9798C43.197 7.30864 40.3448 8.76207 38.4433 10.3401C36.6244 11.835 35.715 13.7868 35.715 16.1953C35.715 17.4411 36.1697 18.3962 37.0792 19.0606C37.9886 19.642 39.022 20.2649 40.1794 20.9293C41.4195 21.5937 42.4943 22.5073 43.4037 23.67C44.3131 24.8328 44.7678 26.5769 44.7678 28.9024C44.7678 31.477 43.9411 33.4703 42.2876 34.8822C40.7168 36.2941 38.6913 37 36.2111 37ZM10.6649 37C7.60598 37 5.0431 35.8788 2.97625 33.6364C0.992085 31.3939 0 28.321 0 24.4175C0 19.1021 1.61214 14.2435 4.83641 9.84175C8.14336 5.43996 13.6825 2.15937 21.4538 0V5.9798C17.7335 7.30864 14.9226 8.76207 13.0211 10.3401C11.2023 11.835 10.2929 13.7868 10.2929 16.1953C10.2929 17.4411 10.7476 18.3962 11.657 19.0606C12.5664 19.642 13.5998 20.2649 14.7573 20.9293C15.9974 21.5937 17.0721 22.5073 17.9815 23.67C18.8909 24.8328 19.3456 26.5769 19.3456 28.9024C19.3456 31.477 18.5189 33.4703 16.8654 34.8822C15.212 36.2941 13.1451 37 10.6649 37Z" fill="#01A3C8"/>
</svg>
